# MagicaVoxel @ Ephtracy

# group
o 

# material
mtllib baseCabinet.mtl
usemtl palette

# normals
vn -1 0 0
vn 1 0 0
vn 0 0 1
vn 0 0 -1
vn 0 -1 0
vn 0 1 0

# texcoords
vt 0.943359 0.5
vt 0.947266 0.5
vt 0.951172 0.5
vt 0.955078 0.5
vt 0.978516 0.5
vt 0.982422 0.5

# verts
v -1.5 0 1.5
v -1.5 0 -1.4
v -1.5 0 -1.5
v -1.5 2.7 1.5
v -1.5 2.7 -1.4
v -1.5 2.7 -1.5
v -1.5 2.8 1.5
v -1.5 2.8 0.3
v -1.5 2.8 0.1
v -1.5 2.8 -1.5
v -1.5 2.9 0.3
v -1.5 2.9 0.1
v 1.2 2.8 0.3
v 1.2 2.8 0.1
v 1.2 2.9 0.3
v 1.2 2.9 0.1
v 1.4 0.1 1.4
v 1.4 0.1 -1.4
v 1.4 2.6 1.4
v 1.4 2.6 -1.4
v -1.4 0.1 1.4
v -1.4 0.1 -1.4
v -1.4 2.6 1.4
v -1.4 2.6 -1.4
v -1.2 2.8 0.3
v -1.2 2.8 0.1
v -1.2 2.9 0.3
v -1.2 2.9 0.1
v 1.5 0 1.5
v 1.5 0 -1.4
v 1.5 0 -1.5
v 1.5 2.7 1.5
v 1.5 2.7 -1.4
v 1.5 2.7 -1.5
v 1.5 2.8 1.5
v 1.5 2.8 0.3
v 1.5 2.8 0.1
v 1.5 2.8 -1.5
v 1.5 2.9 0.3
v 1.5 2.9 0.1
v -1.5 0 1.5
v -1.5 2.7 1.5
v -1.5 2.8 1.5
v 1.5 0 1.5
v 1.5 2.7 1.5
v 1.5 2.8 1.5
v -1.5 2.8 0.3
v -1.5 2.9 0.3
v -1.2 2.8 0.3
v -1.2 2.9 0.3
v 1.2 2.8 0.3
v 1.2 2.9 0.3
v 1.5 2.8 0.3
v 1.5 2.9 0.3
v -1.4 0.1 -1.4
v -1.4 2.6 -1.4
v -0.5 1.5 -1.4
v -0.5 1.7 -1.4
v -0.3 1.5 -1.4
v -0.3 1.7 -1.4
v -0.1 0.1 -1.4
v -0.1 2.6 -1.4
v 0.1 0.1 -1.4
v 0.1 2.6 -1.4
v 0.3 1.5 -1.4
v 0.3 1.7 -1.4
v 0.5 1.5 -1.4
v 0.5 1.7 -1.4
v 1.4 0.1 -1.4
v 1.4 2.6 -1.4
v -1.4 0.1 1.4
v -1.4 2.6 1.4
v 1.4 0.1 1.4
v 1.4 2.6 1.4
v -1.5 2.8 0.1
v -1.5 2.9 0.1
v -1.2 2.8 0.1
v -1.2 2.9 0.1
v 1.2 2.8 0.1
v 1.2 2.9 0.1
v 1.5 2.8 0.1
v 1.5 2.9 0.1
v -1.5 0 -1.5
v -1.5 2.7 -1.5
v -1.5 2.8 -1.5
v -1.4 0.1 -1.5
v -1.4 2.6 -1.5
v -0.5 1.5 -1.5
v -0.5 1.7 -1.5
v -0.3 1.5 -1.5
v -0.3 1.7 -1.5
v -0.1 0.1 -1.5
v -0.1 2.6 -1.5
v 0.1 0.1 -1.5
v 0.1 2.6 -1.5
v 0.3 1.5 -1.5
v 0.3 1.7 -1.5
v 0.5 1.5 -1.5
v 0.5 1.7 -1.5
v 1.4 0.1 -1.5
v 1.4 2.6 -1.5
v 1.5 0 -1.5
v 1.5 2.7 -1.5
v 1.5 2.8 -1.5
v -1.5 0 1.5
v 1.5 0 1.5
v -1.5 0 -1.4
v 1.5 0 -1.4
v -1.5 0 -1.5
v 1.5 0 -1.5
v -1.4 2.6 1.4
v 1.4 2.6 1.4
v -1.4 2.6 -1.4
v -0.1 2.6 -1.4
v 0.1 2.6 -1.4
v 1.4 2.6 -1.4
v -1.4 0.1 1.4
v 1.4 0.1 1.4
v -1.4 0.1 -1.4
v -0.1 0.1 -1.4
v 0.1 0.1 -1.4
v 1.4 0.1 -1.4
v -1.5 2.8 1.5
v 1.5 2.8 1.5
v -1.5 2.8 0.3
v -1.2 2.8 0.3
v 1.2 2.8 0.3
v 1.5 2.8 0.3
v -1.5 2.8 0.1
v -1.2 2.8 0.1
v 1.2 2.8 0.1
v 1.5 2.8 0.1
v -1.5 2.8 -1.5
v 1.5 2.8 -1.5
v -1.5 2.9 0.3
v -1.2 2.9 0.3
v 1.2 2.9 0.3
v 1.5 2.9 0.3
v -1.5 2.9 0.1
v -1.2 2.9 0.1
v 1.2 2.9 0.1
v 1.5 2.9 0.1

# faces
f 4/3/1 2/3/1 1/3/1
f 5/1/1 3/1/1 2/1/1
f 5/3/1 2/3/1 4/3/1
f 6/1/1 3/1/1 5/1/1
f 7/4/1 5/4/1 4/4/1
f 7/4/1 6/4/1 5/4/1
f 8/4/1 6/4/1 7/4/1
f 9/4/1 6/4/1 8/4/1
f 10/4/1 6/4/1 9/4/1
f 11/5/1 9/5/1 8/5/1
f 12/5/1 9/5/1 11/5/1
f 15/5/1 14/5/1 13/5/1
f 16/5/1 14/5/1 15/5/1
f 19/3/1 18/3/1 17/3/1
f 20/3/1 18/3/1 19/3/1
f 21/3/2 22/3/2 23/3/2
f 23/3/2 22/3/2 24/3/2
f 25/5/2 26/5/2 27/5/2
f 27/5/2 26/5/2 28/5/2
f 29/3/2 30/3/2 32/3/2
f 30/1/2 31/1/2 33/1/2
f 32/3/2 30/3/2 33/3/2
f 33/1/2 31/1/2 34/1/2
f 32/4/2 33/4/2 35/4/2
f 33/4/2 34/4/2 35/4/2
f 35/4/2 34/4/2 36/4/2
f 36/4/2 34/4/2 37/4/2
f 37/4/2 34/4/2 38/4/2
f 36/5/2 37/5/2 39/5/2
f 39/5/2 37/5/2 40/5/2
f 44/3/3 42/3/3 41/3/3
f 45/4/3 43/4/3 42/4/3
f 45/3/3 42/3/3 44/3/3
f 46/4/3 43/4/3 45/4/3
f 49/5/3 48/5/3 47/5/3
f 50/5/3 48/5/3 49/5/3
f 53/5/3 52/5/3 51/5/3
f 54/5/3 52/5/3 53/5/3
f 57/3/3 56/3/3 55/3/3
f 58/3/3 56/3/3 57/3/3
f 59/3/3 57/3/3 55/3/3
f 59/2/3 58/2/3 57/2/3
f 60/3/3 56/3/3 58/3/3
f 60/2/3 58/2/3 59/2/3
f 61/3/3 59/3/3 55/3/3
f 61/3/3 60/3/3 59/3/3
f 62/3/3 56/3/3 60/3/3
f 62/3/3 60/3/3 61/3/3
f 63/4/3 62/4/3 61/4/3
f 64/4/3 62/4/3 63/4/3
f 65/3/3 64/3/3 63/3/3
f 66/3/3 64/3/3 65/3/3
f 67/3/3 65/3/3 63/3/3
f 67/2/3 66/2/3 65/2/3
f 68/3/3 64/3/3 66/3/3
f 68/2/3 66/2/3 67/2/3
f 69/3/3 67/3/3 63/3/3
f 69/3/3 68/3/3 67/3/3
f 70/3/3 64/3/3 68/3/3
f 70/3/3 68/3/3 69/3/3
f 71/3/4 72/3/4 73/3/4
f 73/3/4 72/3/4 74/3/4
f 75/5/4 76/5/4 77/5/4
f 77/5/4 76/5/4 78/5/4
f 79/5/4 80/5/4 81/5/4
f 81/5/4 80/5/4 82/5/4
f 83/1/4 84/1/4 86/1/4
f 86/1/4 84/1/4 87/1/4
f 86/3/4 87/3/4 88/3/4
f 88/3/4 87/3/4 89/3/4
f 86/3/4 88/3/4 90/3/4
f 88/2/4 89/2/4 90/2/4
f 89/3/4 87/3/4 91/3/4
f 90/2/4 89/2/4 91/2/4
f 83/1/4 86/1/4 92/1/4
f 86/3/4 90/3/4 92/3/4
f 90/3/4 91/3/4 92/3/4
f 91/3/4 87/3/4 93/3/4
f 92/3/4 91/3/4 93/3/4
f 87/1/4 84/1/4 93/1/4
f 83/1/4 92/1/4 94/1/4
f 92/4/4 93/4/4 94/4/4
f 93/1/4 84/1/4 95/1/4
f 94/4/4 93/4/4 95/4/4
f 94/3/4 95/3/4 96/3/4
f 96/3/4 95/3/4 97/3/4
f 94/3/4 96/3/4 98/3/4
f 96/2/4 97/2/4 98/2/4
f 97/3/4 95/3/4 99/3/4
f 98/2/4 97/2/4 99/2/4
f 83/1/4 94/1/4 100/1/4
f 94/3/4 98/3/4 100/3/4
f 98/3/4 99/3/4 100/3/4
f 99/3/4 95/3/4 101/3/4
f 100/3/4 99/3/4 101/3/4
f 95/1/4 84/1/4 101/1/4
f 83/1/4 100/1/4 102/1/4
f 100/1/4 101/1/4 102/1/4
f 84/4/4 85/4/4 103/4/4
f 102/1/4 101/1/4 103/1/4
f 101/1/4 84/1/4 103/1/4
f 103/4/4 85/4/4 104/4/4
f 107/3/5 106/3/5 105/3/5
f 108/3/5 106/3/5 107/3/5
f 109/1/5 108/1/5 107/1/5
f 110/1/5 108/1/5 109/1/5
f 113/3/5 112/3/5 111/3/5
f 114/3/5 112/3/5 113/3/5
f 115/3/5 112/3/5 114/3/5
f 116/3/5 112/3/5 115/3/5
f 117/3/6 118/3/6 119/3/6
f 119/3/6 118/3/6 120/3/6
f 120/3/6 118/3/6 121/3/6
f 121/3/6 118/3/6 122/3/6
f 123/4/6 124/4/6 125/4/6
f 125/4/6 124/4/6 126/4/6
f 126/4/6 124/4/6 127/4/6
f 127/4/6 124/4/6 128/4/6
f 126/4/6 127/4/6 130/4/6
f 130/4/6 127/4/6 131/4/6
f 129/4/6 130/4/6 133/4/6
f 131/4/6 132/4/6 133/4/6
f 130/4/6 131/4/6 133/4/6
f 133/4/6 132/4/6 134/4/6
f 135/5/6 136/5/6 139/5/6
f 139/5/6 136/5/6 140/5/6
f 137/5/6 138/5/6 141/5/6
f 141/5/6 138/5/6 142/5/6
