# MagicaVoxel @ Ephtracy

# group
o 

# material
mtllib SnakeObjOrange.mtl
usemtl palette

# normals
vn -1 0 0
vn 1 0 0
vn 0 0 1
vn 0 0 -1
vn 0 -1 0
vn 0 1 0

# texcoords
vt 0.626953 0.5
vt 0.630859 0.5
vt 0.634766 0.5
vt 0.787109 0.5
vt 0.791016 0.5
vt 0.818359 0.5
vt 0.822266 0.5
vt 0.826172 0.5
vt 0.994141 0.5

# verts
v -0.5 0 -0.6
v -0.5 0 -0.7
v -0.5 0 -0.8
v -0.5 0 -1
v -0.5 0 -1.1
v -0.5 0 -1.4
v -0.5 0.2 -0.6
v -0.5 0.2 -0.7
v -0.5 0.2 -0.8
v -0.5 0.2 -1
v -0.5 0.2 -1.1
v -0.5 0.2 -1.4
v -0.5 0.4 -0.6
v -0.5 0.4 -1.4
v -0.4 0.2 -1.4
v -0.4 0.2 -1.5
v -0.4 0.3 -1.5
v -0.4 0.3 -1.6
v -0.4 0.4 -1.4
v -0.4 0.4 -1.6
v -0.4 0.4 -1.7
v -0.4 0.5 -1.4
v -0.4 0.5 -1.5
v -0.4 0.6 -1.5
v -0.4 0.6 -1.7
v -0.2 0 1.2
v -0.2 0 1
v -0.2 0 0.9
v -0.2 0 0.6
v -0.2 0 0.4
v -0.2 0 0
v -0.2 0 -0.1
v -0.2 0.2 1.2
v -0.2 0.2 1
v -0.2 0.2 0.9
v -0.2 0.2 0.7
v -0.2 0.2 0.6
v -0.2 0.2 0.4
v -0.2 0.2 0
v -0.2 0.2 -0.1
v -0.2 0.3 1
v -0.2 0.3 0.8
v -0.2 0.3 0.7
v -0.2 0.3 0.4
v -0.2 0.3 0.3
v -0.2 0.3 0.1
v -0.2 0.3 -0.1
v -0.2 0.4 0.9
v -0.2 0.4 0.8
v -0.2 0.4 0.3
v -0.2 0.4 0.1
v -0.2 0.4 -0.1
v -0.2 0.6 1.3
v -0.2 0.6 1.2
v -0.2 0.7 1.1
v -0.2 0.7 1
v -0.2 0.8 1.3
v -0.2 0.8 1.2
v -0.2 0.8 1.1
v -0.2 0.8 1
v -0.2 0.8 0.9
v -0.2 0.9 1.2
v -0.2 0.9 1.1
v -0.2 1 1.3
v -0.2 1 1
v -0.1 0.7 1.4
v -0.1 0.7 1.3
v -0.1 0.8 1.6
v -0.1 0.8 1.5
v -0.1 0.8 1.4
v -0.1 0.8 1.3
v -0.1 1 1.6
v -0.1 1 1.5
v 0 0.8 1.5
v 0 0.8 1.4
v 0 0.9 1.5
v 0 0.9 1.4
v 0.2 0 -0.1
v 0.2 0 -0.3
v 0.2 0 -0.5
v 0.2 0 -0.6
v 0.2 0.1 -0.1
v 0.2 0.2 -0.1
v 0.2 0.2 -0.3
v 0.2 0.2 -0.5
v 0.2 0.2 -0.6
v 0.2 0.3 -0.1
v 0.2 0.3 -0.2
v 0.2 0.3 -0.3
v 0.2 0.3 -0.4
v 0.2 0.4 -0.1
v 0.2 0.4 -0.2
v 0.2 0.4 -0.4
v 0.2 0.4 -0.6
v -0.2 0.2 -1.4
v -0.2 0.2 -1.5
v -0.2 0.3 -1.5
v -0.2 0.3 -1.6
v -0.2 0.4 -1.4
v -0.2 0.4 -1.6
v -0.2 0.4 -1.7
v -0.2 0.5 -1.4
v -0.2 0.5 -1.5
v -0.2 0.6 -1.5
v -0.2 0.6 -1.7
v -0.1 0 -0.9
v -0.1 0 -1
v -0.1 0 -1.2
v -0.1 0 -1.3
v -0.1 0 -1.4
v -0.1 0.2 -0.9
v -0.1 0.2 -1
v -0.1 0.2 -1.2
v -0.1 0.2 -1.3
v -0.1 0.2 -1.4
v -0.1 0.3 -0.9
v -0.1 0.3 -1.1
v -0.1 0.3 -1.2
v -0.1 0.4 -0.9
v -0.1 0.4 -1.1
v -0.1 0.4 -1.2
v -0.1 0.4 -1.4
v 0 0.9 1.6
v 0 0.9 1.5
v 0 1 1.6
v 0 1 1.5
v 0.1 0.7 1.4
v 0.1 0.7 1.3
v 0.1 0.8 1.6
v 0.1 0.8 1.4
v 0.1 0.8 1.3
v 0.1 0.9 1.6
v 0.1 0.9 1.4
v 0.2 0 1.2
v 0.2 0 1.1
v 0.2 0 0.8
v 0.2 0 0.7
v 0.2 0 0.3
v 0.2 0 0.2
v 0.2 0.2 1.1
v 0.2 0.2 1
v 0.2 0.2 0.8
v 0.2 0.2 0.7
v 0.2 0.2 0.6
v 0.2 0.2 0.3
v 0.2 0.2 0.2
v 0.2 0.3 0.6
v 0.2 0.3 0.3
v 0.2 0.3 0.2
v 0.2 0.4 0.9
v 0.2 0.4 0.3
v 0.2 0.4 0.2
v 0.2 0.6 1.3
v 0.2 0.6 1.2
v 0.2 0.7 1.1
v 0.2 0.7 1
v 0.2 0.8 1.3
v 0.2 0.8 1.2
v 0.2 0.8 1.1
v 0.2 0.8 1
v 0.2 0.8 0.9
v 0.2 0.9 1.2
v 0.2 0.9 1.1
v 0.2 1 1.3
v 0.2 1 1
v 0.6 0 0.2
v 0.6 0 -0.2
v 0.6 0 -0.3
v 0.6 0 -0.6
v 0.6 0 -0.7
v 0.6 0 -0.9
v 0.6 0.2 0.2
v 0.6 0.2 -0.2
v 0.6 0.2 -0.3
v 0.6 0.2 -0.6
v 0.6 0.2 -0.7
v 0.6 0.2 -0.9
v 0.6 0.3 -0.5
v 0.6 0.3 -0.6
v 0.6 0.3 -0.7
v 0.6 0.3 -0.8
v 0.6 0.4 0.2
v 0.6 0.4 -0.5
v 0.6 0.4 -0.6
v 0.6 0.4 -0.7
v 0.6 0.4 -0.8
v 0.6 0.4 -0.9
v -0.1 0.8 1.6
v -0.1 1 1.6
v 0 0.9 1.6
v 0 1 1.6
v 0.1 0.8 1.6
v 0.1 0.9 1.6
v -0.1 0.7 1.4
v -0.1 0.8 1.4
v 0 0.8 1.4
v 0.1 0.7 1.4
v 0.1 0.8 1.4
v -0.2 0.6 1.3
v -0.2 0.8 1.3
v -0.2 1 1.3
v -0.1 0.7 1.3
v -0.1 0.8 1.3
v 0.1 0.7 1.3
v 0.1 0.8 1.3
v 0.2 0.6 1.3
v 0.2 0.8 1.3
v 0.2 1 1.3
v -0.2 0 1.2
v -0.2 0.2 1.2
v -0.2 0.6 1.2
v 0.1 0 1.2
v 0.1 0.2 1.2
v 0.2 0 1.2
v 0.2 0.6 1.2
v 0.2 0 0.2
v 0.2 0.2 0.2
v 0.2 0.3 0.2
v 0.2 0.4 0.2
v 0.4 0 0.2
v 0.4 0.2 0.2
v 0.5 0 0.2
v 0.5 0.2 0.2
v 0.6 0 0.2
v 0.6 0.2 0.2
v 0.6 0.4 0.2
v -0.5 0 -0.6
v -0.5 0.2 -0.6
v -0.5 0.4 -0.6
v 0.1 0 -0.6
v 0.1 0.2 -0.6
v 0.2 0 -0.6
v 0.2 0.2 -0.6
v 0.2 0.4 -0.6
v -0.4 0.4 -1.4
v -0.4 0.5 -1.4
v -0.2 0.4 -1.4
v -0.2 0.5 -1.4
v -0.4 0.5 -1.5
v -0.4 0.6 -1.5
v -0.2 0.5 -1.5
v -0.2 0.6 -1.5
v -0.1 0.8 1.5
v -0.1 1 1.5
v 0 0.8 1.5
v 0 0.9 1.5
v 0 1 1.5
v 0 0.8 1.4
v 0 0.9 1.4
v 0.1 0.8 1.4
v 0.1 0.9 1.4
v -0.2 0.8 1
v -0.2 1 1
v -0.1 0.8 1
v -0.1 0.9 1
v 0.1 0.8 1
v 0.1 0.9 1
v 0.2 0.8 1
v 0.2 1 1
v -0.2 0.4 0.9
v -0.2 0.8 0.9
v 0.2 0.4 0.9
v 0.2 0.8 0.9
v -0.2 0 -0.1
v -0.2 0.2 -0.1
v -0.2 0.3 -0.1
v -0.2 0.4 -0.1
v -0.1 0 -0.1
v -0.1 0.2 -0.1
v -0.1 0.3 -0.1
v 0 0.3 -0.1
v 0 0.4 -0.1
v 0.1 0 -0.1
v 0.1 0.1 -0.1
v 0.2 0 -0.1
v 0.2 0.1 -0.1
v 0.2 0.2 -0.1
v 0.2 0.3 -0.1
v 0.2 0.4 -0.1
v -0.1 0 -0.9
v -0.1 0.2 -0.9
v -0.1 0.3 -0.9
v -0.1 0.4 -0.9
v 0 0 -0.9
v 0 0.2 -0.9
v 0.1 0.3 -0.9
v 0.1 0.4 -0.9
v 0.2 0.3 -0.9
v 0.2 0.4 -0.9
v 0.3 0.3 -0.9
v 0.3 0.4 -0.9
v 0.4 0 -0.9
v 0.4 0.2 -0.9
v 0.5 0 -0.9
v 0.5 0.2 -0.9
v 0.5 0.3 -0.9
v 0.5 0.4 -0.9
v 0.6 0 -0.9
v 0.6 0.2 -0.9
v 0.6 0.4 -0.9
v -0.5 0 -1.4
v -0.5 0.2 -1.4
v -0.5 0.4 -1.4
v -0.4 0.2 -1.4
v -0.4 0.4 -1.4
v -0.2 0.2 -1.4
v -0.2 0.4 -1.4
v -0.1 0 -1.4
v -0.1 0.2 -1.4
v -0.1 0.4 -1.4
v -0.4 0.2 -1.5
v -0.4 0.3 -1.5
v -0.2 0.2 -1.5
v -0.2 0.3 -1.5
v -0.4 0.3 -1.6
v -0.4 0.4 -1.6
v -0.2 0.3 -1.6
v -0.2 0.4 -1.6
v -0.4 0.4 -1.7
v -0.4 0.6 -1.7
v -0.2 0.4 -1.7
v -0.2 0.6 -1.7
v -0.2 0 1.2
v 0.1 0 1.2
v 0.2 0 1.2
v -0.1 0 1.1
v 0.1 0 1.1
v 0.2 0 1.1
v -0.2 0 1
v -0.1 0 1
v 0.1 0 1
v -0.2 0 0.9
v -0.1 0 0.9
v 0.1 0 0.9
v -0.1 0 0.8
v 0.1 0 0.8
v 0.2 0 0.8
v -0.1 0 0.7
v 0.1 0 0.7
v 0.2 0 0.7
v -0.2 0 0.6
v -0.1 0 0.6
v 0.1 0 0.6
v -0.2 0 0.4
v -0.1 0 0.4
v 0.1 0 0.4
v -0.1 0 0.3
v 0.1 0 0.3
v 0.2 0 0.3
v 0.2 0 0.2
v 0.4 0 0.2
v 0.5 0 0.2
v 0.6 0 0.2
v -0.1 0 0.1
v 0.1 0 0.1
v 0.2 0 0.1
v 0.4 0 0.1
v 0.5 0 0.1
v -0.2 0 0
v -0.1 0 0
v 0.1 0 0
v 0.2 0 0
v 0.4 0 0
v -0.2 0 -0.1
v -0.1 0 -0.1
v 0.1 0 -0.1
v 0.2 0 -0.1
v 0.4 0 -0.1
v 0.3 0 -0.2
v 0.4 0 -0.2
v 0.6 0 -0.2
v 0.2 0 -0.3
v 0.3 0 -0.3
v 0.4 0 -0.3
v 0.6 0 -0.3
v 0.3 0 -0.4
v 0.4 0 -0.4
v 0.5 0 -0.4
v 0.2 0 -0.5
v 0.3 0 -0.5
v -0.5 0 -0.6
v 0.1 0 -0.6
v 0.2 0 -0.6
v 0.3 0 -0.6
v 0.4 0 -0.6
v 0.5 0 -0.6
v 0.6 0 -0.6
v -0.5 0 -0.7
v -0.4 0 -0.7
v 0 0 -0.7
v 0.1 0 -0.7
v 0.2 0 -0.7
v 0.5 0 -0.7
v 0.6 0 -0.7
v -0.5 0 -0.8
v -0.4 0 -0.8
v -0.2 0 -0.8
v -0.1 0 -0.8
v 0 0 -0.8
v 0.1 0 -0.8
v 0.3 0 -0.8
v 0.4 0 -0.8
v 0.5 0 -0.8
v -0.4 0 -0.9
v -0.2 0 -0.9
v -0.1 0 -0.9
v 0 0 -0.9
v 0.4 0 -0.9
v 0.5 0 -0.9
v 0.6 0 -0.9
v -0.5 0 -1
v -0.4 0 -1
v -0.2 0 -1
v -0.1 0 -1
v -0.5 0 -1.1
v -0.4 0 -1.1
v -0.2 0 -1.1
v -0.4 0 -1.2
v -0.2 0 -1.2
v -0.1 0 -1.2
v -0.2 0 -1.3
v -0.1 0 -1.3
v -0.5 0 -1.4
v -0.1 0 -1.4
v -0.4 0.2 -1.4
v -0.2 0.2 -1.4
v -0.4 0.2 -1.5
v -0.2 0.2 -1.5
v -0.4 0.3 -1.5
v -0.2 0.3 -1.5
v -0.4 0.3 -1.6
v -0.2 0.3 -1.6
v -0.4 0.4 -1.6
v -0.2 0.4 -1.6
v -0.4 0.4 -1.7
v -0.2 0.4 -1.7
v -0.2 0.6 1.3
v 0.2 0.6 1.3
v -0.2 0.6 1.2
v 0.2 0.6 1.2
v -0.1 0.7 1.4
v 0.1 0.7 1.4
v -0.1 0.7 1.3
v 0.1 0.7 1.3
v -0.1 0.8 1.6
v 0.1 0.8 1.6
v -0.1 0.8 1.5
v 0 0.8 1.5
v 0 0.8 1.4
v 0.1 0.8 1.4
v -0.2 0.4 0.9
v 0.2 0.4 0.9
v -0.2 0.4 0.8
v -0.1 0.4 0.8
v -0.1 0.4 0.7
v 0 0.4 0.7
v -0.1 0.4 0.4
v 0 0.4 0.4
v -0.2 0.4 0.3
v -0.1 0.4 0.3
v 0 0.4 0.3
v 0.1 0.4 0.3
v 0.2 0.4 0.3
v -0.1 0.4 0.2
v 0 0.4 0.2
v 0.1 0.4 0.2
v 0.2 0.4 0.2
v 0.6 0.4 0.2
v -0.2 0.4 0.1
v -0.1 0.4 0.1
v 0 0.4 0.1
v 0.1 0.4 0.1
v 0.2 0.4 0.1
v -0.1 0.4 0
v 0 0.4 0
v -0.2 0.4 -0.1
v 0 0.4 -0.1
v 0.2 0.4 -0.1
v 0.2 0.4 -0.2
v 0.3 0.4 -0.2
v 0.3 0.4 -0.3
v 0.4 0.4 -0.3
v 0.2 0.4 -0.4
v 0.3 0.4 -0.4
v 0.4 0.4 -0.4
v 0.5 0.4 -0.5
v 0.6 0.4 -0.5
v -0.5 0.4 -0.6
v 0.2 0.4 -0.6
v 0.3 0.4 -0.6
v 0.4 0.4 -0.6
v 0.5 0.4 -0.6
v 0.6 0.4 -0.6
v -0.1 0.4 -0.7
v 0 0.4 -0.7
v 0.1 0.4 -0.7
v 0.3 0.4 -0.7
v 0.4 0.4 -0.7
v 0.5 0.4 -0.7
v 0.6 0.4 -0.7
v -0.1 0.4 -0.8
v 0 0.4 -0.8
v 0.1 0.4 -0.8
v 0.2 0.4 -0.8
v 0.3 0.4 -0.8
v 0.4 0.4 -0.8
v 0.5 0.4 -0.8
v 0.6 0.4 -0.8
v -0.2 0.4 -0.9
v -0.1 0.4 -0.9
v 0.1 0.4 -0.9
v 0.2 0.4 -0.9
v 0.3 0.4 -0.9
v 0.5 0.4 -0.9
v 0.6 0.4 -0.9
v -0.3 0.4 -1
v -0.2 0.4 -1
v -0.3 0.4 -1.1
v -0.2 0.4 -1.1
v -0.1 0.4 -1.1
v -0.2 0.4 -1.2
v -0.1 0.4 -1.2
v -0.3 0.4 -1.3
v -0.2 0.4 -1.3
v -0.5 0.4 -1.4
v -0.4 0.4 -1.4
v -0.2 0.4 -1.4
v -0.1 0.4 -1.4
v -0.4 0.5 -1.4
v -0.2 0.5 -1.4
v -0.4 0.5 -1.5
v -0.2 0.5 -1.5
v -0.4 0.6 -1.5
v -0.2 0.6 -1.5
v -0.4 0.6 -1.7
v -0.2 0.6 -1.7
v -0.1 0.8 1.4
v 0 0.8 1.4
v 0.1 0.8 1.4
v -0.1 0.8 1.3
v 0.1 0.8 1.3
v -0.2 0.8 1
v -0.1 0.8 1
v 0.1 0.8 1
v 0.2 0.8 1
v -0.2 0.8 0.9
v 0.2 0.8 0.9
v 0 0.9 1.6
v 0.1 0.9 1.6
v 0 0.9 1.5
v 0 0.9 1.4
v 0.1 0.9 1.4
v -0.1 1 1.6
v 0 1 1.6
v -0.1 1 1.5
v 0 1 1.5
v -0.2 1 1.3
v 0.2 1 1.3
v -0.2 1 1
v 0.2 1 1

# faces
f 7/5/1 2/5/1 1/5/1
f 8/4/1 3/4/1 2/4/1
f 8/5/1 2/5/1 7/5/1
f 9/5/1 4/5/1 3/5/1
f 9/4/1 3/4/1 8/4/1
f 10/4/1 5/4/1 4/4/1
f 10/5/1 4/5/1 9/5/1
f 11/5/1 6/5/1 5/5/1
f 11/4/1 5/4/1 10/4/1
f 12/5/1 6/5/1 11/5/1
f 13/1/1 10/1/1 9/1/1
f 13/1/1 8/1/1 7/1/1
f 13/1/1 12/1/1 11/1/1
f 13/1/1 11/1/1 10/1/1
f 13/1/1 9/1/1 8/1/1
f 14/1/1 12/1/1 13/1/1
f 17/9/1 16/9/1 15/9/1
f 19/9/1 17/9/1 15/9/1
f 19/9/1 18/9/1 17/9/1
f 20/9/1 18/9/1 19/9/1
f 22/9/1 20/9/1 19/9/1
f 22/9/1 21/9/1 20/9/1
f 23/9/1 21/9/1 22/9/1
f 24/9/1 21/9/1 23/9/1
f 25/9/1 21/9/1 24/9/1
f 33/5/1 27/5/1 26/5/1
f 34/4/1 28/4/1 27/4/1
f 34/5/1 27/5/1 33/5/1
f 35/5/1 29/5/1 28/5/1
f 35/4/1 28/4/1 34/4/1
f 36/5/1 29/5/1 35/5/1
f 37/4/1 30/4/1 29/4/1
f 37/5/1 29/5/1 36/5/1
f 38/5/1 31/5/1 30/5/1
f 38/4/1 30/4/1 37/4/1
f 39/4/1 32/4/1 31/4/1
f 39/5/1 31/5/1 38/5/1
f 40/4/1 32/4/1 39/4/1
f 41/4/1 34/4/1 33/4/1
f 41/6/1 36/6/1 35/6/1
f 41/6/1 35/6/1 34/6/1
f 42/6/1 36/6/1 41/6/1
f 43/3/1 38/3/1 37/3/1
f 43/6/1 36/6/1 42/6/1
f 43/3/1 37/3/1 36/3/1
f 44/1/1 40/1/1 39/1/1
f 44/3/1 38/3/1 43/3/1
f 44/1/1 39/1/1 38/1/1
f 45/1/1 40/1/1 44/1/1
f 46/1/1 40/1/1 45/1/1
f 47/1/1 40/1/1 46/1/1
f 48/1/1 42/1/1 41/1/1
f 49/3/1 43/3/1 42/3/1
f 49/1/1 42/1/1 48/1/1
f 49/3/1 44/3/1 43/3/1
f 49/3/1 45/3/1 44/3/1
f 50/1/1 46/1/1 45/1/1
f 50/3/1 45/3/1 49/3/1
f 51/2/1 47/2/1 46/2/1
f 51/1/1 46/1/1 50/1/1
f 52/2/1 47/2/1 51/2/1
f 54/4/1 41/4/1 33/4/1
f 55/4/1 41/4/1 54/4/1
f 55/4/1 54/4/1 53/4/1
f 56/1/1 48/1/1 41/1/1
f 56/4/1 41/4/1 55/4/1
f 57/4/1 55/4/1 53/4/1
f 58/4/1 55/4/1 57/4/1
f 59/1/1 56/1/1 55/1/1
f 59/4/1 55/4/1 58/4/1
f 60/1/1 48/1/1 56/1/1
f 60/1/1 56/1/1 59/1/1
f 61/1/1 48/1/1 60/1/1
f 62/9/1 59/9/1 58/9/1
f 62/1/1 58/1/1 57/1/1
f 63/1/1 60/1/1 59/1/1
f 63/9/1 59/9/1 62/9/1
f 64/1/1 62/1/1 57/1/1
f 64/1/1 63/1/1 62/1/1
f 65/1/1 60/1/1 63/1/1
f 65/1/1 63/1/1 64/1/1
f 70/8/1 67/8/1 66/8/1
f 71/8/1 67/8/1 70/8/1
f 72/8/1 69/8/1 68/8/1
f 73/8/1 69/8/1 72/8/1
f 76/8/1 75/8/1 74/8/1
f 77/8/1 75/8/1 76/8/1
f 82/4/1 79/4/1 78/4/1
f 83/4/1 79/4/1 82/4/1
f 84/5/1 80/5/1 79/5/1
f 84/4/1 79/4/1 83/4/1
f 85/4/1 81/4/1 80/4/1
f 85/5/1 80/5/1 84/5/1
f 86/4/1 81/4/1 85/4/1
f 87/7/1 84/7/1 83/7/1
f 88/7/1 84/7/1 87/7/1
f 89/1/1 85/1/1 84/1/1
f 89/7/1 84/7/1 88/7/1
f 89/1/1 86/1/1 85/1/1
f 90/1/1 86/1/1 89/1/1
f 91/1/1 88/1/1 87/1/1
f 92/2/1 89/2/1 88/2/1
f 92/1/1 88/1/1 91/1/1
f 92/2/1 90/2/1 89/2/1
f 93/1/1 86/1/1 90/1/1
f 93/2/1 90/2/1 92/2/1
f 94/1/1 86/1/1 93/1/1
f 95/9/2 96/9/2 97/9/2
f 95/9/2 97/9/2 99/9/2
f 97/9/2 98/9/2 99/9/2
f 99/9/2 98/9/2 100/9/2
f 99/9/2 100/9/2 102/9/2
f 100/9/2 101/9/2 102/9/2
f 102/9/2 101/9/2 103/9/2
f 103/9/2 101/9/2 104/9/2
f 104/9/2 101/9/2 105/9/2
f 106/4/2 107/4/2 111/4/2
f 107/5/2 108/5/2 112/5/2
f 111/4/2 107/4/2 112/4/2
f 108/4/2 109/4/2 113/4/2
f 112/5/2 108/5/2 113/5/2
f 109/5/2 110/5/2 114/5/2
f 113/4/2 109/4/2 114/4/2
f 114/5/2 110/5/2 115/5/2
f 112/1/2 113/1/2 116/1/2
f 111/1/2 112/1/2 116/1/2
f 114/1/2 115/1/2 116/1/2
f 113/1/2 114/1/2 116/1/2
f 116/1/2 115/1/2 117/1/2
f 117/1/2 115/1/2 118/1/2
f 116/2/2 117/2/2 119/2/2
f 117/3/2 118/3/2 120/3/2
f 119/2/2 117/2/2 120/2/2
f 118/1/2 115/1/2 121/1/2
f 120/3/2 118/3/2 121/3/2
f 121/1/2 115/1/2 122/1/2
f 123/8/2 124/8/2 125/8/2
f 125/8/2 124/8/2 126/8/2
f 127/8/2 128/8/2 130/8/2
f 130/8/2 128/8/2 131/8/2
f 129/8/2 130/8/2 132/8/2
f 132/8/2 130/8/2 133/8/2
f 134/4/2 135/4/2 140/4/2
f 135/5/2 136/5/2 140/5/2
f 140/5/2 136/5/2 141/5/2
f 136/4/2 137/4/2 142/4/2
f 141/5/2 136/5/2 142/5/2
f 137/5/2 138/5/2 143/5/2
f 142/4/2 137/4/2 143/4/2
f 143/5/2 138/5/2 144/5/2
f 138/4/2 139/4/2 145/4/2
f 144/5/2 138/5/2 145/5/2
f 145/4/2 139/4/2 146/4/2
f 143/1/2 144/1/2 147/1/2
f 141/1/2 142/1/2 147/1/2
f 142/1/2 143/1/2 147/1/2
f 144/2/2 145/2/2 147/2/2
f 145/1/2 146/1/2 148/1/2
f 147/2/2 145/2/2 148/2/2
f 148/1/2 146/1/2 149/1/2
f 141/1/2 147/1/2 150/1/2
f 147/1/2 148/1/2 150/1/2
f 148/2/2 149/2/2 151/2/2
f 150/1/2 148/1/2 151/1/2
f 151/2/2 149/2/2 152/2/2
f 140/4/2 141/4/2 154/4/2
f 134/4/2 140/4/2 154/4/2
f 154/4/2 141/4/2 155/4/2
f 153/4/2 154/4/2 155/4/2
f 141/1/2 150/1/2 156/1/2
f 155/4/2 141/4/2 156/4/2
f 153/4/2 155/4/2 157/4/2
f 157/4/2 155/4/2 158/4/2
f 155/1/2 156/1/2 159/1/2
f 158/4/2 155/4/2 159/4/2
f 156/1/2 150/1/2 160/1/2
f 159/1/2 156/1/2 160/1/2
f 160/1/2 150/1/2 161/1/2
f 158/9/2 159/9/2 162/9/2
f 157/1/2 158/1/2 162/1/2
f 159/1/2 160/1/2 163/1/2
f 162/9/2 159/9/2 163/9/2
f 157/1/2 162/1/2 164/1/2
f 162/1/2 163/1/2 164/1/2
f 163/1/2 160/1/2 165/1/2
f 164/1/2 163/1/2 165/1/2
f 166/5/2 167/5/2 172/5/2
f 167/4/2 168/4/2 173/4/2
f 172/5/2 167/5/2 173/5/2
f 168/5/2 169/5/2 174/5/2
f 173/4/2 168/4/2 174/4/2
f 169/4/2 170/4/2 175/4/2
f 174/5/2 169/5/2 175/5/2
f 170/5/2 171/5/2 176/5/2
f 175/4/2 170/4/2 176/4/2
f 176/5/2 171/5/2 177/5/2
f 174/1/2 175/1/2 178/1/2
f 172/1/2 173/1/2 178/1/2
f 173/1/2 174/1/2 178/1/2
f 175/3/2 176/3/2 179/3/2
f 178/1/2 175/1/2 179/1/2
f 176/1/2 177/1/2 180/1/2
f 179/3/2 176/3/2 180/3/2
f 180/1/2 177/1/2 181/1/2
f 172/1/2 178/1/2 182/1/2
f 178/3/2 179/3/2 183/3/2
f 182/1/2 178/1/2 183/1/2
f 179/2/2 180/2/2 184/2/2
f 183/3/2 179/3/2 184/3/2
f 180/3/2 181/3/2 185/3/2
f 184/2/2 180/2/2 185/2/2
f 181/1/2 177/1/2 186/1/2
f 185/3/2 181/3/2 186/3/2
f 186/1/2 177/1/2 187/1/2
f 190/8/3 189/8/3 188/8/3
f 191/8/3 189/8/3 190/8/3
f 192/8/3 190/8/3 188/8/3
f 193/8/3 190/8/3 192/8/3
f 196/8/3 195/8/3 194/8/3
f 197/8/3 196/8/3 194/8/3
f 198/8/3 196/8/3 197/8/3
f 202/4/3 200/4/3 199/4/3
f 203/1/3 201/1/3 200/1/3
f 203/4/3 200/4/3 202/4/3
f 204/4/3 202/4/3 199/4/3
f 205/1/3 201/1/3 203/1/3
f 206/4/3 204/4/3 199/4/3
f 206/4/3 205/4/3 204/4/3
f 207/1/3 201/1/3 205/1/3
f 207/4/3 205/4/3 206/4/3
f 208/1/3 201/1/3 207/1/3
f 212/5/3 210/5/3 209/5/3
f 213/4/3 211/4/3 210/4/3
f 213/5/3 210/5/3 212/5/3
f 214/4/3 213/4/3 212/4/3
f 215/4/3 211/4/3 213/4/3
f 215/4/3 213/4/3 214/4/3
f 220/5/3 217/5/3 216/5/3
f 221/1/3 219/1/3 218/1/3
f 221/5/3 217/5/3 220/5/3
f 221/1/3 218/1/3 217/1/3
f 222/4/3 221/4/3 220/4/3
f 223/1/3 219/1/3 221/1/3
f 223/4/3 221/4/3 222/4/3
f 224/5/3 223/5/3 222/5/3
f 225/1/3 219/1/3 223/1/3
f 225/5/3 223/5/3 224/5/3
f 226/1/3 219/1/3 225/1/3
f 230/5/3 228/5/3 227/5/3
f 231/1/3 229/1/3 228/1/3
f 231/5/3 228/5/3 230/5/3
f 232/4/3 231/4/3 230/4/3
f 233/1/3 229/1/3 231/1/3
f 233/4/3 231/4/3 232/4/3
f 234/1/3 229/1/3 233/1/3
f 237/9/3 236/9/3 235/9/3
f 238/9/3 236/9/3 237/9/3
f 241/9/3 240/9/3 239/9/3
f 242/9/3 240/9/3 241/9/3
f 243/8/4 244/8/4 245/8/4
f 245/8/4 244/8/4 246/8/4
f 246/8/4 244/8/4 247/8/4
f 248/8/4 249/8/4 250/8/4
f 250/8/4 249/8/4 251/8/4
f 252/1/4 253/1/4 254/1/4
f 254/1/4 253/1/4 255/1/4
f 254/7/4 255/7/4 256/7/4
f 255/1/4 253/1/4 257/1/4
f 256/7/4 255/7/4 257/7/4
f 256/1/4 257/1/4 258/1/4
f 257/1/4 253/1/4 259/1/4
f 258/1/4 257/1/4 259/1/4
f 260/1/4 261/1/4 262/1/4
f 262/1/4 261/1/4 263/1/4
f 264/4/4 265/4/4 268/4/4
f 265/1/4 266/1/4 269/1/4
f 268/4/4 265/4/4 269/4/4
f 266/2/4 267/2/4 270/2/4
f 269/1/4 266/1/4 270/1/4
f 269/2/4 270/2/4 271/2/4
f 270/2/4 267/2/4 271/2/4
f 271/2/4 267/2/4 272/2/4
f 268/5/4 269/5/4 273/5/4
f 273/5/4 269/5/4 274/5/4
f 273/4/4 274/4/4 275/4/4
f 274/5/4 269/5/4 276/5/4
f 275/4/4 274/4/4 276/4/4
f 269/2/4 271/2/4 277/2/4
f 276/5/4 269/5/4 277/5/4
f 271/1/4 272/1/4 278/1/4
f 277/2/4 271/2/4 278/2/4
f 278/1/4 272/1/4 279/1/4
f 280/4/4 281/4/4 284/4/4
f 281/1/4 282/1/4 285/1/4
f 284/4/4 281/4/4 285/4/4
f 282/2/4 283/2/4 286/2/4
f 285/1/4 282/1/4 286/1/4
f 286/2/4 283/2/4 287/2/4
f 285/1/4 286/1/4 288/1/4
f 286/3/4 287/3/4 288/3/4
f 288/3/4 287/3/4 289/3/4
f 285/1/4 288/1/4 290/1/4
f 288/1/4 289/1/4 290/1/4
f 290/1/4 289/1/4 291/1/4
f 284/5/4 285/5/4 292/5/4
f 285/1/4 290/1/4 293/1/4
f 292/5/4 285/5/4 293/5/4
f 292/4/4 293/4/4 294/4/4
f 293/1/4 290/1/4 295/1/4
f 294/4/4 293/4/4 295/4/4
f 290/3/4 291/3/4 296/3/4
f 295/1/4 290/1/4 296/1/4
f 296/3/4 291/3/4 297/3/4
f 294/5/4 295/5/4 298/5/4
f 295/1/4 296/1/4 299/1/4
f 298/5/4 295/5/4 299/5/4
f 296/1/4 297/1/4 299/1/4
f 299/1/4 297/1/4 300/1/4
f 301/5/4 302/5/4 304/5/4
f 302/1/4 303/1/4 304/1/4
f 304/1/4 303/1/4 305/1/4
f 301/5/4 304/5/4 306/5/4
f 301/5/4 306/5/4 308/5/4
f 306/1/4 307/1/4 309/1/4
f 308/5/4 306/5/4 309/5/4
f 309/1/4 307/1/4 310/1/4
f 311/9/4 312/9/4 313/9/4
f 313/9/4 312/9/4 314/9/4
f 315/9/4 316/9/4 317/9/4
f 317/9/4 316/9/4 318/9/4
f 319/9/4 320/9/4 321/9/4
f 321/9/4 320/9/4 322/9/4
f 326/5/5 324/5/5 323/5/5
f 327/4/5 325/4/5 324/4/5
f 327/5/5 324/5/5 326/5/5
f 328/4/5 325/4/5 327/4/5
f 329/5/5 326/5/5 323/5/5
f 330/4/5 327/4/5 326/4/5
f 330/5/5 326/5/5 329/5/5
f 331/5/5 328/5/5 327/5/5
f 331/4/5 327/4/5 330/4/5
f 332/4/5 330/4/5 329/4/5
f 333/5/5 331/5/5 330/5/5
f 333/4/5 330/4/5 332/4/5
f 334/5/5 328/5/5 331/5/5
f 334/5/5 331/5/5 333/5/5
f 335/5/5 333/5/5 332/5/5
f 335/4/5 334/4/5 333/4/5
f 336/5/5 328/5/5 334/5/5
f 336/4/5 334/4/5 335/4/5
f 337/5/5 328/5/5 336/5/5
f 338/5/5 335/5/5 332/5/5
f 338/5/5 336/5/5 335/5/5
f 339/4/5 337/4/5 336/4/5
f 339/5/5 336/5/5 338/5/5
f 340/4/5 337/4/5 339/4/5
f 341/5/5 338/5/5 332/5/5
f 342/4/5 339/4/5 338/4/5
f 342/5/5 338/5/5 341/5/5
f 343/5/5 340/5/5 339/5/5
f 343/4/5 339/4/5 342/4/5
f 344/4/5 342/4/5 341/4/5
f 345/5/5 343/5/5 342/5/5
f 345/4/5 342/4/5 344/4/5
f 346/5/5 340/5/5 343/5/5
f 346/5/5 343/5/5 345/5/5
f 347/5/5 345/5/5 344/5/5
f 347/4/5 346/4/5 345/4/5
f 348/5/5 340/5/5 346/5/5
f 348/4/5 346/4/5 347/4/5
f 349/5/5 340/5/5 348/5/5
f 350/4/5 349/4/5 348/4/5
f 354/5/5 348/5/5 347/5/5
f 354/5/5 347/5/5 344/5/5
f 355/4/5 350/4/5 348/4/5
f 355/5/5 348/5/5 354/5/5
f 356/5/5 351/5/5 350/5/5
f 356/4/5 350/4/5 355/4/5
f 357/4/5 352/4/5 351/4/5
f 357/5/5 351/5/5 356/5/5
f 358/5/5 353/5/5 352/5/5
f 358/4/5 352/4/5 357/4/5
f 359/5/5 354/5/5 344/5/5
f 360/4/5 355/4/5 354/4/5
f 360/5/5 354/5/5 359/5/5
f 361/5/5 356/5/5 355/5/5
f 361/4/5 355/4/5 360/4/5
f 362/4/5 357/4/5 356/4/5
f 362/5/5 356/5/5 361/5/5
f 363/5/5 358/5/5 357/5/5
f 363/4/5 357/4/5 362/4/5
f 364/4/5 360/4/5 359/4/5
f 365/5/5 361/5/5 360/5/5
f 365/4/5 360/4/5 364/4/5
f 366/4/5 362/4/5 361/4/5
f 366/5/5 361/5/5 365/5/5
f 367/5/5 363/5/5 362/5/5
f 367/4/5 362/4/5 366/4/5
f 368/5/5 358/5/5 363/5/5
f 368/5/5 363/5/5 367/5/5
f 369/4/5 368/4/5 367/4/5
f 370/5/5 358/5/5 368/5/5
f 370/4/5 368/4/5 369/4/5
f 371/5/5 353/5/5 358/5/5
f 371/5/5 358/5/5 370/5/5
f 372/4/5 369/4/5 367/4/5
f 373/5/5 370/5/5 369/5/5
f 373/4/5 369/4/5 372/4/5
f 374/4/5 371/4/5 370/4/5
f 374/5/5 370/5/5 373/5/5
f 375/4/5 371/4/5 374/4/5
f 376/5/5 373/5/5 372/5/5
f 376/4/5 374/4/5 373/4/5
f 377/5/5 375/5/5 374/5/5
f 377/4/5 374/4/5 376/4/5
f 378/5/5 375/5/5 377/5/5
f 379/5/5 376/5/5 372/5/5
f 379/5/5 377/5/5 376/5/5
f 380/5/5 377/5/5 379/5/5
f 383/4/5 380/4/5 379/4/5
f 384/5/5 377/5/5 380/5/5
f 384/4/5 380/4/5 383/4/5
f 385/4/5 378/4/5 377/4/5
f 385/5/5 377/5/5 384/5/5
f 386/5/5 375/5/5 378/5/5
f 386/4/5 378/4/5 385/4/5
f 387/5/5 375/5/5 386/5/5
f 388/5/5 382/5/5 381/5/5
f 389/5/5 382/5/5 388/5/5
f 390/5/5 382/5/5 389/5/5
f 391/4/5 383/4/5 382/4/5
f 391/5/5 382/5/5 390/5/5
f 392/5/5 384/5/5 383/5/5
f 392/4/5 383/4/5 391/4/5
f 393/5/5 386/5/5 385/5/5
f 393/4/5 387/4/5 386/4/5
f 394/4/5 387/4/5 393/4/5
f 395/4/5 389/4/5 388/4/5
f 396/5/5 390/5/5 389/5/5
f 396/4/5 389/4/5 395/4/5
f 397/5/5 390/5/5 396/5/5
f 398/5/5 390/5/5 397/5/5
f 399/4/5 391/4/5 390/4/5
f 399/5/5 390/5/5 398/5/5
f 400/5/5 392/5/5 391/5/5
f 400/4/5 391/4/5 399/4/5
f 401/4/5 385/4/5 384/4/5
f 401/5/5 392/5/5 400/5/5
f 401/5/5 384/5/5 392/5/5
f 402/5/5 393/5/5 385/5/5
f 402/4/5 385/4/5 401/4/5
f 402/5/5 394/5/5 393/5/5
f 403/5/5 394/5/5 402/5/5
f 404/4/5 397/4/5 396/4/5
f 404/5/5 396/5/5 395/5/5
f 405/5/5 398/5/5 397/5/5
f 405/4/5 397/4/5 404/4/5
f 406/4/5 399/4/5 398/4/5
f 406/5/5 398/5/5 405/5/5
f 407/5/5 400/5/5 399/5/5
f 407/4/5 399/4/5 406/4/5
f 407/5/5 401/5/5 400/5/5
f 407/5/5 402/5/5 401/5/5
f 408/4/5 403/4/5 402/4/5
f 408/5/5 402/5/5 407/5/5
f 409/5/5 394/5/5 403/5/5
f 409/4/5 403/4/5 408/4/5
f 410/5/5 394/5/5 409/5/5
f 411/5/5 404/5/5 395/5/5
f 411/5/5 405/5/5 404/5/5
f 412/5/5 405/5/5 411/5/5
f 413/4/5 406/4/5 405/4/5
f 413/5/5 405/5/5 412/5/5
f 414/4/5 406/4/5 413/4/5
f 415/4/5 412/4/5 411/4/5
f 416/5/5 413/5/5 412/5/5
f 416/4/5 412/4/5 415/4/5
f 416/5/5 414/5/5 413/5/5
f 417/5/5 414/5/5 416/5/5
f 418/5/5 416/5/5 415/5/5
f 418/4/5 417/4/5 416/4/5
f 419/5/5 414/5/5 417/5/5
f 419/4/5 417/4/5 418/4/5
f 420/5/5 414/5/5 419/5/5
f 421/5/5 419/5/5 418/5/5
f 421/4/5 420/4/5 419/4/5
f 422/4/5 420/4/5 421/4/5
f 423/5/5 418/5/5 415/5/5
f 423/5/5 421/5/5 418/5/5
f 423/5/5 422/5/5 421/5/5
f 424/5/5 422/5/5 423/5/5
f 427/9/5 426/9/5 425/9/5
f 428/9/5 426/9/5 427/9/5
f 431/9/5 430/9/5 429/9/5
f 432/9/5 430/9/5 431/9/5
f 435/9/5 434/9/5 433/9/5
f 436/9/5 434/9/5 435/9/5
f 439/4/5 438/4/5 437/4/5
f 440/4/5 438/4/5 439/4/5
f 443/8/5 442/8/5 441/8/5
f 444/8/5 442/8/5 443/8/5
f 447/8/5 446/8/5 445/8/5
f 448/8/5 446/8/5 447/8/5
f 449/8/5 446/8/5 448/8/5
f 450/8/5 446/8/5 449/8/5
f 451/1/6 452/1/6 453/1/6
f 453/1/6 452/1/6 454/1/6
f 453/3/6 454/3/6 455/3/6
f 454/1/6 452/1/6 455/1/6
f 455/1/6 452/1/6 456/1/6
f 453/3/6 455/3/6 457/3/6
f 455/3/6 456/3/6 457/3/6
f 456/1/6 452/1/6 458/1/6
f 457/3/6 456/3/6 458/3/6
f 453/3/6 457/3/6 459/3/6
f 457/1/6 458/1/6 460/1/6
f 459/3/6 457/3/6 460/3/6
f 458/1/6 452/1/6 461/1/6
f 460/1/6 458/1/6 461/1/6
f 461/1/6 452/1/6 462/1/6
f 462/1/6 452/1/6 463/1/6
f 459/1/6 460/1/6 464/1/6
f 460/1/6 461/1/6 464/1/6
f 461/3/6 462/3/6 465/3/6
f 464/1/6 461/1/6 465/1/6
f 462/2/6 463/2/6 466/2/6
f 465/3/6 462/3/6 466/3/6
f 466/2/6 463/2/6 467/2/6
f 459/1/6 464/1/6 469/1/6
f 464/2/6 465/2/6 470/2/6
f 469/1/6 464/1/6 470/1/6
f 465/2/6 466/2/6 470/2/6
f 470/2/6 466/2/6 471/2/6
f 466/3/6 467/3/6 472/3/6
f 471/2/6 466/2/6 472/2/6
f 467/1/6 468/1/6 473/1/6
f 472/3/6 467/3/6 473/3/6
f 470/3/6 471/3/6 474/3/6
f 469/2/6 470/2/6 474/2/6
f 471/1/6 472/1/6 475/1/6
f 474/3/6 471/3/6 475/3/6
f 472/1/6 473/1/6 475/1/6
f 469/2/6 474/2/6 476/2/6
f 474/2/6 475/2/6 476/2/6
f 475/1/6 473/1/6 477/1/6
f 476/2/6 475/2/6 477/2/6
f 473/1/6 468/1/6 478/1/6
f 477/1/6 473/1/6 478/1/6
f 478/1/6 468/1/6 479/1/6
f 479/1/6 468/1/6 480/1/6
f 479/2/6 480/2/6 481/2/6
f 480/1/6 468/1/6 481/1/6
f 481/1/6 468/1/6 482/1/6
f 479/2/6 481/2/6 483/2/6
f 481/3/6 482/3/6 484/3/6
f 483/2/6 481/2/6 484/2/6
f 482/1/6 468/1/6 485/1/6
f 484/3/6 482/3/6 485/3/6
f 485/1/6 468/1/6 486/1/6
f 486/1/6 468/1/6 487/1/6
f 483/1/6 484/1/6 489/1/6
f 484/2/6 485/2/6 490/2/6
f 489/1/6 484/1/6 490/1/6
f 485/1/6 486/1/6 491/1/6
f 490/2/6 485/2/6 491/2/6
f 486/3/6 487/3/6 492/3/6
f 491/1/6 486/1/6 492/1/6
f 492/3/6 487/3/6 493/3/6
f 488/1/6 489/1/6 494/1/6
f 489/1/6 490/1/6 494/1/6
f 494/1/6 490/1/6 495/1/6
f 495/1/6 490/1/6 496/1/6
f 490/3/6 491/3/6 497/3/6
f 496/1/6 490/1/6 497/1/6
f 492/2/6 493/2/6 498/2/6
f 497/3/6 491/3/6 498/3/6
f 491/2/6 492/2/6 498/2/6
f 498/2/6 493/2/6 499/2/6
f 499/2/6 493/2/6 500/2/6
f 494/3/6 495/3/6 501/3/6
f 488/1/6 494/1/6 501/1/6
f 495/1/6 496/1/6 502/1/6
f 501/3/6 495/3/6 502/3/6
f 496/2/6 497/2/6 503/2/6
f 502/1/6 496/1/6 503/1/6
f 497/2/6 498/2/6 503/2/6
f 503/2/6 498/2/6 504/2/6
f 504/2/6 498/2/6 505/2/6
f 498/1/6 499/1/6 506/1/6
f 505/2/6 498/2/6 506/2/6
f 499/3/6 500/3/6 507/3/6
f 506/1/6 499/1/6 507/1/6
f 507/3/6 500/3/6 508/3/6
f 488/1/6 501/1/6 509/1/6
f 501/2/6 502/2/6 510/2/6
f 509/1/6 501/1/6 510/1/6
f 502/2/6 503/2/6 510/2/6
f 503/3/6 504/3/6 511/3/6
f 510/2/6 503/2/6 511/2/6
f 504/1/6 505/1/6 512/1/6
f 511/3/6 504/3/6 512/3/6
f 505/3/6 506/3/6 513/3/6
f 512/1/6 505/1/6 513/1/6
f 506/3/6 507/3/6 513/3/6
f 507/1/6 508/1/6 514/1/6
f 513/3/6 507/3/6 514/3/6
f 514/1/6 508/1/6 515/1/6
f 488/1/6 509/1/6 516/1/6
f 509/2/6 510/2/6 517/2/6
f 516/1/6 509/1/6 517/1/6
f 488/1/6 516/1/6 518/1/6
f 516/3/6 517/3/6 518/3/6
f 517/2/6 510/2/6 519/2/6
f 518/3/6 517/3/6 519/3/6
f 519/2/6 510/2/6 520/2/6
f 518/2/6 519/2/6 521/2/6
f 519/3/6 520/3/6 521/3/6
f 521/3/6 520/3/6 522/3/6
f 488/1/6 518/1/6 523/1/6
f 518/2/6 521/2/6 523/2/6
f 521/1/6 522/1/6 524/1/6
f 523/2/6 521/2/6 524/2/6
f 488/1/6 523/1/6 525/1/6
f 523/1/6 524/1/6 525/1/6
f 525/1/6 524/1/6 526/1/6
f 524/1/6 522/1/6 527/1/6
f 526/1/6 524/1/6 527/1/6
f 527/1/6 522/1/6 528/1/6
f 529/9/6 530/9/6 531/9/6
f 531/9/6 530/9/6 532/9/6
f 533/9/6 534/9/6 535/9/6
f 535/9/6 534/9/6 536/9/6
f 537/8/6 538/8/6 540/8/6
f 538/8/6 539/8/6 540/8/6
f 540/8/6 539/8/6 541/8/6
f 543/1/6 544/1/6 546/1/6
f 544/1/6 545/1/6 546/1/6
f 542/1/6 543/1/6 546/1/6
f 546/1/6 545/1/6 547/1/6
f 548/8/6 549/8/6 550/8/6
f 550/8/6 549/8/6 551/8/6
f 551/8/6 549/8/6 552/8/6
f 553/8/6 554/8/6 555/8/6
f 555/8/6 554/8/6 556/8/6
f 557/1/6 558/1/6 559/1/6
f 559/1/6 558/1/6 560/1/6
