# MagicaVoxel @ Ephtracy

# group
o 

# material
mtllib FrogYellowObj.mtl
usemtl palette

# normals
vn -1 0 0
vn 1 0 0
vn 0 0 1
vn 0 0 -1
vn 0 -1 0
vn 0 1 0

# texcoords
vt 0.408203 0.5
vt 0.412109 0.5
vt 0.416016 0.5
vt 0.419922 0.5
vt 0.501953 0.5
vt 0.505859 0.5
vt 0.568359 0.5
vt 0.982422 0.5
vt 0.994141 0.5

# verts
v -0.6 0 0.8
v -0.6 0 -0.6
v -0.6 0.3 0.8
v -0.6 0.3 -0.6
v -0.5 0 0.9
v -0.5 0 0.8
v -0.5 0 -0.6
v -0.5 0 -0.7
v -0.5 0.1 0.9
v -0.5 0.1 0.8
v -0.5 0.1 -0.6
v -0.5 0.1 -0.7
v -0.5 0.3 0.8
v -0.5 0.3 -0.6
v -0.5 0.4 0.8
v -0.5 0.4 -0.6
v -0.4 0 1
v -0.4 0 0.9
v -0.4 0 -0.7
v -0.4 0 -0.8
v -0.4 0.1 1
v -0.4 0.1 0.9
v -0.4 0.1 -0.7
v -0.4 0.1 -0.8
v -0.3 0.4 0.8
v -0.3 0.4 -0.1
v -0.3 0.4 -0.2
v -0.3 0.4 -0.3
v -0.3 0.4 -0.4
v -0.3 0.4 -0.6
v -0.3 0.5 0.8
v -0.3 0.5 -0.1
v -0.3 0.5 -0.4
v -0.3 0.5 -0.6
v -0.2 0.5 0.8
v -0.2 0.5 -0.1
v -0.2 0.5 -0.2
v -0.2 0.5 -0.3
v -0.2 0.5 -0.4
v -0.2 0.5 -0.6
v -0.2 0.6 0.8
v -0.2 0.6 -0.2
v -0.2 0.6 -0.3
v -0.2 0.6 -0.6
v 5.96046e-08 0.6 0.8
v 5.96046e-08 0.6 -0.6
v 5.96046e-08 0.7 0.8
v 5.96046e-08 0.7 -0.6
v 0.2 0.7 0.7
v 0.2 0.7 -0.5
v 0.2 0.8 0.5
v 0.2 0.8 0.4
v 0.2 0.9 0.6
v 0.2 0.9 0.5
v 0.2 0.9 0.4
v 0.2 0.9 0.3
v 0.2 1 0.6
v 0.2 1 0.5
v 0.2 1 0.4
v 0.2 1 0.3
v 0.2 1.1 0.5
v 0.2 1.1 0.4
v 0.2 1.2 0.7
v 0.2 1.2 -0.5
v 0.3 1.2 0.7
v 0.3 1.2 -0.5
v 0.3 1.3 0.2
v 0.3 1.3 -1.19209e-07
v 0.3 1.6 0.7
v 0.3 1.6 0.2
v 0.3 1.6 -1.19209e-07
v 0.3 1.6 -0.5
v 0.6 0 0.9
v 0.6 0 0.8
v 0.6 0 -0.6
v 0.6 0 -0.7
v 0.6 0.1 0.9
v 0.6 0.1 0.8
v 0.6 0.1 -0.6
v 0.6 0.1 -0.7
v -0.0999999 0 1
v -0.0999999 0 0.9
v -0.0999999 0 0.8
v -0.0999999 0 -0.6
v -0.0999999 0 -0.7
v -0.0999999 0 -0.8
v -0.0999999 0.1 1
v -0.0999999 0.1 0.9
v -0.0999999 0.1 0.8
v -0.0999999 0.1 -0.6
v -0.0999999 0.1 -0.7
v -0.0999999 0.1 -0.8
v 0.5 0 0.4
v 0.5 0 -0.2
v 0.5 0.1 0.4
v 0.5 0.1 0.2
v 0.5 0.1 -1.19209e-07
v 0.5 0.1 -0.2
v 0.6 0.1 0.8
v 0.6 0.1 0.4
v 0.6 0.1 0.2
v 0.6 0.1 -1.19209e-07
v 0.6 0.1 -0.2
v 0.6 0.1 -0.6
v 0.6 0.6 0.7
v 0.6 0.6 0.6
v 0.6 0.6 0.2
v 0.6 0.6 -1.19209e-07
v 0.6 0.6 -0.4
v 0.6 0.6 -0.5
v 0.6 0.7 0.8
v 0.6 0.7 0.7
v 0.6 0.7 -0.5
v 0.6 0.7 -0.6
v 0.6 1.2 0.7
v 0.6 1.2 -0.5
v 0.6 1.3 0.5
v 0.6 1.3 0.4
v 0.6 1.3 0.3
v 0.6 1.3 0.2
v 0.6 1.3 -1.19209e-07
v 0.6 1.3 -0.1
v 0.6 1.3 -0.2
v 0.6 1.3 -0.3
v 0.6 1.4 0.6
v 0.6 1.4 0.5
v 0.6 1.4 -0.3
v 0.6 1.4 -0.4
v 0.6 1.5 0.6
v 0.6 1.5 0.4
v 0.6 1.5 0.3
v 0.6 1.5 -0.1
v 0.6 1.5 -0.2
v 0.6 1.5 -0.4
v 0.6 1.6 0.7
v 0.6 1.6 0.2
v 0.6 1.6 -1.19209e-07
v 0.6 1.6 -0.5
v 0.7 0 0.9
v 0.7 0 0.8
v 0.7 0 0.5
v 0.7 0 0.4
v 0.7 0 -0.2
v 0.7 0 -0.3
v 0.7 0 -0.6
v 0.7 0 -0.7
v 0.7 0.1 0.9
v 0.7 0.1 0.8
v 0.7 0.1 0.5
v 0.7 0.1 0.4
v 0.7 0.1 -0.2
v 0.7 0.1 -0.3
v 0.7 0.1 -0.6
v 0.7 0.1 -0.7
v 0.7 0.6 0.7
v 0.7 0.6 0.6
v 0.7 0.6 -0.4
v 0.7 0.6 -0.5
v 0.7 0.7 0.7
v 0.7 0.7 0.6
v 0.7 0.7 -0.4
v 0.7 0.7 -0.5
v 0.7 0.8 0.6
v 0.7 0.8 -0.4
v 0.7 0.9 0.7
v 0.7 0.9 0.6
v 0.7 0.9 -0.4
v 0.7 0.9 -0.5
v 0.7 1.2 0.7
v 0.7 1.2 -0.5
v 0.9 0 0.8
v 0.9 0 0.7
v 0.9 0 0.6
v 0.9 0 0.5
v 0.9 0 -0.3
v 0.9 0 -0.4
v 0.9 0 -0.5
v 0.9 0 -0.6
v 0.9 0.1 0.8
v 0.9 0.1 0.7
v 0.9 0.1 0.6
v 0.9 0.1 0.5
v 0.9 0.1 -0.3
v 0.9 0.1 -0.4
v 0.9 0.1 -0.5
v 0.9 0.1 -0.6
v -0.4 0 1
v -0.4 0.1 1
v -0.2 0 1
v -0.2 0.1 1
v -0.0999999 0 1
v -0.0999999 0.1 1
v -0.5 0 0.9
v -0.5 0.1 0.9
v -0.4 0 0.9
v -0.4 0.1 0.9
v 0.6 0 0.9
v 0.6 0.1 0.9
v 0.7 0 0.9
v 0.7 0.1 0.9
v -0.6 0 0.8
v -0.6 0.3 0.8
v -0.5 0 0.8
v -0.5 0.1 0.8
v -0.5 0.3 0.8
v -0.5 0.4 0.8
v -0.3 0.4 0.8
v -0.3 0.5 0.8
v -0.2 0.5 0.8
v -0.2 0.6 0.8
v -0.0999999 0 0.8
v -0.0999999 0.1 0.8
v 5.96046e-08 0.6 0.8
v 5.96046e-08 0.7 0.8
v 0.6 0 0.8
v 0.6 0.1 0.8
v 0.6 0.7 0.8
v 0.7 0 0.8
v 0.7 0.1 0.8
v 0.8 0 0.8
v 0.8 0.1 0.8
v 0.9 0 0.8
v 0.9 0.1 0.8
v 0.2 0.7 0.7
v 0.2 1.2 0.7
v 0.3 1.2 0.7
v 0.3 1.6 0.7
v 0.4 0.8 0.7
v 0.4 1 0.7
v 0.6 0.6 0.7
v 0.6 0.7 0.7
v 0.6 0.8 0.7
v 0.6 0.9 0.7
v 0.6 1 0.7
v 0.6 1.2 0.7
v 0.6 1.6 0.7
v 0.7 0.6 0.7
v 0.7 0.7 0.7
v 0.7 0.9 0.7
v 0.7 1.2 0.7
v 0.3 1.3 -1.19209e-07
v 0.3 1.6 -1.19209e-07
v 0.6 1.3 -1.19209e-07
v 0.6 1.6 -1.19209e-07
v 0.5 0 -0.2
v 0.5 0.1 -0.2
v 0.6 0 -0.2
v 0.6 0.1 -0.2
v 0.7 0 -0.2
v 0.7 0.1 -0.2
v 0.7 0 -0.3
v 0.7 0.1 -0.3
v 0.8 0 -0.3
v 0.8 0.1 -0.3
v 0.9 0 -0.3
v 0.9 0.1 -0.3
v 0.7 0 0.5
v 0.7 0.1 0.5
v 0.8 0 0.5
v 0.8 0.1 0.5
v 0.9 0 0.5
v 0.9 0.1 0.5
v 0.5 0 0.4
v 0.5 0.1 0.4
v 0.6 0 0.4
v 0.6 0.1 0.4
v 0.7 0 0.4
v 0.7 0.1 0.4
v 0.3 1.3 0.2
v 0.3 1.6 0.2
v 0.6 1.3 0.2
v 0.6 1.6 0.2
v 0.2 0.7 -0.5
v 0.2 1.2 -0.5
v 0.3 1.2 -0.5
v 0.3 1.6 -0.5
v 0.4 0.8 -0.5
v 0.4 1 -0.5
v 0.6 0.6 -0.5
v 0.6 0.7 -0.5
v 0.6 0.8 -0.5
v 0.6 0.9 -0.5
v 0.6 1 -0.5
v 0.6 1.2 -0.5
v 0.6 1.6 -0.5
v 0.7 0.6 -0.5
v 0.7 0.7 -0.5
v 0.7 0.9 -0.5
v 0.7 1.2 -0.5
v -0.6 0 -0.6
v -0.6 0.3 -0.6
v -0.5 0 -0.6
v -0.5 0.1 -0.6
v -0.5 0.3 -0.6
v -0.5 0.4 -0.6
v -0.3 0.4 -0.6
v -0.3 0.5 -0.6
v -0.2 0.5 -0.6
v -0.2 0.6 -0.6
v -0.0999999 0 -0.6
v -0.0999999 0.1 -0.6
v 5.96046e-08 0.4 -0.6
v 5.96046e-08 0.5 -0.6
v 5.96046e-08 0.6 -0.6
v 5.96046e-08 0.7 -0.6
v 0.1 0.3 -0.6
v 0.1 0.4 -0.6
v 0.1 0.5 -0.6
v 0.1 0.6 -0.6
v 0.2 0.3 -0.6
v 0.2 0.4 -0.6
v 0.2 0.5 -0.6
v 0.2 0.6 -0.6
v 0.3 0.4 -0.6
v 0.3 0.5 -0.6
v 0.6 0 -0.6
v 0.6 0.1 -0.6
v 0.6 0.7 -0.6
v 0.7 0 -0.6
v 0.7 0.1 -0.6
v 0.8 0 -0.6
v 0.8 0.1 -0.6
v 0.9 0 -0.6
v 0.9 0.1 -0.6
v -0.5 0 -0.7
v -0.5 0.1 -0.7
v -0.4 0 -0.7
v -0.4 0.1 -0.7
v 0.6 0 -0.7
v 0.6 0.1 -0.7
v 0.7 0 -0.7
v 0.7 0.1 -0.7
v -0.4 0 -0.8
v -0.4 0.1 -0.8
v -0.2 0 -0.8
v -0.2 0.1 -0.8
v -0.0999999 0 -0.8
v -0.0999999 0.1 -0.8
v -0.4 0 1
v -0.2 0 1
v -0.0999999 0 1
v -0.5 0 0.9
v -0.4 0 0.9
v -0.2 0 0.9
v -0.0999999 0 0.9
v 0.6 0 0.9
v 0.7 0 0.9
v -0.6 0 0.8
v -0.5 0 0.8
v -0.0999999 0 0.8
v 0.6 0 0.8
v 0.7 0 0.8
v 0.8 0 0.8
v 0.9 0 0.8
v -0.0999999 0 0.7
v 0.6 0 0.7
v 0.7 0 0.7
v 0.8 0 0.7
v 0.9 0 0.7
v 0.7 0 0.6
v 0.8 0 0.6
v 0.9 0 0.6
v 0.4 0 0.5
v 0.6 0 0.5
v 0.7 0 0.5
v 0.8 0 0.5
v 0.9 0 0.5
v 0.4 0 0.4
v 0.5 0 0.4
v 0.6 0 0.4
v 0.7 0 0.4
v 0.4 0 -0.2
v 0.5 0 -0.2
v 0.6 0 -0.2
v 0.7 0 -0.2
v 0.4 0 -0.3
v 0.6 0 -0.3
v 0.7 0 -0.3
v 0.8 0 -0.3
v 0.9 0 -0.3
v 0.7 0 -0.4
v 0.8 0 -0.4
v 0.9 0 -0.4
v -0.0999999 0 -0.5
v 0.6 0 -0.5
v 0.7 0 -0.5
v 0.8 0 -0.5
v 0.9 0 -0.5
v -0.6 0 -0.6
v -0.5 0 -0.6
v -0.0999999 0 -0.6
v 0.6 0 -0.6
v 0.7 0 -0.6
v 0.8 0 -0.6
v 0.9 0 -0.6
v -0.5 0 -0.7
v -0.4 0 -0.7
v -0.2 0 -0.7
v -0.0999999 0 -0.7
v 0.6 0 -0.7
v 0.7 0 -0.7
v -0.4 0 -0.8
v -0.2 0 -0.8
v -0.0999999 0 -0.8
v 0.5 0.1 0.4
v 0.6 0.1 0.4
v 0.5 0.1 0.2
v 0.6 0.1 0.2
v 0.5 0.1 -1.19209e-07
v 0.6 0.1 -1.19209e-07
v 0.5 0.1 -0.2
v 0.6 0.1 -0.2
v 0.6 0.6 0.7
v 0.7 0.6 0.7
v 0.6 0.6 0.6
v 0.7 0.6 0.6
v 0.6 0.6 0.2
v 0.6 0.6 -1.19209e-07
v 0.6 0.6 -0.4
v 0.7 0.6 -0.4
v 0.6 0.6 -0.5
v 0.7 0.6 -0.5
v -0.4 0.1 1
v -0.2 0.1 1
v -0.0999999 0.1 1
v -0.5 0.1 0.9
v -0.4 0.1 0.9
v -0.2 0.1 0.9
v -0.0999999 0.1 0.9
v 0.6 0.1 0.9
v 0.7 0.1 0.9
v -0.5 0.1 0.8
v -0.0999999 0.1 0.8
v 0.6 0.1 0.8
v 0.7 0.1 0.8
v 0.8 0.1 0.8
v 0.9 0.1 0.8
v 0.7 0.1 0.7
v 0.8 0.1 0.7
v 0.9 0.1 0.7
v 0.7 0.1 0.6
v 0.8 0.1 0.6
v 0.9 0.1 0.6
v 0.7 0.1 0.5
v 0.8 0.1 0.5
v 0.9 0.1 0.5
v 0.6 0.1 0.4
v 0.7 0.1 0.4
v 0.6 0.1 -0.2
v 0.7 0.1 -0.2
v 0.7 0.1 -0.3
v 0.8 0.1 -0.3
v 0.9 0.1 -0.3
v 0.7 0.1 -0.4
v 0.8 0.1 -0.4
v 0.9 0.1 -0.4
v 0.7 0.1 -0.5
v 0.8 0.1 -0.5
v 0.9 0.1 -0.5
v -0.5 0.1 -0.6
v -0.0999999 0.1 -0.6
v 0.6 0.1 -0.6
v 0.7 0.1 -0.6
v 0.8 0.1 -0.6
v 0.9 0.1 -0.6
v -0.5 0.1 -0.7
v -0.4 0.1 -0.7
v -0.2 0.1 -0.7
v -0.0999999 0.1 -0.7
v 0.6 0.1 -0.7
v 0.7 0.1 -0.7
v -0.4 0.1 -0.8
v -0.2 0.1 -0.8
v -0.0999999 0.1 -0.8
v -0.6 0.3 0.8
v -0.5 0.3 0.8
v -0.6 0.3 -0.6
v -0.5 0.3 -0.6
v -0.5 0.4 0.8
v -0.3 0.4 0.8
v -0.3 0.4 -0.1
v -0.4 0.4 -0.2
v -0.3 0.4 -0.2
v -0.4 0.4 -0.3
v -0.3 0.4 -0.3
v -0.3 0.4 -0.4
v -0.5 0.4 -0.6
v -0.3 0.4 -0.6
v -0.3 0.5 0.8
v -0.2 0.5 0.8
v -0.3 0.5 -0.1
v -0.2 0.5 -0.1
v -0.2 0.5 -0.2
v -0.2 0.5 -0.3
v -0.3 0.5 -0.4
v -0.2 0.5 -0.4
v -0.3 0.5 -0.6
v -0.2 0.5 -0.6
v -0.2 0.6 0.8
v 5.96046e-08 0.6 0.8
v -0.2 0.6 -0.2
v -0.0999999 0.6 -0.2
v -0.2 0.6 -0.3
v -0.0999999 0.6 -0.3
v -0.2 0.6 -0.6
v 5.96046e-08 0.6 -0.6
v 5.96046e-08 0.7 0.8
v 0.6 0.7 0.8
v 0.2 0.7 0.7
v 0.6 0.7 0.7
v 0.2 0.7 -0.5
v 0.6 0.7 -0.5
v 5.96046e-08 0.7 -0.6
v 0.6 0.7 -0.6
v 0.2 1.2 0.7
v 0.3 1.2 0.7
v 0.6 1.2 0.7
v 0.7 1.2 0.7
v 0.2 1.2 -0.5
v 0.3 1.2 -0.5
v 0.6 1.2 -0.5
v 0.7 1.2 -0.5
v 0.3 1.3 0.2
v 0.6 1.3 0.2
v 0.3 1.3 -1.19209e-07
v 0.6 1.3 -1.19209e-07
v 0.3 1.6 0.7
v 0.6 1.6 0.7
v 0.3 1.6 0.2
v 0.6 1.6 0.2
v 0.3 1.6 -1.19209e-07
v 0.6 1.6 -1.19209e-07
v 0.3 1.6 -0.5
v 0.6 1.6 -0.5

# faces
f 3/1/1 2/1/1 1/1/1
f 4/1/1 2/1/1 3/1/1
f 9/2/1 6/2/1 5/2/1
f 10/2/1 6/2/1 9/2/1
f 11/2/1 8/2/1 7/2/1
f 12/2/1 8/2/1 11/2/1
f 15/1/1 14/1/1 13/1/1
f 16/1/1 14/1/1 15/1/1
f 21/2/1 18/2/1 17/2/1
f 22/2/1 18/2/1 21/2/1
f 23/2/1 20/2/1 19/2/1
f 24/2/1 20/2/1 23/2/1
f 31/1/1 26/1/1 25/1/1
f 32/3/1 27/3/1 26/3/1
f 32/1/1 26/1/1 31/1/1
f 32/3/1 28/3/1 27/3/1
f 32/3/1 29/3/1 28/3/1
f 33/1/1 30/1/1 29/1/1
f 33/3/1 29/3/1 32/3/1
f 34/1/1 30/1/1 33/1/1
f 41/1/1 36/1/1 35/1/1
f 41/1/1 37/1/1 36/1/1
f 42/3/1 38/3/1 37/3/1
f 42/1/1 37/1/1 41/1/1
f 43/1/1 40/1/1 39/1/1
f 43/3/1 38/3/1 42/3/1
f 43/1/1 39/1/1 38/1/1
f 44/1/1 40/1/1 43/1/1
f 47/1/1 46/1/1 45/1/1
f 48/1/1 46/1/1 47/1/1
f 51/1/1 50/1/1 49/1/1
f 52/1/1 50/1/1 51/1/1
f 53/1/1 51/1/1 49/1/1
f 54/3/1 52/3/1 51/3/1
f 54/1/1 51/1/1 53/1/1
f 55/1/1 50/1/1 52/1/1
f 55/3/1 52/3/1 54/3/1
f 56/1/1 50/1/1 55/1/1
f 57/3/1 54/3/1 53/3/1
f 57/1/1 53/1/1 49/1/1
f 57/3/1 56/3/1 55/3/1
f 57/3/1 55/3/1 54/3/1
f 58/3/1 56/3/1 57/3/1
f 59/3/1 56/3/1 58/3/1
f 60/1/1 50/1/1 56/1/1
f 60/3/1 56/3/1 59/3/1
f 61/3/1 59/3/1 58/3/1
f 61/1/1 58/1/1 57/1/1
f 62/1/1 60/1/1 59/1/1
f 62/3/1 59/3/1 61/3/1
f 63/1/1 57/1/1 49/1/1
f 63/1/1 61/1/1 57/1/1
f 63/1/1 62/1/1 61/1/1
f 64/1/1 50/1/1 60/1/1
f 64/1/1 62/1/1 63/1/1
f 64/1/1 60/1/1 62/1/1
f 67/1/1 66/1/1 65/1/1
f 68/1/1 66/1/1 67/1/1
f 69/1/1 67/1/1 65/1/1
f 70/1/1 67/1/1 69/1/1
f 71/1/1 66/1/1 68/1/1
f 72/1/1 66/1/1 71/1/1
f 77/2/1 74/2/1 73/2/1
f 78/2/1 74/2/1 77/2/1
f 79/2/1 76/2/1 75/2/1
f 80/2/1 76/2/1 79/2/1
f 81/3/2 82/3/2 87/3/2
f 82/2/2 83/2/2 88/2/2
f 87/3/2 82/3/2 88/3/2
f 88/2/2 83/2/2 89/2/2
f 84/2/2 85/2/2 90/2/2
f 85/3/2 86/3/2 91/3/2
f 90/2/2 85/2/2 91/2/2
f 91/3/2 86/3/2 92/3/2
f 93/2/2 94/2/2 95/2/2
f 95/2/2 94/2/2 96/2/2
f 96/2/2 94/2/2 97/2/2
f 97/2/2 94/2/2 98/2/2
f 99/1/2 100/1/2 105/1/2
f 100/1/2 101/1/2 105/1/2
f 105/1/2 101/1/2 106/1/2
f 101/4/2 102/4/2 107/4/2
f 106/1/2 101/1/2 107/1/2
f 103/1/2 104/1/2 108/1/2
f 107/4/2 102/4/2 108/4/2
f 102/1/2 103/1/2 108/1/2
f 108/1/2 104/1/2 109/1/2
f 109/1/2 104/1/2 110/1/2
f 99/1/2 105/1/2 111/1/2
f 111/1/2 105/1/2 112/1/2
f 110/1/2 104/1/2 113/1/2
f 113/1/2 104/1/2 114/1/2
f 115/1/2 116/1/2 117/1/2
f 117/1/2 116/1/2 118/1/2
f 118/1/2 116/1/2 119/1/2
f 119/1/2 116/1/2 120/1/2
f 120/1/2 116/1/2 121/1/2
f 121/1/2 116/1/2 122/1/2
f 122/1/2 116/1/2 123/1/2
f 123/1/2 116/1/2 124/1/2
f 115/1/2 117/1/2 125/1/2
f 117/8/2 118/8/2 126/8/2
f 125/1/2 117/1/2 126/1/2
f 124/1/2 116/1/2 127/1/2
f 123/8/2 124/8/2 127/8/2
f 127/1/2 116/1/2 128/1/2
f 115/1/2 125/1/2 129/1/2
f 125/8/2 126/8/2 129/8/2
f 126/8/2 118/8/2 130/8/2
f 129/8/2 126/8/2 130/8/2
f 118/9/2 119/9/2 130/9/2
f 119/1/2 120/1/2 131/1/2
f 130/9/2 119/9/2 131/9/2
f 121/1/2 122/1/2 132/1/2
f 122/9/2 123/9/2 132/9/2
f 123/8/2 127/8/2 133/8/2
f 132/9/2 123/9/2 133/9/2
f 127/8/2 128/8/2 133/8/2
f 128/1/2 116/1/2 134/1/2
f 133/8/2 128/8/2 134/8/2
f 115/1/2 129/1/2 135/1/2
f 129/1/2 130/1/2 135/1/2
f 130/1/2 131/1/2 135/1/2
f 131/1/2 120/1/2 136/1/2
f 135/1/2 131/1/2 136/1/2
f 132/1/2 133/1/2 137/1/2
f 121/1/2 132/1/2 137/1/2
f 133/1/2 134/1/2 137/1/2
f 134/1/2 116/1/2 138/1/2
f 137/1/2 134/1/2 138/1/2
f 139/2/2 140/2/2 147/2/2
f 147/2/2 140/2/2 148/2/2
f 141/2/2 142/2/2 149/2/2
f 149/2/2 142/2/2 150/2/2
f 143/2/2 144/2/2 151/2/2
f 151/2/2 144/2/2 152/2/2
f 145/2/2 146/2/2 153/2/2
f 153/2/2 146/2/2 154/2/2
f 155/1/2 156/1/2 159/1/2
f 156/4/2 157/4/2 160/4/2
f 159/1/2 156/1/2 160/1/2
f 157/1/2 158/1/2 161/1/2
f 160/4/2 157/4/2 161/4/2
f 161/1/2 158/1/2 162/1/2
f 159/4/2 160/4/2 163/4/2
f 160/4/2 161/4/2 163/4/2
f 161/4/2 162/4/2 163/4/2
f 163/4/2 162/4/2 164/4/2
f 159/4/2 163/4/2 165/4/2
f 163/1/2 164/1/2 166/1/2
f 165/4/2 163/4/2 166/4/2
f 164/4/2 162/4/2 167/4/2
f 166/1/2 164/1/2 167/1/2
f 167/4/2 162/4/2 168/4/2
f 165/1/2 166/1/2 169/1/2
f 166/1/2 167/1/2 169/1/2
f 167/1/2 168/1/2 169/1/2
f 169/1/2 168/1/2 170/1/2
f 171/3/2 172/3/2 179/3/2
f 172/2/2 173/2/2 180/2/2
f 179/3/2 172/3/2 180/3/2
f 173/3/2 174/3/2 181/3/2
f 180/2/2 173/2/2 181/2/2
f 181/3/2 174/3/2 182/3/2
f 175/3/2 176/3/2 183/3/2
f 176/2/2 177/2/2 184/2/2
f 183/3/2 176/3/2 184/3/2
f 177/3/2 178/3/2 185/3/2
f 184/2/2 177/2/2 185/2/2
f 185/3/2 178/3/2 186/3/2
f 189/2/3 188/2/3 187/2/3
f 190/2/3 188/2/3 189/2/3
f 191/3/3 190/3/3 189/3/3
f 192/3/3 190/3/3 191/3/3
f 195/2/3 194/2/3 193/2/3
f 196/2/3 194/2/3 195/2/3
f 199/2/3 198/2/3 197/2/3
f 200/2/3 198/2/3 199/2/3
f 203/1/3 202/1/3 201/1/3
f 204/1/3 202/1/3 203/1/3
f 205/1/3 202/1/3 204/1/3
f 207/1/3 206/1/3 205/1/3
f 207/1/3 205/1/3 204/1/3
f 209/1/3 208/1/3 207/1/3
f 212/1/3 207/1/3 204/1/3
f 212/1/3 210/1/3 209/1/3
f 212/1/3 209/1/3 207/1/3
f 213/1/3 210/1/3 212/1/3
f 213/1/3 212/1/3 211/1/3
f 215/1/3 213/1/3 211/1/3
f 215/1/3 214/1/3 213/1/3
f 216/1/3 214/1/3 215/1/3
f 217/1/3 214/1/3 216/1/3
f 220/2/3 219/2/3 218/2/3
f 221/2/3 219/2/3 220/2/3
f 222/3/3 221/3/3 220/3/3
f 223/3/3 221/3/3 222/3/3
f 226/1/3 225/1/3 224/1/3
f 228/1/3 226/1/3 224/1/3
f 228/1/3 227/1/3 226/1/3
f 229/1/3 227/1/3 228/1/3
f 231/1/3 228/1/3 224/1/3
f 232/7/3 229/7/3 228/7/3
f 232/1/3 228/1/3 231/1/3
f 233/7/3 229/7/3 232/7/3
f 234/1/3 227/1/3 229/1/3
f 234/7/3 229/7/3 233/7/3
f 235/1/3 227/1/3 234/1/3
f 236/1/3 227/1/3 235/1/3
f 237/1/3 231/1/3 230/1/3
f 238/4/3 233/4/3 232/4/3
f 238/1/3 231/1/3 237/1/3
f 238/4/3 232/4/3 231/4/3
f 239/1/3 235/1/3 234/1/3
f 239/4/3 233/4/3 238/4/3
f 239/1/3 234/1/3 233/1/3
f 240/1/3 235/1/3 239/1/3
f 243/1/3 242/1/3 241/1/3
f 244/1/3 242/1/3 243/1/3
f 247/6/3 246/6/3 245/6/3
f 248/6/3 246/6/3 247/6/3
f 249/2/3 248/2/3 247/2/3
f 250/2/3 248/2/3 249/2/3
f 253/2/3 252/2/3 251/2/3
f 254/2/3 252/2/3 253/2/3
f 255/3/3 254/3/3 253/3/3
f 256/3/3 254/3/3 255/3/3
f 257/2/4 258/2/4 259/2/4
f 259/2/4 258/2/4 260/2/4
f 259/3/4 260/3/4 261/3/4
f 261/3/4 260/3/4 262/3/4
f 263/6/4 264/6/4 265/6/4
f 265/6/4 264/6/4 266/6/4
f 265/2/4 266/2/4 267/2/4
f 267/2/4 266/2/4 268/2/4
f 269/1/4 270/1/4 271/1/4
f 271/1/4 270/1/4 272/1/4
f 273/1/4 274/1/4 275/1/4
f 273/1/4 275/1/4 277/1/4
f 275/1/4 276/1/4 277/1/4
f 277/1/4 276/1/4 278/1/4
f 273/1/4 277/1/4 280/1/4
f 277/7/4 278/7/4 281/7/4
f 280/1/4 277/1/4 281/1/4
f 281/7/4 278/7/4 282/7/4
f 278/1/4 276/1/4 283/1/4
f 282/7/4 278/7/4 283/7/4
f 283/1/4 276/1/4 284/1/4
f 284/1/4 276/1/4 285/1/4
f 279/1/4 280/1/4 286/1/4
f 281/4/4 282/4/4 287/4/4
f 286/1/4 280/1/4 287/1/4
f 280/4/4 281/4/4 287/4/4
f 283/1/4 284/1/4 288/1/4
f 287/4/4 282/4/4 288/4/4
f 282/1/4 283/1/4 288/1/4
f 288/1/4 284/1/4 289/1/4
f 290/1/4 291/1/4 292/1/4
f 292/1/4 291/1/4 293/1/4
f 293/1/4 291/1/4 294/1/4
f 294/1/4 295/1/4 296/1/4
f 293/1/4 294/1/4 296/1/4
f 296/1/4 297/1/4 298/1/4
f 293/1/4 296/1/4 301/1/4
f 298/1/4 299/1/4 301/1/4
f 296/1/4 298/1/4 301/1/4
f 301/1/4 299/1/4 302/1/4
f 300/1/4 301/1/4 302/1/4
f 302/1/4 299/1/4 303/1/4
f 303/1/4 299/1/4 304/1/4
f 300/1/4 302/1/4 306/1/4
f 302/3/4 303/3/4 307/3/4
f 306/1/4 302/1/4 307/1/4
f 304/1/4 305/1/4 308/1/4
f 307/3/4 303/3/4 308/3/4
f 303/1/4 304/1/4 308/1/4
f 308/1/4 305/1/4 309/1/4
f 306/3/4 307/3/4 310/3/4
f 300/1/4 306/1/4 310/1/4
f 308/3/4 309/3/4 310/3/4
f 307/3/4 308/3/4 310/3/4
f 310/3/4 309/3/4 311/3/4
f 311/3/4 309/3/4 312/3/4
f 309/1/4 305/1/4 313/1/4
f 312/3/4 309/3/4 313/3/4
f 311/3/4 312/3/4 314/3/4
f 310/1/4 311/1/4 314/1/4
f 312/1/4 313/1/4 315/1/4
f 314/3/4 312/3/4 315/3/4
f 300/1/4 310/1/4 316/1/4
f 310/1/4 314/1/4 316/1/4
f 314/1/4 315/1/4 316/1/4
f 316/1/4 315/1/4 317/1/4
f 313/1/4 305/1/4 318/1/4
f 317/1/4 315/1/4 318/1/4
f 315/1/4 313/1/4 318/1/4
f 319/2/4 320/2/4 321/2/4
f 321/2/4 320/2/4 322/2/4
f 321/3/4 322/3/4 323/3/4
f 323/3/4 322/3/4 324/3/4
f 325/2/4 326/2/4 327/2/4
f 327/2/4 326/2/4 328/2/4
f 329/2/4 330/2/4 331/2/4
f 331/2/4 330/2/4 332/2/4
f 333/2/4 334/2/4 335/2/4
f 335/2/4 334/2/4 336/2/4
f 335/3/4 336/3/4 337/3/4
f 337/3/4 336/3/4 338/3/4
f 343/2/5 340/2/5 339/2/5
f 344/3/5 341/3/5 340/3/5
f 344/2/5 340/2/5 343/2/5
f 345/3/5 341/3/5 344/3/5
f 349/2/5 343/2/5 342/2/5
f 349/2/5 344/2/5 343/2/5
f 349/2/5 345/2/5 344/2/5
f 350/2/5 345/2/5 349/2/5
f 351/2/5 347/2/5 346/2/5
f 352/2/5 347/2/5 351/2/5
f 355/5/5 350/5/5 349/5/5
f 355/1/5 351/1/5 350/1/5
f 356/2/5 353/2/5 352/2/5
f 356/1/5 351/1/5 355/1/5
f 356/2/5 352/2/5 351/2/5
f 357/2/5 353/2/5 356/2/5
f 358/3/5 354/3/5 353/3/5
f 358/2/5 353/2/5 357/2/5
f 359/3/5 354/3/5 358/3/5
f 360/2/5 357/2/5 356/2/5
f 360/3/5 358/3/5 357/3/5
f 361/2/5 359/2/5 358/2/5
f 361/3/5 358/3/5 360/3/5
f 362/2/5 359/2/5 361/2/5
f 363/5/5 356/5/5 355/5/5
f 364/2/5 360/2/5 356/2/5
f 364/5/5 356/5/5 363/5/5
f 364/2/5 361/2/5 360/2/5
f 365/2/5 361/2/5 364/2/5
f 366/3/5 362/3/5 361/3/5
f 366/2/5 361/2/5 365/2/5
f 367/3/5 362/3/5 366/3/5
f 368/5/5 363/5/5 355/5/5
f 368/6/5 364/6/5 363/6/5
f 369/6/5 364/6/5 368/6/5
f 370/2/5 365/2/5 364/2/5
f 370/6/5 364/6/5 369/6/5
f 371/2/5 365/2/5 370/2/5
f 372/2/5 369/2/5 368/2/5
f 372/5/5 368/5/5 355/5/5
f 373/2/5 369/2/5 372/2/5
f 376/5/5 372/5/5 355/5/5
f 376/6/5 373/6/5 372/6/5
f 376/6/5 374/6/5 373/6/5
f 377/2/5 375/2/5 374/2/5
f 377/6/5 374/6/5 376/6/5
f 378/2/5 375/2/5 377/2/5
f 381/2/5 378/2/5 377/2/5
f 381/2/5 379/2/5 378/2/5
f 382/3/5 380/3/5 379/3/5
f 382/2/5 379/2/5 381/2/5
f 383/3/5 380/3/5 382/3/5
f 384/5/5 355/5/5 349/5/5
f 384/5/5 376/5/5 355/5/5
f 384/5/5 377/5/5 376/5/5
f 385/2/5 381/2/5 377/2/5
f 385/5/5 377/5/5 384/5/5
f 386/3/5 382/3/5 381/3/5
f 386/2/5 381/2/5 385/2/5
f 387/2/5 383/2/5 382/2/5
f 387/3/5 382/3/5 386/3/5
f 388/2/5 383/2/5 387/2/5
f 389/1/5 349/1/5 348/1/5
f 390/5/5 384/5/5 349/5/5
f 390/1/5 349/1/5 389/1/5
f 391/1/5 385/1/5 384/1/5
f 391/5/5 384/5/5 390/5/5
f 392/2/5 386/2/5 385/2/5
f 392/1/5 385/1/5 391/1/5
f 392/2/5 387/2/5 386/2/5
f 393/2/5 387/2/5 392/2/5
f 394/3/5 388/3/5 387/3/5
f 394/2/5 387/2/5 393/2/5
f 395/3/5 388/3/5 394/3/5
f 396/2/5 391/2/5 390/2/5
f 397/2/5 391/2/5 396/2/5
f 398/2/5 391/2/5 397/2/5
f 399/2/5 391/2/5 398/2/5
f 400/2/5 393/2/5 392/2/5
f 401/2/5 393/2/5 400/2/5
f 402/2/5 398/2/5 397/2/5
f 403/3/5 399/3/5 398/3/5
f 403/2/5 398/2/5 402/2/5
f 404/3/5 399/3/5 403/3/5
f 407/1/5 406/1/5 405/1/5
f 408/1/5 406/1/5 407/1/5
f 409/4/5 408/4/5 407/4/5
f 410/4/5 408/4/5 409/4/5
f 411/1/5 410/1/5 409/1/5
f 412/1/5 410/1/5 411/1/5
f 415/1/5 414/1/5 413/1/5
f 416/1/5 414/1/5 415/1/5
f 417/4/5 416/4/5 415/4/5
f 418/4/5 416/4/5 417/4/5
f 419/4/5 416/4/5 418/4/5
f 420/4/5 416/4/5 419/4/5
f 421/1/5 420/1/5 419/1/5
f 422/1/5 420/1/5 421/1/5
f 423/2/6 424/2/6 427/2/6
f 424/3/6 425/3/6 428/3/6
f 427/2/6 424/2/6 428/2/6
f 428/3/6 425/3/6 429/3/6
f 426/2/6 427/2/6 432/2/6
f 427/2/6 428/2/6 432/2/6
f 428/2/6 429/2/6 432/2/6
f 432/2/6 429/2/6 433/2/6
f 430/2/6 431/2/6 434/2/6
f 434/2/6 431/2/6 435/2/6
f 434/2/6 435/2/6 438/2/6
f 435/2/6 436/2/6 438/2/6
f 436/3/6 437/3/6 439/3/6
f 438/2/6 436/2/6 439/2/6
f 439/3/6 437/3/6 440/3/6
f 434/2/6 438/2/6 441/2/6
f 438/3/6 439/3/6 441/3/6
f 439/2/6 440/2/6 442/2/6
f 441/3/6 439/3/6 442/3/6
f 442/2/6 440/2/6 443/2/6
f 434/2/6 441/2/6 444/2/6
f 441/2/6 442/2/6 444/2/6
f 442/3/6 443/3/6 445/3/6
f 444/2/6 442/2/6 445/2/6
f 445/3/6 443/3/6 446/3/6
f 434/2/6 444/2/6 447/2/6
f 447/2/6 444/2/6 448/2/6
f 449/2/6 450/2/6 451/2/6
f 449/2/6 451/2/6 454/2/6
f 451/2/6 452/2/6 454/2/6
f 452/3/6 453/3/6 455/3/6
f 454/2/6 452/2/6 455/2/6
f 455/3/6 453/3/6 456/3/6
f 449/2/6 454/2/6 457/2/6
f 454/3/6 455/3/6 457/3/6
f 455/2/6 456/2/6 458/2/6
f 457/3/6 455/3/6 458/3/6
f 458/2/6 456/2/6 459/2/6
f 449/2/6 457/2/6 462/2/6
f 457/2/6 458/2/6 462/2/6
f 462/2/6 458/2/6 463/2/6
f 458/3/6 459/3/6 464/3/6
f 463/2/6 458/2/6 464/2/6
f 464/3/6 459/3/6 465/3/6
f 460/2/6 461/2/6 466/2/6
f 466/2/6 461/2/6 467/2/6
f 467/2/6 461/2/6 468/2/6
f 468/2/6 461/2/6 469/2/6
f 462/2/6 463/2/6 470/2/6
f 470/2/6 463/2/6 471/2/6
f 467/2/6 468/2/6 472/2/6
f 468/3/6 469/3/6 473/3/6
f 472/2/6 468/2/6 473/2/6
f 473/3/6 469/3/6 474/3/6
f 475/1/6 476/1/6 477/1/6
f 477/1/6 476/1/6 478/1/6
f 479/1/6 480/1/6 481/1/6
f 479/1/6 481/1/6 482/1/6
f 482/1/6 481/1/6 483/1/6
f 479/1/6 482/1/6 484/1/6
f 482/3/6 483/3/6 484/3/6
f 484/3/6 483/3/6 485/3/6
f 484/1/6 485/1/6 486/1/6
f 479/1/6 484/1/6 487/1/6
f 484/1/6 486/1/6 487/1/6
f 487/1/6 486/1/6 488/1/6
f 489/1/6 490/1/6 491/1/6
f 491/1/6 490/1/6 492/1/6
f 491/3/6 492/3/6 493/3/6
f 491/3/6 493/3/6 494/3/6
f 491/3/6 494/3/6 495/3/6
f 495/3/6 494/3/6 496/3/6
f 495/1/6 496/1/6 497/1/6
f 497/1/6 496/1/6 498/1/6
f 499/1/6 500/1/6 501/1/6
f 501/1/6 500/1/6 502/1/6
f 501/3/6 502/3/6 503/3/6
f 502/1/6 500/1/6 504/1/6
f 503/3/6 502/3/6 504/3/6
f 503/1/6 504/1/6 505/1/6
f 504/1/6 500/1/6 506/1/6
f 505/1/6 504/1/6 506/1/6
f 507/1/6 508/1/6 509/1/6
f 509/1/6 508/1/6 510/1/6
f 507/1/6 509/1/6 511/1/6
f 507/1/6 511/1/6 513/1/6
f 511/1/6 512/1/6 513/1/6
f 513/1/6 512/1/6 514/1/6
f 515/1/6 516/1/6 519/1/6
f 519/1/6 516/1/6 520/1/6
f 517/1/6 518/1/6 521/1/6
f 521/1/6 518/1/6 522/1/6
f 523/1/6 524/1/6 525/1/6
f 525/1/6 524/1/6 526/1/6
f 527/1/6 528/1/6 529/1/6
f 529/1/6 528/1/6 530/1/6
f 531/1/6 532/1/6 533/1/6
f 533/1/6 532/1/6 534/1/6
