# MagicaVoxel @ Ephtracy

# group
o 

# material
mtllib FrogBlackObj.mtl
usemtl palette

# normals
vn -1 0 0
vn 1 0 0
vn 0 0 1
vn 0 0 -1
vn 0 -1 0
vn 0 1 0

# texcoords
vt 0.314453 0.5
vt 0.318359 0.5
vt 0.322266 0.5
vt 0.326172 0.5
vt 0.345703 0.5
vt 0.501953 0.5
vt 0.505859 0.5
vt 0.990234 0.5
vt 0.994141 0.5

# verts
v -0.6 0 0.8
v -0.6 0 -0.6
v -0.6 0.2 0.2
v -0.6 0.2 -0.1
v -0.6 0.3 0.8
v -0.6 0.3 0.2
v -0.6 0.3 -0.1
v -0.6 0.3 -0.6
v -0.5 0 0.9
v -0.5 0 0.8
v -0.5 0 -0.6
v -0.5 0 -0.7
v -0.5 0.1 0.9
v -0.5 0.1 0.8
v -0.5 0.1 -0.6
v -0.5 0.1 -0.7
v -0.5 0.3 0.8
v -0.5 0.3 0.2
v -0.5 0.3 0.0999999
v -0.5 0.3 -1.19209e-07
v -0.5 0.3 -0.1
v -0.5 0.3 -0.6
v -0.5 0.4 0.8
v -0.5 0.4 0.2
v -0.5 0.4 0.0999999
v -0.5 0.4 -1.19209e-07
v -0.5 0.4 -0.1
v -0.5 0.4 -0.6
v -0.4 0 1
v -0.4 0 0.9
v -0.4 0 -0.7
v -0.4 0 -0.8
v -0.4 0.1 1
v -0.4 0.1 0.9
v -0.4 0.1 -0.7
v -0.4 0.1 -0.8
v -0.3 0.4 0.8
v -0.3 0.4 -1.19209e-07
v -0.3 0.4 -0.1
v -0.3 0.4 -0.6
v -0.3 0.5 0.8
v -0.3 0.5 -1.19209e-07
v -0.3 0.5 -0.1
v -0.3 0.5 -0.6
v -0.2 0.5 0.8
v -0.2 0.5 -1.19209e-07
v -0.2 0.5 -0.1
v -0.2 0.5 -0.6
v -0.2 0.6 0.8
v -0.2 0.6 -0.6
v 5.96046e-08 0.6 0.8
v 5.96046e-08 0.6 -0.2
v 5.96046e-08 0.6 -0.6
v 5.96046e-08 0.7 0.8
v 5.96046e-08 0.7 -0.2
v 5.96046e-08 0.7 -0.6
v 0.2 0.7 0.7
v 0.2 0.7 0.5
v 0.2 0.7 -0.2
v 0.2 0.7 -0.5
v 0.2 0.8 0.7
v 0.2 0.8 0.5
v 0.2 0.8 -0.2
v 0.2 0.8 -0.3
v 0.2 0.9 -0.3
v 0.2 0.9 -0.4
v 0.2 1 -0.4
v 0.2 1 -0.5
v 0.2 1.1 -0.2
v 0.2 1.1 -0.3
v 0.2 1.2 0.7
v 0.2 1.2 -0.3
v 0.2 1.2 -0.5
v 0.3 1.2 0.7
v 0.3 1.2 -0.3
v 0.3 1.2 -0.5
v 0.3 1.3 0.2
v 0.3 1.3 -1.19209e-07
v 0.3 1.3 -0.3
v 0.3 1.3 -0.4
v 0.3 1.4 0.7
v 0.3 1.4 0.4
v 0.3 1.4 -0.2
v 0.3 1.4 -0.4
v 0.3 1.6 0.7
v 0.3 1.6 0.4
v 0.3 1.6 0.2
v 0.3 1.6 -1.19209e-07
v 0.3 1.6 -0.2
v 0.3 1.6 -0.5
v 0.6 0 0.9
v 0.6 0 0.8
v 0.6 0 -0.6
v 0.6 0 -0.7
v 0.6 0.1 0.9
v 0.6 0.1 0.8
v 0.6 0.1 -0.6
v 0.6 0.1 -0.7
v -0.0999999 0 1
v -0.0999999 0 0.8
v -0.0999999 0 -0.6
v -0.0999999 0 -0.8
v -0.0999999 0.1 1
v -0.0999999 0.1 0.8
v -0.0999999 0.1 -0.6
v -0.0999999 0.1 -0.8
v 0.5 0 0.4
v 0.5 0 -0.2
v 0.5 0.1 0.4
v 0.5 0.1 -1.19209e-07
v 0.5 0.1 -0.2
v 0.6 0.1 0.8
v 0.6 0.1 0.6
v 0.6 0.1 0.4
v 0.6 0.1 -1.19209e-07
v 0.6 0.1 -0.2
v 0.6 0.1 -0.5
v 0.6 0.1 -0.6
v 0.6 0.3 0.8
v 0.6 0.3 0.6
v 0.6 0.6 0.7
v 0.6 0.6 -1.19209e-07
v 0.6 0.6 -0.4
v 0.6 0.6 -0.5
v 0.6 0.7 0.8
v 0.6 0.7 0.7
v 0.6 0.7 -0.5
v 0.6 0.7 -0.6
v 0.6 1.2 0.7
v 0.6 1.2 -0.5
v 0.6 1.3 0.5
v 0.6 1.3 0.2
v 0.6 1.3 -1.19209e-07
v 0.6 1.3 -0.1
v 0.6 1.3 -0.3
v 0.6 1.4 0.7
v 0.6 1.4 0.5
v 0.6 1.4 0.4
v 0.6 1.4 0.3
v 0.6 1.4 0.2
v 0.6 1.4 -0.1
v 0.6 1.4 -0.2
v 0.6 1.4 -0.3
v 0.6 1.4 -0.4
v 0.6 1.5 0.4
v 0.6 1.5 0.3
v 0.6 1.5 -0.1
v 0.6 1.5 -0.2
v 0.6 1.5 -0.4
v 0.6 1.6 0.7
v 0.6 1.6 0.4
v 0.6 1.6 0.2
v 0.6 1.6 -1.19209e-07
v 0.6 1.6 -0.5
v 0.7 0 0.9
v 0.7 0 0.8
v 0.7 0 0.5
v 0.7 0 0.4
v 0.7 0 -0.2
v 0.7 0 -0.3
v 0.7 0 -0.6
v 0.7 0 -0.7
v 0.7 0.1 0.9
v 0.7 0.1 0.8
v 0.7 0.1 0.5
v 0.7 0.1 0.4
v 0.7 0.1 -0.2
v 0.7 0.1 -0.3
v 0.7 0.1 -0.6
v 0.7 0.1 -0.7
v 0.7 0.6 0.7
v 0.7 0.6 -0.4
v 0.7 0.6 -0.5
v 0.7 0.7 -0.4
v 0.7 0.7 -0.5
v 0.7 1.2 0.7
v 0.7 1.2 -0.5
v 0.9 0 0.8
v 0.9 0 0.5
v 0.9 0 -0.3
v 0.9 0 -0.6
v 0.9 0.1 0.8
v 0.9 0.1 0.5
v 0.9 0.1 -0.3
v 0.9 0.1 -0.6
v -0.4 0 1
v -0.4 0.1 1
v -0.0999999 0 1
v -0.0999999 0.1 1
v -0.5 0 0.9
v -0.5 0.1 0.9
v -0.4 0 0.9
v -0.4 0.1 0.9
v 0.6 0 0.9
v 0.6 0.1 0.9
v 0.7 0 0.9
v 0.7 0.1 0.9
v -0.6 0 0.8
v -0.6 0.3 0.8
v -0.5 0 0.8
v -0.5 0.1 0.8
v -0.5 0.3 0.8
v -0.5 0.4 0.8
v -0.3 0.4 0.8
v -0.3 0.5 0.8
v -0.2 0.5 0.8
v -0.2 0.6 0.8
v -0.0999999 0 0.8
v -0.0999999 0.1 0.8
v 5.96046e-08 0 0.8
v 5.96046e-08 0.1 0.8
v 5.96046e-08 0.6 0.8
v 5.96046e-08 0.7 0.8
v 0.1 0.4 0.8
v 0.1 0.7 0.8
v 0.2 0.1 0.8
v 0.2 0.2 0.8
v 0.4 0.4 0.8
v 0.4 0.7 0.8
v 0.5 0.2 0.8
v 0.5 0.3 0.8
v 0.6 0 0.8
v 0.6 0.1 0.8
v 0.6 0.3 0.8
v 0.6 0.7 0.8
v 0.7 0 0.8
v 0.7 0.1 0.8
v 0.9 0 0.8
v 0.9 0.1 0.8
v 0.2 0.7 0.7
v 0.2 0.8 0.7
v 0.2 1.2 0.7
v 0.3 0.7 0.7
v 0.3 0.8 0.7
v 0.3 1.2 0.7
v 0.3 1.4 0.7
v 0.3 1.6 0.7
v 0.4 0.7 0.7
v 0.4 0.8 0.7
v 0.4 1 0.7
v 0.5 1.2 0.7
v 0.5 1.4 0.7
v 0.6 0.6 0.7
v 0.6 0.7 0.7
v 0.6 0.8 0.7
v 0.6 1 0.7
v 0.6 1.2 0.7
v 0.6 1.4 0.7
v 0.6 1.6 0.7
v 0.7 0.6 0.7
v 0.7 1.2 0.7
v 0.3 1.3 -1.19209e-07
v 0.3 1.6 -1.19209e-07
v 0.5 1.3 -1.19209e-07
v 0.5 1.6 -1.19209e-07
v 0.6 1.3 -1.19209e-07
v 0.6 1.6 -1.19209e-07
v 0.5 0 -0.2
v 0.5 0.1 -0.2
v 0.6 0 -0.2
v 0.6 0.1 -0.2
v 0.7 0 -0.2
v 0.7 0.1 -0.2
v 0.7 0 -0.3
v 0.7 0.1 -0.3
v 0.9 0 -0.3
v 0.9 0.1 -0.3
v 0.7 0 0.5
v 0.7 0.1 0.5
v 0.9 0 0.5
v 0.9 0.1 0.5
v 0.5 0 0.4
v 0.5 0.1 0.4
v 0.6 0 0.4
v 0.6 0.1 0.4
v 0.7 0 0.4
v 0.7 0.1 0.4
v 0.3 1.3 0.2
v 0.3 1.6 0.2
v 0.5 1.3 0.2
v 0.5 1.4 0.2
v 0.5 1.6 0.2
v 0.6 1.3 0.2
v 0.6 1.4 0.2
v 0.6 1.6 0.2
v 0.2 0.7 -0.5
v 0.2 1 -0.5
v 0.2 1.2 -0.5
v 0.3 0.7 -0.5
v 0.3 0.9 -0.5
v 0.3 1 -0.5
v 0.3 1.2 -0.5
v 0.3 1.6 -0.5
v 0.4 0.7 -0.5
v 0.4 0.9 -0.5
v 0.5 0.7 -0.5
v 0.5 0.8 -0.5
v 0.5 1 -0.5
v 0.5 1.6 -0.5
v 0.6 0.6 -0.5
v 0.6 0.7 -0.5
v 0.6 0.8 -0.5
v 0.6 1 -0.5
v 0.6 1.2 -0.5
v 0.6 1.6 -0.5
v 0.7 0.6 -0.5
v 0.7 0.7 -0.5
v 0.7 1.2 -0.5
v -0.6 0 -0.6
v -0.6 0.3 -0.6
v -0.5 0 -0.6
v -0.5 0.1 -0.6
v -0.5 0.3 -0.6
v -0.5 0.4 -0.6
v -0.3 0.4 -0.6
v -0.3 0.5 -0.6
v -0.2 0.5 -0.6
v -0.2 0.6 -0.6
v -0.0999999 0 -0.6
v -0.0999999 0.1 -0.6
v -0.0999999 0.5 -0.6
v -0.0999999 0.6 -0.6
v 5.96046e-08 0.6 -0.6
v 5.96046e-08 0.7 -0.6
v 0.3 0.5 -0.6
v 0.3 0.7 -0.6
v 0.6 0 -0.6
v 0.6 0.1 -0.6
v 0.6 0.7 -0.6
v 0.7 0 -0.6
v 0.7 0.1 -0.6
v 0.9 0 -0.6
v 0.9 0.1 -0.6
v -0.5 0 -0.7
v -0.5 0.1 -0.7
v -0.4 0 -0.7
v -0.4 0.1 -0.7
v 0.6 0 -0.7
v 0.6 0.1 -0.7
v 0.7 0 -0.7
v 0.7 0.1 -0.7
v -0.4 0 -0.8
v -0.4 0.1 -0.8
v -0.0999999 0 -0.8
v -0.0999999 0.1 -0.8
v -0.4 0 1
v -0.0999999 0 1
v -0.5 0 0.9
v -0.4 0 0.9
v 0.6 0 0.9
v 0.7 0 0.9
v -0.6 0 0.8
v -0.5 0 0.8
v -0.0999999 0 0.8
v 5.96046e-08 0 0.8
v 0.6 0 0.8
v 0.7 0 0.8
v 0.9 0 0.8
v -0.0999999 0 0.7
v 5.96046e-08 0 0.7
v 0.6 0 0.7
v 0.4 0 0.5
v 0.5 0 0.5
v 0.6 0 0.5
v 0.7 0 0.5
v 0.9 0 0.5
v 0.4 0 0.4
v 0.5 0 0.4
v 0.6 0 0.4
v 0.7 0 0.4
v 0.4 0 -0.2
v 0.5 0 -0.2
v 0.6 0 -0.2
v 0.7 0 -0.2
v 0.4 0 -0.3
v 0.5 0 -0.3
v 0.6 0 -0.3
v 0.7 0 -0.3
v 0.9 0 -0.3
v -0.0999999 0 -0.5
v 0.6 0 -0.5
v -0.6 0 -0.6
v -0.5 0 -0.6
v -0.0999999 0 -0.6
v 0.6 0 -0.6
v 0.7 0 -0.6
v 0.9 0 -0.6
v -0.5 0 -0.7
v -0.4 0 -0.7
v 0.6 0 -0.7
v 0.7 0 -0.7
v -0.4 0 -0.8
v -0.0999999 0 -0.8
v 0.5 0.1 0.4
v 0.6 0.1 0.4
v 0.5 0.1 -1.19209e-07
v 0.6 0.1 -1.19209e-07
v 0.5 0.1 -0.2
v 0.6 0.1 -0.2
v 0.6 0.6 0.7
v 0.7 0.6 0.7
v 0.6 0.6 -1.19209e-07
v 0.6 0.6 -0.4
v 0.7 0.6 -0.4
v 0.6 0.6 -0.5
v 0.7 0.6 -0.5
v -0.4 0.1 1
v -0.0999999 0.1 1
v -0.5 0.1 0.9
v -0.4 0.1 0.9
v 0.6 0.1 0.9
v 0.7 0.1 0.9
v -0.5 0.1 0.8
v -0.0999999 0.1 0.8
v 0.6 0.1 0.8
v 0.7 0.1 0.8
v 0.9 0.1 0.8
v 0.6 0.1 0.6
v 0.7 0.1 0.5
v 0.9 0.1 0.5
v 0.6 0.1 0.4
v 0.7 0.1 0.4
v 0.6 0.1 -0.2
v 0.7 0.1 -0.2
v 0.7 0.1 -0.3
v 0.9 0.1 -0.3
v 0.6 0.1 -0.5
v -0.5 0.1 -0.6
v -0.0999999 0.1 -0.6
v 0.6 0.1 -0.6
v 0.7 0.1 -0.6
v 0.9 0.1 -0.6
v -0.5 0.1 -0.7
v -0.4 0.1 -0.7
v 0.6 0.1 -0.7
v 0.7 0.1 -0.7
v -0.4 0.1 -0.8
v -0.0999999 0.1 -0.8
v -0.6 0.3 0.8
v -0.5 0.3 0.8
v -0.6 0.3 0.2
v -0.5 0.3 0.2
v -0.5 0.3 0.0999999
v -0.5 0.3 -1.19209e-07
v -0.6 0.3 -0.1
v -0.5 0.3 -0.1
v -0.6 0.3 -0.6
v -0.5 0.3 -0.6
v -0.5 0.4 0.8
v -0.3 0.4 0.8
v -0.5 0.4 0.2
v -0.4 0.4 0.2
v -0.5 0.4 0.0999999
v -0.4 0.4 0.0999999
v -0.5 0.4 -1.19209e-07
v -0.3 0.4 -1.19209e-07
v -0.5 0.4 -0.1
v -0.3 0.4 -0.1
v -0.5 0.4 -0.6
v -0.3 0.4 -0.6
v -0.3 0.5 0.8
v -0.2 0.5 0.8
v -0.3 0.5 -1.19209e-07
v -0.2 0.5 -1.19209e-07
v -0.3 0.5 -0.1
v -0.2 0.5 -0.1
v -0.3 0.5 -0.6
v -0.2 0.5 -0.6
v -0.2 0.6 0.8
v 5.96046e-08 0.6 0.8
v -0.0999999 0.6 -0.2
v 5.96046e-08 0.6 -0.2
v -0.2 0.6 -0.6
v -0.0999999 0.6 -0.6
v 5.96046e-08 0.6 -0.6
v 5.96046e-08 0.7 0.8
v 0.1 0.7 0.8
v 0.4 0.7 0.8
v 0.6 0.7 0.8
v 0.2 0.7 0.7
v 0.3 0.7 0.7
v 0.4 0.7 0.7
v 0.6 0.7 0.7
v 0.1 0.7 0.5
v 0.2 0.7 0.5
v 5.96046e-08 0.7 -0.2
v 0.2 0.7 -0.2
v 0.2 0.7 -0.5
v 0.3 0.7 -0.5
v 0.4 0.7 -0.5
v 0.5 0.7 -0.5
v 0.6 0.7 -0.5
v 5.96046e-08 0.7 -0.6
v 0.3 0.7 -0.6
v 0.6 0.7 -0.6
v 0.2 1.2 0.7
v 0.3 1.2 0.7
v 0.6 1.2 0.7
v 0.7 1.2 0.7
v 0.2 1.2 -0.3
v 0.3 1.2 -0.3
v 0.2 1.2 -0.5
v 0.3 1.2 -0.5
v 0.6 1.2 -0.5
v 0.7 1.2 -0.5
v 0.3 1.3 0.2
v 0.5 1.3 0.2
v 0.6 1.3 0.2
v 0.3 1.3 -1.19209e-07
v 0.5 1.3 -1.19209e-07
v 0.6 1.3 -1.19209e-07
v 0.3 1.6 0.7
v 0.6 1.6 0.7
v 0.3 1.6 0.4
v 0.5 1.6 0.4
v 0.6 1.6 0.4
v 0.3 1.6 0.2
v 0.5 1.6 0.2
v 0.6 1.6 0.2
v 0.3 1.6 -1.19209e-07
v 0.5 1.6 -1.19209e-07
v 0.6 1.6 -1.19209e-07
v 0.3 1.6 -0.2
v 0.5 1.6 -0.2
v 0.3 1.6 -0.5
v 0.5 1.6 -0.5
v 0.6 1.6 -0.5

# faces
f 3/2/1 2/2/1 1/2/1
f 4/2/1 2/2/1 3/2/1
f 5/2/1 3/2/1 1/2/1
f 6/3/1 4/3/1 3/3/1
f 6/2/1 3/2/1 5/2/1
f 7/2/1 2/2/1 4/2/1
f 7/3/1 4/3/1 6/3/1
f 8/2/1 2/2/1 7/2/1
f 13/1/1 10/1/1 9/1/1
f 14/1/1 10/1/1 13/1/1
f 15/1/1 12/1/1 11/1/1
f 16/1/1 12/1/1 15/1/1
f 23/2/1 18/2/1 17/2/1
f 24/3/1 19/3/1 18/3/1
f 24/2/1 18/2/1 23/2/1
f 25/2/1 20/2/1 19/2/1
f 25/3/1 19/3/1 24/3/1
f 26/3/1 21/3/1 20/3/1
f 26/2/1 20/2/1 25/2/1
f 27/2/1 22/2/1 21/2/1
f 27/3/1 21/3/1 26/3/1
f 28/2/1 22/2/1 27/2/1
f 33/1/1 30/1/1 29/1/1
f 34/1/1 30/1/1 33/1/1
f 35/1/1 32/1/1 31/1/1
f 36/1/1 32/1/1 35/1/1
f 41/2/1 38/2/1 37/2/1
f 42/3/1 39/3/1 38/3/1
f 42/2/1 38/2/1 41/2/1
f 43/2/1 40/2/1 39/2/1
f 43/3/1 39/3/1 42/3/1
f 44/2/1 40/2/1 43/2/1
f 49/2/1 46/2/1 45/2/1
f 49/2/1 48/2/1 47/2/1
f 49/2/1 47/2/1 46/2/1
f 50/2/1 48/2/1 49/2/1
f 54/2/1 52/2/1 51/2/1
f 55/3/1 53/3/1 52/3/1
f 55/2/1 52/2/1 54/2/1
f 56/3/1 53/3/1 55/3/1
f 61/3/1 58/3/1 57/3/1
f 62/2/1 60/2/1 59/2/1
f 62/3/1 58/3/1 61/3/1
f 62/2/1 59/2/1 58/2/1
f 63/2/1 60/2/1 62/2/1
f 64/2/1 60/2/1 63/2/1
f 65/3/1 64/3/1 63/3/1
f 65/2/1 60/2/1 64/2/1
f 66/2/1 60/2/1 65/2/1
f 67/3/1 66/3/1 65/3/1
f 67/2/1 60/2/1 66/2/1
f 68/2/1 60/2/1 67/2/1
f 69/2/1 62/2/1 61/2/1
f 69/2/1 63/2/1 62/2/1
f 69/3/1 68/3/1 67/3/1
f 69/3/1 67/3/1 65/3/1
f 69/3/1 65/3/1 63/3/1
f 70/3/1 68/3/1 69/3/1
f 71/2/1 69/2/1 61/2/1
f 71/2/1 70/2/1 69/2/1
f 72/3/1 68/3/1 70/3/1
f 72/2/1 70/2/1 71/2/1
f 73/3/1 68/3/1 72/3/1
f 77/2/1 75/2/1 74/2/1
f 78/2/1 75/2/1 77/2/1
f 79/3/1 76/3/1 75/3/1
f 79/2/1 75/2/1 78/2/1
f 80/3/1 76/3/1 79/3/1
f 81/2/1 77/2/1 74/2/1
f 82/2/1 77/2/1 81/2/1
f 83/2/1 80/2/1 79/2/1
f 83/2/1 79/2/1 78/2/1
f 84/3/1 76/3/1 80/3/1
f 84/2/1 80/2/1 83/2/1
f 85/3/1 82/3/1 81/3/1
f 86/2/1 77/2/1 82/2/1
f 86/3/1 82/3/1 85/3/1
f 87/2/1 77/2/1 86/2/1
f 88/2/1 83/2/1 78/2/1
f 89/3/1 84/3/1 83/3/1
f 89/2/1 83/2/1 88/2/1
f 90/3/1 76/3/1 84/3/1
f 90/3/1 84/3/1 89/3/1
f 95/1/1 92/1/1 91/1/1
f 96/1/1 92/1/1 95/1/1
f 97/1/1 94/1/1 93/1/1
f 98/1/1 94/1/1 97/1/1
f 99/1/2 100/1/2 103/1/2
f 103/1/2 100/1/2 104/1/2
f 101/1/2 102/1/2 105/1/2
f 105/1/2 102/1/2 106/1/2
f 107/9/2 108/9/2 109/9/2
f 109/9/2 108/9/2 110/9/2
f 110/9/2 108/9/2 111/9/2
f 112/9/2 113/9/2 119/9/2
f 113/2/2 114/2/2 120/2/2
f 119/9/2 113/9/2 120/9/2
f 114/2/2 115/2/2 120/2/2
f 119/2/2 120/2/2 121/2/2
f 116/9/2 117/9/2 122/9/2
f 121/2/2 120/2/2 122/2/2
f 115/9/2 116/9/2 122/9/2
f 120/2/2 115/2/2 122/2/2
f 122/9/2 117/9/2 123/9/2
f 117/2/2 118/2/2 124/2/2
f 123/9/2 117/9/2 124/9/2
f 119/2/2 121/2/2 125/2/2
f 125/2/2 121/2/2 126/2/2
f 124/2/2 118/2/2 127/2/2
f 127/2/2 118/2/2 128/2/2
f 129/9/2 130/9/2 131/9/2
f 131/9/2 130/9/2 132/9/2
f 132/9/2 130/9/2 133/9/2
f 133/9/2 130/9/2 134/9/2
f 134/9/2 130/9/2 135/9/2
f 129/9/2 131/9/2 136/9/2
f 131/2/2 132/2/2 137/2/2
f 136/9/2 131/9/2 137/9/2
f 137/2/2 132/2/2 138/2/2
f 138/2/2 132/2/2 139/2/2
f 139/2/2 132/2/2 140/2/2
f 134/2/2 135/2/2 141/2/2
f 133/9/2 134/9/2 141/9/2
f 141/2/2 135/2/2 142/2/2
f 135/9/2 130/9/2 143/9/2
f 142/2/2 135/2/2 143/2/2
f 143/9/2 130/9/2 144/9/2
f 138/8/2 139/8/2 145/8/2
f 136/3/2 137/3/2 145/3/2
f 137/3/2 138/3/2 145/3/2
f 139/9/2 140/9/2 146/9/2
f 145/8/2 139/8/2 146/8/2
f 141/8/2 142/8/2 147/8/2
f 133/9/2 141/9/2 147/9/2
f 143/2/2 144/2/2 148/2/2
f 147/8/2 142/8/2 148/8/2
f 142/2/2 143/2/2 148/2/2
f 144/9/2 130/9/2 149/9/2
f 148/2/2 144/2/2 149/2/2
f 136/3/2 145/3/2 150/3/2
f 145/9/2 146/9/2 151/9/2
f 150/3/2 145/3/2 151/3/2
f 146/9/2 140/9/2 152/9/2
f 151/9/2 146/9/2 152/9/2
f 147/9/2 148/9/2 153/9/2
f 133/9/2 147/9/2 153/9/2
f 148/9/2 149/9/2 153/9/2
f 149/9/2 130/9/2 154/9/2
f 153/9/2 149/9/2 154/9/2
f 155/1/2 156/1/2 163/1/2
f 163/1/2 156/1/2 164/1/2
f 157/1/2 158/1/2 165/1/2
f 165/1/2 158/1/2 166/1/2
f 159/1/2 160/1/2 167/1/2
f 167/1/2 160/1/2 168/1/2
f 161/1/2 162/1/2 169/1/2
f 169/1/2 162/1/2 170/1/2
f 171/2/2 172/2/2 174/2/2
f 172/9/2 173/9/2 174/9/2
f 174/9/2 173/9/2 175/9/2
f 171/2/2 174/2/2 176/2/2
f 174/2/2 175/2/2 176/2/2
f 176/2/2 175/2/2 177/2/2
f 178/1/2 179/1/2 182/1/2
f 182/1/2 179/1/2 183/1/2
f 180/1/2 181/1/2 184/1/2
f 184/1/2 181/1/2 185/1/2
f 188/1/3 187/1/3 186/1/3
f 189/1/3 187/1/3 188/1/3
f 192/1/3 191/1/3 190/1/3
f 193/1/3 191/1/3 192/1/3
f 196/1/3 195/1/3 194/1/3
f 197/1/3 195/1/3 196/1/3
f 200/2/3 199/2/3 198/2/3
f 201/2/3 199/2/3 200/2/3
f 202/2/3 199/2/3 201/2/3
f 204/2/3 203/2/3 202/2/3
f 204/2/3 202/2/3 201/2/3
f 206/2/3 205/2/3 204/2/3
f 209/2/3 204/2/3 201/2/3
f 209/2/3 207/2/3 206/2/3
f 209/2/3 206/2/3 204/2/3
f 210/2/3 209/2/3 208/2/3
f 211/2/3 207/2/3 209/2/3
f 211/2/3 209/2/3 210/2/3
f 212/2/3 207/2/3 211/2/3
f 214/2/3 212/2/3 211/2/3
f 214/2/3 213/2/3 212/2/3
f 215/2/3 213/2/3 214/2/3
f 216/9/3 211/9/3 210/9/3
f 216/2/3 214/2/3 211/2/3
f 217/2/3 214/2/3 216/2/3
f 218/3/3 215/3/3 214/3/3
f 218/2/3 214/2/3 217/2/3
f 219/3/3 215/3/3 218/3/3
f 220/9/3 217/9/3 216/9/3
f 220/2/3 218/2/3 217/2/3
f 220/2/3 219/2/3 218/2/3
f 221/2/3 219/2/3 220/2/3
f 222/9/3 216/9/3 210/9/3
f 222/9/3 220/9/3 216/9/3
f 222/9/3 221/9/3 220/9/3
f 223/9/3 221/9/3 222/9/3
f 224/2/3 219/2/3 221/2/3
f 224/9/3 221/9/3 223/9/3
f 225/2/3 219/2/3 224/2/3
f 228/1/3 227/1/3 226/1/3
f 229/1/3 227/1/3 228/1/3
f 233/3/3 231/3/3 230/3/3
f 234/2/3 232/2/3 231/2/3
f 234/3/3 231/3/3 233/3/3
f 235/2/3 232/2/3 234/2/3
f 238/2/3 234/2/3 233/2/3
f 238/2/3 235/2/3 234/2/3
f 238/2/3 236/2/3 235/2/3
f 239/2/3 236/2/3 238/2/3
f 240/2/3 236/2/3 239/2/3
f 241/2/3 236/2/3 240/2/3
f 242/3/3 237/3/3 236/3/3
f 242/2/3 236/2/3 241/2/3
f 244/2/3 239/2/3 238/2/3
f 245/4/3 240/4/3 239/4/3
f 245/2/3 239/2/3 244/2/3
f 246/2/3 241/2/3 240/2/3
f 246/4/3 240/4/3 245/4/3
f 247/9/3 242/9/3 241/9/3
f 247/2/3 241/2/3 246/2/3
f 248/3/3 237/3/3 242/3/3
f 248/9/3 242/9/3 247/9/3
f 249/3/3 237/3/3 248/3/3
f 250/2/3 245/2/3 244/2/3
f 250/2/3 247/2/3 246/2/3
f 250/2/3 244/2/3 243/2/3
f 250/2/3 246/2/3 245/2/3
f 251/2/3 247/2/3 250/2/3
f 254/2/3 253/2/3 252/2/3
f 255/2/3 253/2/3 254/2/3
f 256/9/3 255/9/3 254/9/3
f 257/9/3 255/9/3 256/9/3
f 260/5/3 259/5/3 258/5/3
f 261/5/3 259/5/3 260/5/3
f 262/1/3 261/1/3 260/1/3
f 263/1/3 261/1/3 262/1/3
f 266/1/3 265/1/3 264/1/3
f 267/1/3 265/1/3 266/1/3
f 268/1/4 269/1/4 270/1/4
f 270/1/4 269/1/4 271/1/4
f 272/5/4 273/5/4 274/5/4
f 274/5/4 273/5/4 275/5/4
f 274/1/4 275/1/4 276/1/4
f 276/1/4 275/1/4 277/1/4
f 278/2/4 279/2/4 280/2/4
f 280/2/4 279/2/4 281/2/4
f 281/2/4 279/2/4 282/2/4
f 280/2/4 281/2/4 283/2/4
f 281/9/4 282/9/4 284/9/4
f 283/2/4 281/2/4 284/2/4
f 284/9/4 282/9/4 285/9/4
f 286/2/4 287/2/4 289/2/4
f 289/2/4 287/2/4 290/2/4
f 287/3/4 288/3/4 291/3/4
f 290/2/4 287/2/4 291/2/4
f 291/3/4 288/3/4 292/3/4
f 289/2/4 290/2/4 294/2/4
f 292/3/4 293/3/4 295/3/4
f 294/2/4 290/2/4 295/2/4
f 290/3/4 291/3/4 295/3/4
f 291/3/4 292/3/4 295/3/4
f 294/3/4 295/3/4 296/3/4
f 296/3/4 295/3/4 297/3/4
f 295/3/4 293/3/4 298/3/4
f 297/3/4 295/3/4 298/3/4
f 298/3/4 293/3/4 299/3/4
f 296/2/4 297/2/4 301/2/4
f 297/4/4 298/4/4 302/4/4
f 301/2/4 297/2/4 302/2/4
f 298/9/4 299/9/4 303/9/4
f 302/4/4 298/4/4 303/4/4
f 303/9/4 299/9/4 304/9/4
f 304/9/4 299/9/4 305/9/4
f 300/9/4 301/9/4 306/9/4
f 301/2/4 302/2/4 307/2/4
f 306/9/4 301/9/4 307/9/4
f 302/2/4 303/2/4 307/2/4
f 303/2/4 304/2/4 307/2/4
f 307/2/4 304/2/4 308/2/4
f 309/2/4 310/2/4 311/2/4
f 311/2/4 310/2/4 312/2/4
f 312/2/4 310/2/4 313/2/4
f 313/2/4 314/2/4 315/2/4
f 312/2/4 313/2/4 315/2/4
f 315/2/4 316/2/4 317/2/4
f 312/2/4 315/2/4 320/2/4
f 317/2/4 318/2/4 320/2/4
f 315/2/4 317/2/4 320/2/4
f 320/2/4 318/2/4 321/2/4
f 321/2/4 318/2/4 322/2/4
f 321/3/4 322/3/4 323/3/4
f 319/2/4 320/2/4 325/2/4
f 323/3/4 324/3/4 325/3/4
f 321/3/4 323/3/4 325/3/4
f 320/2/4 321/2/4 325/2/4
f 325/3/4 324/3/4 326/3/4
f 319/2/4 325/2/4 327/2/4
f 325/2/4 326/2/4 327/2/4
f 327/2/4 326/2/4 328/2/4
f 328/2/4 326/2/4 329/2/4
f 330/1/4 331/1/4 332/1/4
f 332/1/4 331/1/4 333/1/4
f 334/1/4 335/1/4 336/1/4
f 336/1/4 335/1/4 337/1/4
f 338/1/4 339/1/4 340/1/4
f 340/1/4 339/1/4 341/1/4
f 342/1/4 343/1/4 344/1/4
f 344/1/4 343/1/4 345/1/4
f 349/1/5 347/1/5 346/1/5
f 353/1/5 349/1/5 348/1/5
f 354/1/5 347/1/5 349/1/5
f 354/1/5 349/1/5 353/1/5
f 356/1/5 351/1/5 350/1/5
f 357/1/5 351/1/5 356/1/5
f 359/2/5 355/2/5 354/2/5
f 359/6/5 354/6/5 353/6/5
f 360/9/5 356/9/5 355/9/5
f 360/2/5 355/2/5 359/2/5
f 361/1/5 358/1/5 357/1/5
f 361/9/5 356/9/5 360/9/5
f 361/1/5 357/1/5 356/1/5
f 362/6/5 360/6/5 359/6/5
f 362/6/5 361/6/5 360/6/5
f 363/6/5 361/6/5 362/6/5
f 364/1/5 358/1/5 361/1/5
f 364/6/5 361/6/5 363/6/5
f 365/1/5 358/1/5 364/1/5
f 366/1/5 358/1/5 365/1/5
f 367/7/5 363/7/5 362/7/5
f 367/6/5 362/6/5 359/6/5
f 368/5/5 364/5/5 363/5/5
f 368/7/5 363/7/5 367/7/5
f 369/1/5 365/1/5 364/1/5
f 369/5/5 364/5/5 368/5/5
f 370/1/5 365/1/5 369/1/5
f 371/9/5 368/9/5 367/9/5
f 371/6/5 367/6/5 359/6/5
f 372/9/5 368/9/5 371/9/5
f 375/6/5 371/6/5 359/6/5
f 375/7/5 372/7/5 371/7/5
f 376/5/5 373/5/5 372/5/5
f 376/7/5 372/7/5 375/7/5
f 377/1/5 374/1/5 373/1/5
f 377/5/5 373/5/5 376/5/5
f 378/1/5 374/1/5 377/1/5
f 380/6/5 359/6/5 353/6/5
f 380/6/5 376/6/5 375/6/5
f 380/6/5 377/6/5 376/6/5
f 380/6/5 375/6/5 359/6/5
f 381/1/5 379/1/5 378/1/5
f 381/6/5 377/6/5 380/6/5
f 381/1/5 378/1/5 377/1/5
f 382/2/5 353/2/5 352/2/5
f 383/6/5 380/6/5 353/6/5
f 383/2/5 353/2/5 382/2/5
f 384/2/5 381/2/5 380/2/5
f 384/6/5 380/6/5 383/6/5
f 385/1/5 379/1/5 381/1/5
f 385/2/5 381/2/5 384/2/5
f 386/1/5 379/1/5 385/1/5
f 387/1/5 379/1/5 386/1/5
f 388/1/5 384/1/5 383/1/5
f 389/1/5 384/1/5 388/1/5
f 390/1/5 386/1/5 385/1/5
f 391/1/5 386/1/5 390/1/5
f 392/1/5 384/1/5 389/1/5
f 393/1/5 384/1/5 392/1/5
f 396/2/5 395/2/5 394/2/5
f 397/2/5 395/2/5 396/2/5
f 398/9/5 397/9/5 396/9/5
f 399/9/5 397/9/5 398/9/5
f 402/2/5 401/2/5 400/2/5
f 403/2/5 401/2/5 402/2/5
f 404/2/5 401/2/5 403/2/5
f 405/9/5 404/9/5 403/9/5
f 406/9/5 404/9/5 405/9/5
f 407/1/6 408/1/6 410/1/6
f 409/1/6 410/1/6 413/1/6
f 410/1/6 408/1/6 414/1/6
f 413/1/6 410/1/6 414/1/6
f 411/1/6 412/1/6 415/1/6
f 415/1/6 412/1/6 416/1/6
f 416/1/6 417/1/6 418/1/6
f 415/1/6 416/1/6 418/1/6
f 418/1/6 417/1/6 419/1/6
f 419/1/6 417/1/6 420/1/6
f 418/1/6 419/1/6 421/1/6
f 421/1/6 419/1/6 422/1/6
f 423/1/6 424/1/6 425/1/6
f 423/1/6 425/1/6 427/1/6
f 425/1/6 426/1/6 427/1/6
f 427/1/6 426/1/6 430/1/6
f 430/1/6 426/1/6 431/1/6
f 431/1/6 426/1/6 432/1/6
f 428/1/6 429/1/6 433/1/6
f 433/1/6 429/1/6 434/1/6
f 430/1/6 431/1/6 435/1/6
f 435/1/6 431/1/6 436/1/6
f 434/1/6 429/1/6 437/1/6
f 437/1/6 429/1/6 438/1/6
f 439/2/6 440/2/6 441/2/6
f 441/2/6 440/2/6 442/2/6
f 441/3/6 442/3/6 443/3/6
f 441/3/6 443/3/6 444/3/6
f 441/3/6 444/3/6 445/3/6
f 445/3/6 444/3/6 446/3/6
f 445/2/6 446/2/6 447/2/6
f 447/2/6 446/2/6 448/2/6
f 449/2/6 450/2/6 451/2/6
f 451/2/6 450/2/6 452/2/6
f 451/3/6 452/3/6 453/3/6
f 452/2/6 450/2/6 454/2/6
f 453/3/6 452/3/6 454/3/6
f 453/2/6 454/2/6 455/2/6
f 454/2/6 450/2/6 456/2/6
f 455/2/6 454/2/6 456/2/6
f 455/3/6 456/3/6 457/3/6
f 457/3/6 456/3/6 458/3/6
f 457/2/6 458/2/6 459/2/6
f 459/2/6 458/2/6 460/2/6
f 461/2/6 462/2/6 463/2/6
f 463/2/6 462/2/6 464/2/6
f 463/3/6 464/3/6 465/3/6
f 465/3/6 464/3/6 466/3/6
f 465/2/6 466/2/6 467/2/6
f 467/2/6 466/2/6 468/2/6
f 469/2/6 470/2/6 471/2/6
f 471/2/6 470/2/6 472/2/6
f 469/2/6 471/2/6 473/2/6
f 471/3/6 472/3/6 474/3/6
f 473/2/6 471/2/6 474/2/6
f 474/3/6 472/3/6 475/3/6
f 477/3/6 478/3/6 480/3/6
f 480/3/6 478/3/6 481/3/6
f 478/2/6 479/2/6 482/2/6
f 481/3/6 478/3/6 482/3/6
f 482/2/6 479/2/6 483/2/6
f 476/2/6 477/2/6 484/2/6
f 477/3/6 480/3/6 484/3/6
f 484/3/6 480/3/6 485/3/6
f 476/2/6 484/2/6 486/2/6
f 484/2/6 485/2/6 486/2/6
f 486/2/6 485/2/6 487/2/6
f 486/3/6 487/3/6 488/3/6
f 486/3/6 488/3/6 493/3/6
f 488/3/6 489/3/6 493/3/6
f 491/2/6 492/2/6 494/2/6
f 493/3/6 489/3/6 494/3/6
f 490/2/6 491/2/6 494/2/6
f 489/2/6 490/2/6 494/2/6
f 494/2/6 492/2/6 495/2/6
f 496/2/6 497/2/6 500/2/6
f 500/2/6 497/2/6 501/2/6
f 500/3/6 501/3/6 502/3/6
f 502/3/6 501/3/6 503/3/6
f 498/2/6 499/2/6 504/2/6
f 504/2/6 499/2/6 505/2/6
f 506/2/6 507/2/6 509/2/6
f 507/9/6 508/9/6 510/9/6
f 509/2/6 507/2/6 510/2/6
f 510/9/6 508/9/6 511/9/6
f 512/3/6 513/3/6 514/3/6
f 514/3/6 513/3/6 515/3/6
f 515/3/6 513/3/6 516/3/6
f 514/2/6 515/2/6 517/2/6
f 515/9/6 516/9/6 518/9/6
f 517/2/6 515/2/6 518/2/6
f 518/9/6 516/9/6 519/9/6
f 520/2/6 521/2/6 523/2/6
f 521/9/6 522/9/6 524/9/6
f 523/2/6 521/2/6 524/2/6
f 523/3/6 524/3/6 525/3/6
f 524/9/6 522/9/6 526/9/6
f 525/3/6 524/3/6 526/3/6
f 526/9/6 522/9/6 527/9/6
