# MagicaVoxel @ Ephtracy

# group
o 

# material
mtllib LizardDarkGreenObj.mtl
usemtl palette

# normals
vn -1 0 0
vn 1 0 0
vn 0 0 1
vn 0 0 -1
vn 0 -1 0
vn 0 1 0

# texcoords
vt 0.314453 0.5
vt 0.349609 0.5
vt 0.974609 0.5
vt 0.994141 0.5

# verts
v -1.2 0.5 0.2
v -1.2 0.5 0.1
v -1.2 0.6 0.2
v -1.2 0.6 0.1
v -0.9 0.4 0.2
v -0.9 0.4 0.1
v -0.9 0.5 0.2
v -0.9 0.5 0.1
v -0.8 0.4 0.3
v -0.8 0.4 0.2
v -0.8 0.5 0.4
v -0.8 0.5 0.3
v -0.8 0.6 0.4
v -0.8 0.6 0.2
v -0.6 0.4 0.4
v -0.6 0.4 0.3
v -0.6 0.5 0.4
v -0.6 0.5 0.3
v -0.5 0 0.9
v -0.5 0 0.7
v -0.5 0 -0.1
v -0.5 0 -0.3
v -0.5 0.1 0.9
v -0.5 0.1 0.8
v -0.5 0.1 0.7
v -0.5 0.1 0.6
v -0.5 0.1 0
v -0.5 0.1 -0.1
v -0.5 0.1 -0.2
v -0.5 0.1 -0.3
v -0.5 0.2 0.8
v -0.5 0.2 0.7
v -0.5 0.2 -0.1
v -0.5 0.2 -0.2
v -0.5 0.3 0.7
v -0.5 0.3 0.6
v -0.5 0.3 0
v -0.5 0.3 -0.1
v -0.4 0.2 0.6
v -0.4 0.2 0.5
v -0.4 0.2 0.1
v -0.4 0.2 0
v -0.4 0.3 0.6
v -0.4 0.3 0.5
v -0.4 0.3 0.1
v -0.4 0.3 0
v -0.4 0.4 0.4
v -0.4 0.4 0.2
v -0.4 0.4 0.1
v -0.4 0.5 0.1
v -0.4 0.5 0
v -0.4 0.6 0.4
v -0.4 0.6 0.2
v -0.4 0.6 0.1
v -0.4 0.7 0.6
v -0.4 0.7 0.1
v -0.4 0.7 0
v 0.5 0.7 0.6
v 0.5 0.7 0.5
v 0.5 0.7 0
v 0.5 0.9 0.6
v 0.5 0.9 0
v 0.6 0.2 0.6
v 0.6 0.2 0.5
v 0.6 0.2 0.1
v 0.6 0.2 0
v 0.6 0.3 0.6
v 0.6 0.3 0.5
v 0.6 0.3 0.1
v 0.6 0.3 0
v 0.7 0 0.9
v 0.7 0 0.7
v 0.7 0 -0.1
v 0.7 0 -0.3
v 0.7 0.1 0.9
v 0.7 0.1 0.8
v 0.7 0.1 0.7
v 0.7 0.1 0.6
v 0.7 0.1 0
v 0.7 0.1 -0.1
v 0.7 0.1 -0.2
v 0.7 0.1 -0.3
v 0.7 0.2 0.8
v 0.7 0.2 0.7
v 0.7 0.2 0.6
v 0.7 0.2 0
v 0.7 0.2 -0.1
v 0.7 0.2 -0.2
v 0.7 0.3 0.7
v 0.7 0.3 0.6
v 0.7 0.3 0
v 0.7 0.3 -0.1
v 0.9 0.6 0.3
v 0.9 0.6 0.2
v 0.9 0.7 0.3
v 0.9 0.7 0.2
v 1 0.6 0.2
v 1 0.6 0.1
v 1 0.7 0.2
v 1 0.7 0.1
v 1.2 0.6 0.3
v 1.2 0.6 0.2
v 1.2 0.7 0.3
v 1.2 0.7 0.2
v 1.3 0.6 0.4
v 1.3 0.6 0.3
v 1.3 0.7 0.4
v 1.3 0.7 0.3
v -0.4 0 0.9
v -0.4 0 0.8
v -0.4 0 -0.2
v -0.4 0 -0.3
v -0.4 0.1 0.9
v -0.4 0.1 0.8
v -0.4 0.1 0.7
v -0.4 0.1 0.6
v -0.4 0.1 0
v -0.4 0.1 -0.1
v -0.4 0.1 -0.2
v -0.4 0.1 -0.3
v -0.4 0.2 0.8
v -0.4 0.2 0.7
v -0.4 0.2 0.6
v -0.4 0.2 0
v -0.4 0.2 -0.1
v -0.4 0.2 -0.2
v -0.3 0 0.8
v -0.3 0 0.7
v -0.3 0 -0.1
v -0.3 0 -0.2
v -0.3 0.1 0.8
v -0.3 0.1 0.7
v -0.3 0.1 -0.1
v -0.3 0.1 -0.2
v -0.3 0.2 0.7
v -0.3 0.2 0.5
v -0.3 0.2 0.1
v -0.3 0.2 -0.1
v -0.3 0.3 0.7
v -0.3 0.3 0.6
v -0.3 0.3 0.5
v -0.3 0.3 0.1
v -0.3 0.3 0
v -0.3 0.3 -0.1
v 0.7 0.2 0.6
v 0.7 0.2 0.5
v 0.7 0.2 0.1
v 0.7 0.2 0
v 0.7 0.3 0.6
v 0.7 0.3 0.5
v 0.7 0.3 0.1
v 0.7 0.3 0
v 0.7 0.5 0.6
v 0.7 0.5 0
v 0.8 0 0.9
v 0.8 0 0.8
v 0.8 0 -0.2
v 0.8 0 -0.3
v 0.8 0.1 0.9
v 0.8 0.1 0.8
v 0.8 0.1 0.7
v 0.8 0.1 0.6
v 0.8 0.1 0
v 0.8 0.1 -0.1
v 0.8 0.1 -0.2
v 0.8 0.1 -0.3
v 0.8 0.2 0.8
v 0.8 0.2 0.7
v 0.8 0.2 -0.1
v 0.8 0.2 -0.2
v 0.8 0.3 0.7
v 0.8 0.3 0.6
v 0.8 0.3 0
v 0.8 0.3 -0.1
v 0.8 0.5 0.6
v 0.8 0.5 0
v 0.8 0.6 0.4
v 0.8 0.6 0.3
v 0.8 0.7 0.6
v 0.8 0.7 0.5
v 0.8 0.7 0.4
v 0.8 0.7 0.3
v 0.8 0.7 0.1
v 0.8 0.7 0
v 0.8 0.8 0.6
v 0.8 0.8 0.5
v 0.8 0.8 0.1
v 0.8 0.8 0
v 0.8 0.9 0.6
v 0.8 0.9 0
v 0.9 0 0.8
v 0.9 0 0.7
v 0.9 0 -0.1
v 0.9 0 -0.2
v 0.9 0.1 0.8
v 0.9 0.1 0.7
v 0.9 0.1 -0.1
v 0.9 0.1 -0.2
v 1 0.6 0.4
v 1 0.6 0.3
v 1 0.7 0.4
v 1 0.7 0.3
v 1.1 0.6 0.3
v 1.1 0.6 0.2
v 1.1 0.7 0.3
v 1.1 0.7 0.2
v 1.3 0.6 0.2
v 1.3 0.6 0.1
v 1.3 0.7 0.2
v 1.3 0.7 0.1
v 1.4 0.6 0.4
v 1.4 0.6 0.2
v 1.4 0.7 0.4
v 1.4 0.7 0.2
v -0.5 0 0.9
v -0.5 0.1 0.9
v -0.4 0 0.9
v -0.4 0.1 0.9
v 0.7 0 0.9
v 0.7 0.1 0.9
v 0.8 0 0.9
v 0.8 0.1 0.9
v -0.5 0.1 0.8
v -0.5 0.2 0.8
v -0.4 0 0.8
v -0.4 0.1 0.8
v -0.4 0.2 0.8
v -0.3 0 0.8
v -0.3 0.1 0.8
v 0.7 0.1 0.8
v 0.7 0.2 0.8
v 0.8 0 0.8
v 0.8 0.1 0.8
v 0.8 0.2 0.8
v 0.9 0 0.8
v 0.9 0.1 0.8
v -0.5 0.2 0.7
v -0.5 0.3 0.7
v -0.4 0.2 0.7
v -0.3 0.2 0.7
v -0.3 0.3 0.7
v 0.7 0.2 0.7
v 0.7 0.3 0.7
v 0.8 0.2 0.7
v 0.8 0.3 0.7
v -0.4 0.3 0.6
v -0.4 0.7 0.6
v -0.3 0.3 0.6
v -0.3 0.7 0.6
v -0.2 0.3 0.6
v -0.2 0.7 0.6
v 0.2 0.6 0.6
v 0.2 0.7 0.6
v 0.5 0.6 0.6
v 0.5 0.7 0.6
v 0.5 0.9 0.6
v 0.6 0.2 0.6
v 0.6 0.3 0.6
v 0.7 0.2 0.6
v 0.7 0.3 0.6
v 0.7 0.5 0.6
v 0.7 0.7 0.6
v 0.7 0.8 0.6
v 0.8 0.5 0.6
v 0.8 0.7 0.6
v 0.8 0.8 0.6
v 0.8 0.9 0.6
v -0.8 0.5 0.4
v -0.8 0.6 0.4
v -0.6 0.4 0.4
v -0.6 0.5 0.4
v -0.4 0.4 0.4
v -0.4 0.6 0.4
v 0.8 0.6 0.4
v 0.8 0.7 0.4
v 1 0.6 0.4
v 1 0.7 0.4
v 1.3 0.6 0.4
v 1.3 0.7 0.4
v 1.4 0.6 0.4
v 1.4 0.7 0.4
v -0.8 0.4 0.3
v -0.8 0.5 0.3
v -0.6 0.4 0.3
v -0.6 0.5 0.3
v 1 0.6 0.3
v 1 0.7 0.3
v 1.1 0.6 0.3
v 1.1 0.7 0.3
v 1.2 0.6 0.3
v 1.2 0.7 0.3
v 1.3 0.6 0.3
v 1.3 0.7 0.3
v -1.2 0.5 0.2
v -1.2 0.6 0.2
v -0.9 0.4 0.2
v -0.9 0.5 0.2
v -0.8 0.4 0.2
v -0.8 0.6 0.2
v 1.1 0.6 0.2
v 1.1 0.7 0.2
v 1.2 0.6 0.2
v 1.2 0.7 0.2
v -0.4 0.2 0.1
v -0.4 0.3 0.1
v -0.3 0.2 0.1
v -0.3 0.3 0.1
v 0.6 0.2 0.1
v 0.6 0.3 0.1
v 0.7 0.2 0.1
v 0.7 0.3 0.1
v -0.5 0.1 0
v -0.5 0.3 0
v -0.4 0.1 0
v -0.4 0.2 0
v -0.4 0.3 0
v 0.7 0.1 0
v 0.7 0.2 0
v 0.7 0.3 0
v 0.8 0.1 0
v 0.8 0.3 0
v -0.5 0 -0.1
v -0.5 0.1 -0.1
v -0.4 0.1 -0.1
v -0.3 0 -0.1
v -0.3 0.1 -0.1
v 0.7 0 -0.1
v 0.7 0.1 -0.1
v 0.8 0.1 -0.1
v 0.9 0 -0.1
v 0.9 0.1 -0.1
v -0.5 0 0.7
v -0.5 0.1 0.7
v -0.4 0.1 0.7
v -0.3 0 0.7
v -0.3 0.1 0.7
v 0.7 0 0.7
v 0.7 0.1 0.7
v 0.8 0.1 0.7
v 0.9 0 0.7
v 0.9 0.1 0.7
v -0.5 0.1 0.6
v -0.5 0.3 0.6
v -0.4 0.1 0.6
v -0.4 0.2 0.6
v -0.4 0.3 0.6
v 0.7 0.1 0.6
v 0.7 0.2 0.6
v 0.7 0.3 0.6
v 0.8 0.1 0.6
v 0.8 0.3 0.6
v -0.4 0.2 0.5
v -0.4 0.3 0.5
v -0.3 0.2 0.5
v -0.3 0.3 0.5
v 0.6 0.2 0.5
v 0.6 0.3 0.5
v 0.7 0.2 0.5
v 0.7 0.3 0.5
v 0.8 0.6 0.3
v 0.8 0.7 0.3
v 0.9 0.6 0.3
v 0.9 0.7 0.3
v 0.9 0.6 0.2
v 0.9 0.7 0.2
v 1 0.6 0.2
v 1 0.7 0.2
v 1.3 0.6 0.2
v 1.3 0.7 0.2
v 1.4 0.6 0.2
v 1.4 0.7 0.2
v -1.2 0.5 0.1
v -1.2 0.6 0.1
v -0.9 0.4 0.1
v -0.9 0.5 0.1
v -0.5 0.4 0.1
v -0.5 0.6 0.1
v -0.4 0.4 0.1
v -0.4 0.5 0.1
v -0.4 0.6 0.1
v 1 0.6 0.1
v 1 0.7 0.1
v 1.3 0.6 0.1
v 1.3 0.7 0.1
v -0.4 0.3 0
v -0.4 0.5 0
v -0.4 0.7 0
v -0.3 0.3 0
v -0.3 0.5 0
v -0.3 0.7 0
v 0.1 0.6 0
v 0.1 0.7 0
v 0.2 0.5 0
v 0.2 0.6 0
v 0.2 0.7 0
v 0.3 0.4 0
v 0.3 0.5 0
v 0.3 0.6 0
v 0.4 0.3 0
v 0.4 0.4 0
v 0.4 0.5 0
v 0.5 0.3 0
v 0.5 0.4 0
v 0.5 0.7 0
v 0.5 0.9 0
v 0.6 0.2 0
v 0.6 0.3 0
v 0.7 0.2 0
v 0.7 0.3 0
v 0.7 0.5 0
v 0.7 0.7 0
v 0.7 0.8 0
v 0.8 0.5 0
v 0.8 0.7 0
v 0.8 0.8 0
v 0.8 0.9 0
v -0.5 0.2 -0.1
v -0.5 0.3 -0.1
v -0.4 0.2 -0.1
v -0.3 0.2 -0.1
v -0.3 0.3 -0.1
v 0.7 0.2 -0.1
v 0.7 0.3 -0.1
v 0.8 0.2 -0.1
v 0.8 0.3 -0.1
v -0.5 0.1 -0.2
v -0.5 0.2 -0.2
v -0.4 0 -0.2
v -0.4 0.1 -0.2
v -0.4 0.2 -0.2
v -0.3 0 -0.2
v -0.3 0.1 -0.2
v 0.7 0.1 -0.2
v 0.7 0.2 -0.2
v 0.8 0 -0.2
v 0.8 0.1 -0.2
v 0.8 0.2 -0.2
v 0.9 0 -0.2
v 0.9 0.1 -0.2
v -0.5 0 -0.3
v -0.5 0.1 -0.3
v -0.4 0 -0.3
v -0.4 0.1 -0.3
v 0.7 0 -0.3
v 0.7 0.1 -0.3
v 0.8 0 -0.3
v 0.8 0.1 -0.3
v -0.5 0 0.9
v -0.4 0 0.9
v 0.7 0 0.9
v 0.8 0 0.9
v -0.4 0 0.8
v -0.3 0 0.8
v 0.8 0 0.8
v 0.9 0 0.8
v -0.5 0 0.7
v -0.3 0 0.7
v 0.7 0 0.7
v 0.9 0 0.7
v -0.5 0 -0.1
v -0.3 0 -0.1
v 0.7 0 -0.1
v 0.9 0 -0.1
v -0.4 0 -0.2
v -0.3 0 -0.2
v 0.8 0 -0.2
v 0.9 0 -0.2
v -0.5 0 -0.3
v -0.4 0 -0.3
v 0.7 0 -0.3
v 0.8 0 -0.3
v -0.5 0.1 0.7
v -0.4 0.1 0.7
v 0.7 0.1 0.7
v 0.8 0.1 0.7
v -0.5 0.1 0.6
v -0.4 0.1 0.6
v 0.7 0.1 0.6
v 0.8 0.1 0.6
v -0.5 0.1 0
v -0.4 0.1 0
v 0.7 0.1 0
v 0.8 0.1 0
v -0.5 0.1 -0.1
v -0.4 0.1 -0.1
v 0.7 0.1 -0.1
v 0.8 0.1 -0.1
v -0.4 0.2 0.7
v -0.3 0.2 0.7
v -0.4 0.2 0.6
v 0.6 0.2 0.6
v 0.7 0.2 0.6
v -0.4 0.2 0.5
v -0.3 0.2 0.5
v 0.6 0.2 0.5
v 0.7 0.2 0.5
v -0.4 0.2 0.1
v -0.3 0.2 0.1
v 0.6 0.2 0.1
v 0.7 0.2 0.1
v -0.4 0.2 0
v 0.6 0.2 0
v 0.7 0.2 0
v -0.4 0.2 -0.1
v -0.3 0.2 -0.1
v -0.3 0.3 0.6
v -0.2 0.3 0.6
v 0.6 0.3 0.6
v -0.4 0.3 0.5
v -0.3 0.3 0.5
v -0.2 0.3 0.5
v 0.6 0.3 0.5
v 0.7 0.3 0.5
v -0.4 0.3 0.1
v -0.3 0.3 0.1
v 0.4 0.3 0.1
v 0.5 0.3 0.1
v 0.6 0.3 0.1
v 0.7 0.3 0.1
v -0.3 0.3 0
v 0.4 0.3 0
v 0.5 0.3 0
v 0.6 0.3 0
v -0.6 0.4 0.4
v -0.4 0.4 0.4
v -0.8 0.4 0.3
v -0.6 0.4 0.3
v -0.9 0.4 0.2
v -0.8 0.4 0.2
v -0.5 0.4 0.2
v -0.4 0.4 0.2
v -0.9 0.4 0.1
v -0.5 0.4 0.1
v -0.4 0.4 0.1
v 0.7 0.5 0.6
v 0.8 0.5 0.6
v -0.8 0.5 0.4
v -0.6 0.5 0.4
v -0.8 0.5 0.3
v -0.6 0.5 0.3
v -1.2 0.5 0.2
v -0.9 0.5 0.2
v -1.2 0.5 0.1
v -0.9 0.5 0.1
v 0.7 0.5 0
v 0.8 0.5 0
v 0.8 0.6 0.4
v 1 0.6 0.4
v 1.3 0.6 0.4
v 1.4 0.6 0.4
v 0.8 0.6 0.3
v 0.9 0.6 0.3
v 1 0.6 0.3
v 1.1 0.6 0.3
v 1.2 0.6 0.3
v 1.3 0.6 0.3
v 0.9 0.6 0.2
v 1 0.6 0.2
v 1.1 0.6 0.2
v 1.2 0.6 0.2
v 1.3 0.6 0.2
v 1.4 0.6 0.2
v 1 0.6 0.1
v 1.3 0.6 0.1
v -0.5 0.1 0.9
v -0.4 0.1 0.9
v 0.7 0.1 0.9
v 0.8 0.1 0.9
v -0.5 0.1 0.8
v -0.4 0.1 0.8
v -0.3 0.1 0.8
v 0.7 0.1 0.8
v 0.8 0.1 0.8
v 0.9 0.1 0.8
v -0.4 0.1 0.7
v -0.3 0.1 0.7
v 0.8 0.1 0.7
v 0.9 0.1 0.7
v -0.4 0.1 -0.1
v -0.3 0.1 -0.1
v 0.8 0.1 -0.1
v 0.9 0.1 -0.1
v -0.5 0.1 -0.2
v -0.4 0.1 -0.2
v -0.3 0.1 -0.2
v 0.7 0.1 -0.2
v 0.8 0.1 -0.2
v 0.9 0.1 -0.2
v -0.5 0.1 -0.3
v -0.4 0.1 -0.3
v 0.7 0.1 -0.3
v 0.8 0.1 -0.3
v -0.5 0.2 0.8
v -0.4 0.2 0.8
v 0.7 0.2 0.8
v 0.8 0.2 0.8
v -0.5 0.2 0.7
v -0.4 0.2 0.7
v 0.7 0.2 0.7
v 0.8 0.2 0.7
v -0.5 0.2 -0.1
v -0.4 0.2 -0.1
v 0.7 0.2 -0.1
v 0.8 0.2 -0.1
v -0.5 0.2 -0.2
v -0.4 0.2 -0.2
v 0.7 0.2 -0.2
v 0.8 0.2 -0.2
v -0.5 0.3 0.7
v -0.3 0.3 0.7
v 0.7 0.3 0.7
v 0.8 0.3 0.7
v -0.5 0.3 0.6
v -0.4 0.3 0.6
v -0.3 0.3 0.6
v 0.7 0.3 0.6
v 0.8 0.3 0.6
v -0.5 0.3 0
v -0.4 0.3 0
v -0.3 0.3 0
v 0.7 0.3 0
v 0.8 0.3 0
v -0.5 0.3 -0.1
v -0.3 0.3 -0.1
v 0.7 0.3 -0.1
v 0.8 0.3 -0.1
v -0.8 0.6 0.4
v -0.4 0.6 0.4
v -1.2 0.6 0.2
v -0.8 0.6 0.2
v -0.5 0.6 0.2
v -0.4 0.6 0.2
v -1.2 0.6 0.1
v -0.5 0.6 0.1
v -0.4 0.6 0.1
v -0.4 0.7 0.6
v -0.3 0.7 0.6
v -0.2 0.7 0.6
v 0.2 0.7 0.6
v 0.5 0.7 0.6
v -0.3 0.7 0.5
v -0.2 0.7 0.5
v -0.0999999 0.7 0.5
v 1.19209e-07 0.7 0.5
v 0.2 0.7 0.5
v 0.5 0.7 0.5
v -0.2 0.7 0.4
v -0.0999999 0.7 0.4
v 1.19209e-07 0.7 0.4
v 0.2 0.7 0.4
v 0.8 0.7 0.4
v 1 0.7 0.4
v 1.3 0.7 0.4
v 1.4 0.7 0.4
v -0.0999999 0.7 0.3
v 1.19209e-07 0.7 0.3
v 0.8 0.7 0.3
v 0.9 0.7 0.3
v 1 0.7 0.3
v 1.1 0.7 0.3
v 1.2 0.7 0.3
v 1.3 0.7 0.3
v -0.3 0.7 0.2
v -0.0999999 0.7 0.2
v 1.19209e-07 0.7 0.2
v 0.9 0.7 0.2
v 1 0.7 0.2
v 1.1 0.7 0.2
v 1.2 0.7 0.2
v 1.3 0.7 0.2
v 1.4 0.7 0.2
v -0.4 0.7 0.1
v -0.3 0.7 0.1
v -0.0999999 0.7 0.1
v 0.1 0.7 0.1
v 0.2 0.7 0.1
v 1 0.7 0.1
v 1.3 0.7 0.1
v -0.4 0.7 0
v -0.3 0.7 0
v 0.1 0.7 0
v 0.2 0.7 0
v 0.5 0.7 0
v 0.5 0.9 0.6
v 0.8 0.9 0.6
v 0.5 0.9 0
v 0.8 0.9 0

# faces
f 3/3/1 2/3/1 1/3/1
f 4/3/1 2/3/1 3/3/1
f 7/3/1 6/3/1 5/3/1
f 8/3/1 6/3/1 7/3/1
f 12/3/1 10/3/1 9/3/1
f 13/3/1 12/3/1 11/3/1
f 14/3/1 10/3/1 12/3/1
f 14/3/1 12/3/1 13/3/1
f 17/3/1 16/3/1 15/3/1
f 18/3/1 16/3/1 17/3/1
f 23/3/1 20/3/1 19/3/1
f 24/3/1 20/3/1 23/3/1
f 25/3/1 20/3/1 24/3/1
f 28/3/1 22/3/1 21/3/1
f 29/3/1 22/3/1 28/3/1
f 30/3/1 22/3/1 29/3/1
f 31/3/1 26/3/1 25/3/1
f 31/3/1 25/3/1 24/3/1
f 32/3/1 26/3/1 31/3/1
f 33/3/1 29/3/1 28/3/1
f 33/3/1 28/3/1 27/3/1
f 34/3/1 29/3/1 33/3/1
f 35/3/1 26/3/1 32/3/1
f 36/3/1 26/3/1 35/3/1
f 37/3/1 33/3/1 27/3/1
f 38/3/1 33/3/1 37/3/1
f 43/3/1 40/3/1 39/3/1
f 44/3/1 40/3/1 43/3/1
f 45/3/1 42/3/1 41/3/1
f 46/3/1 42/3/1 45/3/1
f 47/3/1 44/3/1 43/3/1
f 47/3/1 45/3/1 44/3/1
f 47/3/1 46/3/1 45/3/1
f 48/3/1 46/3/1 47/3/1
f 49/3/1 46/3/1 48/3/1
f 50/3/1 46/3/1 49/3/1
f 51/3/1 46/3/1 50/3/1
f 52/3/1 47/3/1 43/3/1
f 54/1/1 51/1/1 50/1/1
f 55/3/1 53/3/1 52/3/1
f 55/3/1 54/3/1 53/3/1
f 55/3/1 52/3/1 43/3/1
f 56/1/1 51/1/1 54/1/1
f 56/3/1 54/3/1 55/3/1
f 57/1/1 51/1/1 56/1/1
f 61/3/1 59/3/1 58/3/1
f 61/3/1 60/3/1 59/3/1
f 62/3/1 60/3/1 61/3/1
f 67/3/1 64/3/1 63/3/1
f 68/3/1 64/3/1 67/3/1
f 69/3/1 66/3/1 65/3/1
f 70/3/1 66/3/1 69/3/1
f 75/3/1 72/3/1 71/3/1
f 76/3/1 72/3/1 75/3/1
f 77/3/1 72/3/1 76/3/1
f 80/3/1 74/3/1 73/3/1
f 81/3/1 74/3/1 80/3/1
f 82/3/1 74/3/1 81/3/1
f 83/3/1 78/3/1 77/3/1
f 83/3/1 77/3/1 76/3/1
f 84/3/1 78/3/1 83/3/1
f 85/3/1 78/3/1 84/3/1
f 86/3/1 81/3/1 80/3/1
f 86/3/1 80/3/1 79/3/1
f 87/3/1 81/3/1 86/3/1
f 88/3/1 81/3/1 87/3/1
f 89/3/1 85/3/1 84/3/1
f 90/3/1 85/3/1 89/3/1
f 91/3/1 87/3/1 86/3/1
f 92/3/1 87/3/1 91/3/1
f 95/2/1 94/2/1 93/2/1
f 96/2/1 94/2/1 95/2/1
f 99/2/1 98/2/1 97/2/1
f 100/2/1 98/2/1 99/2/1
f 103/2/1 102/2/1 101/2/1
f 104/2/1 102/2/1 103/2/1
f 107/2/1 106/2/1 105/2/1
f 108/2/1 106/2/1 107/2/1
f 109/3/2 110/3/2 113/3/2
f 113/3/2 110/3/2 114/3/2
f 111/3/2 112/3/2 119/3/2
f 119/3/2 112/3/2 120/3/2
f 114/3/2 115/3/2 121/3/2
f 115/3/2 116/3/2 121/3/2
f 121/3/2 116/3/2 122/3/2
f 122/3/2 116/3/2 123/3/2
f 117/3/2 118/3/2 124/3/2
f 118/3/2 119/3/2 124/3/2
f 124/3/2 119/3/2 125/3/2
f 125/3/2 119/3/2 126/3/2
f 127/3/2 128/3/2 131/3/2
f 131/3/2 128/3/2 132/3/2
f 129/3/2 130/3/2 133/3/2
f 133/3/2 130/3/2 134/3/2
f 135/3/2 136/3/2 139/3/2
f 139/3/2 136/3/2 140/3/2
f 140/3/2 136/3/2 141/3/2
f 137/3/2 138/3/2 142/3/2
f 142/3/2 138/3/2 143/3/2
f 143/3/2 138/3/2 144/3/2
f 145/3/2 146/3/2 149/3/2
f 149/3/2 146/3/2 150/3/2
f 147/3/2 148/3/2 151/3/2
f 151/3/2 148/3/2 152/3/2
f 149/3/2 150/3/2 153/3/2
f 150/3/2 151/3/2 153/3/2
f 151/3/2 152/3/2 153/3/2
f 153/3/2 152/3/2 154/3/2
f 155/3/2 156/3/2 159/3/2
f 159/3/2 156/3/2 160/3/2
f 157/3/2 158/3/2 165/3/2
f 165/3/2 158/3/2 166/3/2
f 160/3/2 161/3/2 167/3/2
f 161/3/2 162/3/2 167/3/2
f 167/3/2 162/3/2 168/3/2
f 163/3/2 164/3/2 169/3/2
f 164/3/2 165/3/2 169/3/2
f 169/3/2 165/3/2 170/3/2
f 168/3/2 162/3/2 171/3/2
f 171/3/2 162/3/2 172/3/2
f 163/3/2 169/3/2 173/3/2
f 173/3/2 169/3/2 174/3/2
f 175/3/2 176/3/2 177/3/2
f 177/3/2 176/3/2 178/3/2
f 175/3/2 177/3/2 179/3/2
f 179/3/2 177/3/2 180/3/2
f 180/3/2 177/3/2 181/3/2
f 178/3/2 176/3/2 182/3/2
f 182/3/2 176/3/2 183/3/2
f 183/3/2 176/3/2 184/3/2
f 179/4/2 180/4/2 185/4/2
f 180/3/2 181/3/2 186/3/2
f 185/4/2 180/4/2 186/4/2
f 181/3/2 182/3/2 186/3/2
f 182/3/2 183/3/2 186/3/2
f 183/4/2 184/4/2 187/4/2
f 186/3/2 183/3/2 187/3/2
f 187/4/2 184/4/2 188/4/2
f 185/3/2 186/3/2 189/3/2
f 186/3/2 187/3/2 189/3/2
f 187/3/2 188/3/2 189/3/2
f 189/3/2 188/3/2 190/3/2
f 191/3/2 192/3/2 195/3/2
f 195/3/2 192/3/2 196/3/2
f 193/3/2 194/3/2 197/3/2
f 197/3/2 194/3/2 198/3/2
f 199/2/2 200/2/2 201/2/2
f 201/2/2 200/2/2 202/2/2
f 203/2/2 204/2/2 205/2/2
f 205/2/2 204/2/2 206/2/2
f 207/2/2 208/2/2 209/2/2
f 209/2/2 208/2/2 210/2/2
f 211/2/2 212/2/2 213/2/2
f 213/2/2 212/2/2 214/2/2
f 217/3/3 216/3/3 215/3/3
f 218/3/3 216/3/3 217/3/3
f 221/3/3 220/3/3 219/3/3
f 222/3/3 220/3/3 221/3/3
f 226/3/3 224/3/3 223/3/3
f 227/3/3 224/3/3 226/3/3
f 228/3/3 226/3/3 225/3/3
f 229/3/3 226/3/3 228/3/3
f 233/3/3 231/3/3 230/3/3
f 234/3/3 231/3/3 233/3/3
f 235/3/3 233/3/3 232/3/3
f 236/3/3 233/3/3 235/3/3
f 239/3/3 238/3/3 237/3/3
f 240/3/3 238/3/3 239/3/3
f 241/3/3 238/3/3 240/3/3
f 244/3/3 243/3/3 242/3/3
f 245/3/3 243/3/3 244/3/3
f 248/3/3 247/3/3 246/3/3
f 249/3/3 247/3/3 248/3/3
f 250/1/3 249/1/3 248/1/3
f 251/1/3 249/1/3 250/1/3
f 252/3/3 251/3/3 250/3/3
f 253/3/3 251/3/3 252/3/3
f 254/3/3 252/3/3 250/3/3
f 254/1/3 253/1/3 252/1/3
f 255/1/3 253/1/3 254/1/3
f 258/3/3 255/3/3 254/3/3
f 258/3/3 256/3/3 255/3/3
f 258/3/3 254/3/3 250/3/3
f 259/3/3 258/3/3 257/3/3
f 260/3/3 256/3/3 258/3/3
f 260/3/3 258/3/3 259/3/3
f 261/3/3 256/3/3 260/3/3
f 262/3/3 256/3/3 261/3/3
f 263/3/3 256/3/3 262/3/3
f 264/3/3 262/3/3 261/3/3
f 265/4/3 263/4/3 262/4/3
f 265/3/3 262/3/3 264/3/3
f 266/3/3 256/3/3 263/3/3
f 266/4/3 263/4/3 265/4/3
f 267/3/3 256/3/3 266/3/3
f 271/3/3 269/3/3 268/3/3
f 272/3/3 271/3/3 270/3/3
f 273/3/3 269/3/3 271/3/3
f 273/3/3 271/3/3 272/3/3
f 276/2/3 275/2/3 274/2/3
f 277/2/3 275/2/3 276/2/3
f 280/2/3 279/2/3 278/2/3
f 281/2/3 279/2/3 280/2/3
f 284/3/3 283/3/3 282/3/3
f 285/3/3 283/3/3 284/3/3
f 288/2/3 287/2/3 286/2/3
f 289/2/3 287/2/3 288/2/3
f 292/2/3 291/2/3 290/2/3
f 293/2/3 291/2/3 292/2/3
f 297/3/3 295/3/3 294/3/3
f 298/3/3 297/3/3 296/3/3
f 299/3/3 295/3/3 297/3/3
f 299/3/3 297/3/3 298/3/3
f 302/2/3 301/2/3 300/2/3
f 303/2/3 301/2/3 302/2/3
f 306/3/3 305/3/3 304/3/3
f 307/3/3 305/3/3 306/3/3
f 310/3/3 309/3/3 308/3/3
f 311/3/3 309/3/3 310/3/3
f 314/3/3 313/3/3 312/3/3
f 315/3/3 313/3/3 314/3/3
f 316/3/3 313/3/3 315/3/3
f 320/3/3 318/3/3 317/3/3
f 320/3/3 319/3/3 318/3/3
f 321/3/3 319/3/3 320/3/3
f 324/3/3 323/3/3 322/3/3
f 325/3/3 324/3/3 322/3/3
f 326/3/3 324/3/3 325/3/3
f 329/3/3 328/3/3 327/3/3
f 330/3/3 329/3/3 327/3/3
f 331/3/3 329/3/3 330/3/3
f 332/3/4 333/3/4 334/3/4
f 332/3/4 334/3/4 335/3/4
f 335/3/4 334/3/4 336/3/4
f 337/3/4 338/3/4 339/3/4
f 337/3/4 339/3/4 340/3/4
f 340/3/4 339/3/4 341/3/4
f 342/3/4 343/3/4 344/3/4
f 344/3/4 343/3/4 345/3/4
f 345/3/4 343/3/4 346/3/4
f 347/3/4 348/3/4 350/3/4
f 348/3/4 349/3/4 350/3/4
f 350/3/4 349/3/4 351/3/4
f 352/3/4 353/3/4 354/3/4
f 354/3/4 353/3/4 355/3/4
f 356/3/4 357/3/4 358/3/4
f 358/3/4 357/3/4 359/3/4
f 360/2/4 361/2/4 362/2/4
f 362/2/4 361/2/4 363/2/4
f 364/2/4 365/2/4 366/2/4
f 366/2/4 365/2/4 367/2/4
f 368/2/4 369/2/4 370/2/4
f 370/2/4 369/2/4 371/2/4
f 372/3/4 373/3/4 375/3/4
f 374/3/4 375/3/4 376/3/4
f 375/3/4 373/3/4 377/3/4
f 376/3/4 375/3/4 377/3/4
f 376/1/4 377/1/4 378/1/4
f 378/1/4 377/1/4 379/1/4
f 379/1/4 377/1/4 380/1/4
f 381/2/4 382/2/4 383/2/4
f 383/2/4 382/2/4 384/2/4
f 385/3/4 386/3/4 388/3/4
f 386/1/4 387/1/4 389/1/4
f 388/3/4 386/3/4 389/3/4
f 389/1/4 387/1/4 390/1/4
f 388/3/4 389/3/4 391/3/4
f 389/3/4 390/3/4 391/3/4
f 391/3/4 390/3/4 392/3/4
f 388/3/4 391/3/4 393/3/4
f 391/1/4 392/1/4 394/1/4
f 393/3/4 391/3/4 394/3/4
f 394/1/4 392/1/4 395/1/4
f 388/3/4 393/3/4 396/3/4
f 393/1/4 394/1/4 397/1/4
f 396/3/4 393/3/4 397/3/4
f 394/3/4 395/3/4 398/3/4
f 397/1/4 394/1/4 398/1/4
f 388/3/4 396/3/4 399/3/4
f 396/1/4 397/1/4 400/1/4
f 399/3/4 396/3/4 400/3/4
f 397/3/4 398/3/4 401/3/4
f 400/1/4 397/1/4 401/1/4
f 399/1/4 400/1/4 402/1/4
f 400/3/4 401/3/4 403/3/4
f 402/1/4 400/1/4 403/1/4
f 398/3/4 395/3/4 404/3/4
f 403/3/4 401/3/4 404/3/4
f 401/3/4 398/3/4 404/3/4
f 403/3/4 404/3/4 407/3/4
f 404/3/4 405/3/4 407/3/4
f 402/3/4 403/3/4 407/3/4
f 406/3/4 407/3/4 408/3/4
f 407/3/4 405/3/4 409/3/4
f 408/3/4 407/3/4 409/3/4
f 409/3/4 405/3/4 410/3/4
f 410/3/4 405/3/4 411/3/4
f 411/3/4 405/3/4 412/3/4
f 410/3/4 411/3/4 413/3/4
f 411/4/4 412/4/4 414/4/4
f 413/3/4 411/3/4 414/3/4
f 412/3/4 405/3/4 415/3/4
f 414/4/4 412/4/4 415/4/4
f 415/3/4 405/3/4 416/3/4
f 417/3/4 418/3/4 419/3/4
f 419/3/4 418/3/4 420/3/4
f 420/3/4 418/3/4 421/3/4
f 422/3/4 423/3/4 424/3/4
f 424/3/4 423/3/4 425/3/4
f 426/3/4 427/3/4 429/3/4
f 429/3/4 427/3/4 430/3/4
f 428/3/4 429/3/4 431/3/4
f 431/3/4 429/3/4 432/3/4
f 433/3/4 434/3/4 436/3/4
f 436/3/4 434/3/4 437/3/4
f 435/3/4 436/3/4 438/3/4
f 438/3/4 436/3/4 439/3/4
f 440/3/4 441/3/4 442/3/4
f 442/3/4 441/3/4 443/3/4
f 444/3/4 445/3/4 446/3/4
f 446/3/4 445/3/4 447/3/4
f 452/3/5 449/3/5 448/3/5
f 454/3/5 451/3/5 450/3/5
f 456/3/5 453/3/5 452/3/5
f 456/3/5 452/3/5 448/3/5
f 457/3/5 453/3/5 456/3/5
f 458/3/5 455/3/5 454/3/5
f 458/3/5 454/3/5 450/3/5
f 459/3/5 455/3/5 458/3/5
f 464/3/5 461/3/5 460/3/5
f 465/3/5 461/3/5 464/3/5
f 466/3/5 463/3/5 462/3/5
f 467/3/5 463/3/5 466/3/5
f 468/3/5 464/3/5 460/3/5
f 469/3/5 464/3/5 468/3/5
f 470/3/5 466/3/5 462/3/5
f 471/3/5 466/3/5 470/3/5
f 476/3/5 473/3/5 472/3/5
f 477/3/5 473/3/5 476/3/5
f 478/3/5 475/3/5 474/3/5
f 479/3/5 475/3/5 478/3/5
f 484/3/5 481/3/5 480/3/5
f 485/3/5 481/3/5 484/3/5
f 486/3/5 483/3/5 482/3/5
f 487/3/5 483/3/5 486/3/5
f 490/3/5 489/3/5 488/3/5
f 493/3/5 489/3/5 490/3/5
f 494/3/5 489/3/5 493/3/5
f 495/3/5 492/3/5 491/3/5
f 496/3/5 492/3/5 495/3/5
f 501/3/5 498/3/5 497/3/5
f 502/3/5 500/3/5 499/3/5
f 503/3/5 500/3/5 502/3/5
f 504/3/5 498/3/5 501/3/5
f 505/3/5 498/3/5 504/3/5
f 510/1/5 507/1/5 506/1/5
f 511/3/5 508/3/5 507/3/5
f 511/1/5 507/1/5 510/1/5
f 512/3/5 508/3/5 511/3/5
f 514/3/5 510/3/5 509/3/5
f 514/3/5 513/3/5 512/3/5
f 514/3/5 512/3/5 511/3/5
f 514/3/5 511/3/5 510/3/5
f 515/3/5 513/3/5 514/3/5
f 516/3/5 513/3/5 515/3/5
f 517/3/5 513/3/5 516/3/5
f 518/3/5 513/3/5 517/3/5
f 519/3/5 513/3/5 518/3/5
f 520/3/5 516/3/5 515/3/5
f 521/1/5 517/1/5 516/1/5
f 521/3/5 516/3/5 520/3/5
f 522/3/5 518/3/5 517/3/5
f 522/1/5 517/1/5 521/1/5
f 523/3/5 518/3/5 522/3/5
f 527/3/5 525/3/5 524/3/5
f 529/3/5 527/3/5 526/3/5
f 530/3/5 525/3/5 527/3/5
f 530/3/5 527/3/5 529/3/5
f 531/3/5 525/3/5 530/3/5
f 532/3/5 529/3/5 528/3/5
f 532/3/5 530/3/5 529/3/5
f 533/1/5 531/1/5 530/1/5
f 533/3/5 530/3/5 532/3/5
f 534/1/5 531/1/5 533/1/5
f 539/3/5 538/3/5 537/3/5
f 540/3/5 538/3/5 539/3/5
f 543/3/5 542/3/5 541/3/5
f 544/3/5 542/3/5 543/3/5
f 545/3/5 536/3/5 535/3/5
f 546/3/5 536/3/5 545/3/5
f 551/2/5 548/2/5 547/2/5
f 552/2/5 548/2/5 551/2/5
f 553/2/5 548/2/5 552/2/5
f 556/2/5 550/2/5 549/2/5
f 557/2/5 554/2/5 553/2/5
f 557/2/5 553/2/5 552/2/5
f 558/2/5 554/2/5 557/2/5
f 559/2/5 554/2/5 558/2/5
f 560/2/5 556/2/5 555/2/5
f 561/2/5 550/2/5 556/2/5
f 561/2/5 556/2/5 560/2/5
f 562/2/5 550/2/5 561/2/5
f 563/2/5 559/2/5 558/2/5
f 563/2/5 560/2/5 559/2/5
f 563/2/5 561/2/5 560/2/5
f 564/2/5 561/2/5 563/2/5
f 565/3/6 566/3/6 569/3/6
f 569/3/6 566/3/6 570/3/6
f 567/3/6 568/3/6 572/3/6
f 572/3/6 568/3/6 573/3/6
f 570/3/6 571/3/6 575/3/6
f 575/3/6 571/3/6 576/3/6
f 573/3/6 574/3/6 577/3/6
f 577/3/6 574/3/6 578/3/6
f 579/3/6 580/3/6 584/3/6
f 584/3/6 580/3/6 585/3/6
f 581/3/6 582/3/6 587/3/6
f 587/3/6 582/3/6 588/3/6
f 583/3/6 584/3/6 589/3/6
f 589/3/6 584/3/6 590/3/6
f 586/3/6 587/3/6 591/3/6
f 591/3/6 587/3/6 592/3/6
f 593/3/6 594/3/6 597/3/6
f 597/3/6 594/3/6 598/3/6
f 595/3/6 596/3/6 599/3/6
f 599/3/6 596/3/6 600/3/6
f 601/3/6 602/3/6 605/3/6
f 605/3/6 602/3/6 606/3/6
f 603/3/6 604/3/6 607/3/6
f 607/3/6 604/3/6 608/3/6
f 609/3/6 610/3/6 613/3/6
f 613/3/6 610/3/6 614/3/6
f 614/3/6 610/3/6 615/3/6
f 611/3/6 612/3/6 616/3/6
f 616/3/6 612/3/6 617/3/6
f 618/3/6 619/3/6 623/3/6
f 619/3/6 620/3/6 623/3/6
f 623/3/6 620/3/6 624/3/6
f 621/3/6 622/3/6 625/3/6
f 625/3/6 622/3/6 626/3/6
f 627/3/6 628/3/6 630/3/6
f 630/3/6 628/3/6 631/3/6
f 631/3/6 628/3/6 632/3/6
f 629/3/6 630/3/6 633/3/6
f 630/3/6 631/3/6 633/3/6
f 631/1/6 632/1/6 634/1/6
f 633/3/6 631/3/6 634/3/6
f 634/1/6 632/1/6 635/1/6
f 636/3/6 637/3/6 641/3/6
f 637/1/6 638/1/6 641/1/6
f 638/3/6 639/3/6 642/3/6
f 641/1/6 638/1/6 642/1/6
f 642/3/6 639/3/6 643/3/6
f 643/3/6 639/3/6 644/3/6
f 639/1/6 640/1/6 645/1/6
f 644/3/6 639/3/6 645/3/6
f 645/1/6 640/1/6 646/1/6
f 641/3/6 642/3/6 647/3/6
f 642/1/6 643/1/6 647/1/6
f 643/3/6 644/3/6 648/3/6
f 647/1/6 643/1/6 648/1/6
f 644/1/6 645/1/6 649/1/6
f 648/3/6 644/3/6 649/3/6
f 645/3/6 646/3/6 650/3/6
f 649/1/6 645/1/6 650/1/6
f 648/3/6 649/3/6 655/3/6
f 647/3/6 648/3/6 655/3/6
f 649/3/6 650/3/6 655/3/6
f 655/3/6 650/3/6 656/3/6
f 651/2/6 652/2/6 657/2/6
f 657/2/6 652/2/6 658/2/6
f 658/2/6 652/2/6 659/2/6
f 653/2/6 654/2/6 662/2/6
f 641/3/6 647/3/6 663/3/6
f 636/3/6 641/3/6 663/3/6
f 647/3/6 655/3/6 663/3/6
f 655/1/6 656/1/6 664/1/6
f 663/3/6 655/3/6 664/3/6
f 656/3/6 650/3/6 665/3/6
f 664/1/6 656/1/6 665/1/6
f 659/2/6 660/2/6 666/2/6
f 658/2/6 659/2/6 666/2/6
f 666/2/6 660/2/6 667/2/6
f 667/2/6 660/2/6 668/2/6
f 661/2/6 662/2/6 669/2/6
f 662/2/6 654/2/6 670/2/6
f 669/2/6 662/2/6 670/2/6
f 670/2/6 654/2/6 671/2/6
f 636/3/6 663/3/6 672/3/6
f 663/1/6 664/1/6 673/1/6
f 672/3/6 663/3/6 673/3/6
f 664/3/6 665/3/6 674/3/6
f 673/1/6 664/1/6 674/1/6
f 665/3/6 650/3/6 675/3/6
f 674/3/6 665/3/6 675/3/6
f 650/3/6 646/3/6 676/3/6
f 675/3/6 650/3/6 676/3/6
f 667/2/6 668/2/6 677/2/6
f 668/2/6 669/2/6 677/2/6
f 669/2/6 670/2/6 677/2/6
f 677/2/6 670/2/6 678/2/6
f 672/1/6 673/1/6 679/1/6
f 674/3/6 675/3/6 680/3/6
f 679/1/6 673/1/6 680/1/6
f 673/3/6 674/3/6 680/3/6
f 675/1/6 676/1/6 681/1/6
f 680/3/6 675/3/6 681/3/6
f 676/3/6 646/3/6 682/3/6
f 681/1/6 676/1/6 682/1/6
f 682/3/6 646/3/6 683/3/6
f 684/3/6 685/3/6 686/3/6
f 686/3/6 685/3/6 687/3/6
