# MagicaVoxel @ Ephtracy

# group
o 

# material
mtllib BaseWallCorner.mtl
usemtl palette

# normals
vn -1 0 0
vn 1 0 0
vn 0 0 1
vn 0 0 -1
vn 0 -1 0
vn 0 1 0

# texcoords
vt 0.939453 0.5
vt 0.970703 0.5

# verts
v -2 0 2
v -2 0 -2
v -2 4 2
v -2 4 -2
v -1.5 0 2
v -1.5 0 -1.5
v -1.5 1.4 2
v -1.5 1.4 -1.5
v -1.5 1.7 2
v -1.5 1.7 -1.5
v -1.5 4 2
v -1.5 4 -1.5
v -1.4 1.4 2
v -1.4 1.4 -1.4
v -1.4 1.7 2
v -1.4 1.7 -1.4
v 2 0 -1.5
v 2 0 -2
v 2 1.4 -1.4
v 2 1.4 -1.5
v 2 1.7 -1.4
v 2 1.7 -1.5
v 2 4 -1.5
v 2 4 -2
v -2 0 2
v -2 4 2
v -1.5 0 2
v -1.5 1.4 2
v -1.5 1.7 2
v -1.5 4 2
v -1.4 1.4 2
v -1.4 1.7 2
v -1.4 1.4 -1.4
v -1.4 1.7 -1.4
v 2 1.4 -1.4
v 2 1.7 -1.4
v -1.5 0 -1.5
v -1.5 1.4 -1.5
v -1.5 1.7 -1.5
v -1.5 4 -1.5
v 2 0 -1.5
v 2 1.4 -1.5
v 2 1.7 -1.5
v 2 4 -1.5
v -2 0 -2
v -2 4 -2
v 2 0 -2
v 2 4 -2
v -2 0 2
v -1.5 0 2
v -1.5 0 -1.5
v 2 0 -1.5
v -2 0 -2
v 2 0 -2
v -1.5 1.4 2
v -1.4 1.4 2
v -1.4 1.4 -1.4
v 2 1.4 -1.4
v -1.5 1.4 -1.5
v 2 1.4 -1.5
v -1.5 1.7 2
v -1.4 1.7 2
v -1.4 1.7 -1.4
v 2 1.7 -1.4
v -1.5 1.7 -1.5
v 2 1.7 -1.5
v -2 4 2
v -1.5 4 2
v -1.5 4 -1.5
v 2 4 -1.5
v -2 4 -2
v 2 4 -2

# faces
f 3/2/1 2/2/1 1/2/1
f 4/2/1 2/2/1 3/2/1
f 5/2/2 6/2/2 7/2/2
f 7/2/2 6/2/2 8/2/2
f 9/2/2 10/2/2 11/2/2
f 11/2/2 10/2/2 12/2/2
f 13/1/2 14/1/2 15/1/2
f 15/1/2 14/1/2 16/1/2
f 17/2/2 18/2/2 20/2/2
f 19/1/2 20/1/2 21/1/2
f 20/2/2 18/2/2 22/2/2
f 21/1/2 20/1/2 22/1/2
f 22/2/2 18/2/2 23/2/2
f 23/2/2 18/2/2 24/2/2
f 27/2/3 26/2/3 25/2/3
f 28/2/3 26/2/3 27/2/3
f 29/2/3 26/2/3 28/2/3
f 30/2/3 26/2/3 29/2/3
f 31/1/3 29/1/3 28/1/3
f 32/1/3 29/1/3 31/1/3
f 35/1/3 34/1/3 33/1/3
f 36/1/3 34/1/3 35/1/3
f 41/2/3 38/2/3 37/2/3
f 42/2/3 38/2/3 41/2/3
f 43/2/3 40/2/3 39/2/3
f 44/2/3 40/2/3 43/2/3
f 45/2/4 46/2/4 47/2/4
f 47/2/4 46/2/4 48/2/4
f 51/2/5 50/2/5 49/2/5
f 53/2/5 51/2/5 49/2/5
f 53/2/5 52/2/5 51/2/5
f 54/2/5 52/2/5 53/2/5
f 57/1/5 56/1/5 55/1/5
f 59/1/5 57/1/5 55/1/5
f 59/1/5 58/1/5 57/1/5
f 60/1/5 58/1/5 59/1/5
f 61/1/6 62/1/6 63/1/6
f 61/1/6 63/1/6 65/1/6
f 63/1/6 64/1/6 65/1/6
f 65/1/6 64/1/6 66/1/6
f 67/2/6 68/2/6 69/2/6
f 67/2/6 69/2/6 71/2/6
f 69/2/6 70/2/6 71/2/6
f 71/2/6 70/2/6 72/2/6
