# MagicaVoxel @ Ephtracy

# group
o 

# material
mtllib TopLeftFloor.mtl
usemtl palette

# normals
vn -1 0 0
vn 1 0 0
vn 0 0 1
vn 0 0 -1
vn 0 -1 0
vn 0 1 0

# texcoords
vt 0.970703 0.5
vt 0.974609 0.5
vt 0.978516 0.5

# verts
v -2 0 2
v -2 0 -2
v -2 4 2
v -2 4 -2
v 2 0 2
v 2 0 -2
v 2 3.9 -1.5
v 2 3.9 -1.6
v 2 3.9 -1.8
v 2 4 2
v 2 4 -1.5
v 2 4 -1.6
v 2 4 -1.8
v 2 4 -2
v -2 0 2
v -2 4 2
v -1.8 3.9 2
v -1.8 4 2
v -1.6 3.9 2
v -1.6 4 2
v -1.5 3.9 2
v -1.5 4 2
v 2 0 2
v 2 4 2
v -2 0 -2
v -2 4 -2
v 2 0 -2
v 2 4 -2
v -2 0 2
v 2 0 2
v -2 0 -2
v 2 0 -2
v -2 4 2
v -1.8 4 2
v -1.6 4 2
v -1.5 4 2
v 2 4 2
v -1.5 4 -1.5
v 2 4 -1.5
v -1.6 4 -1.6
v 2 4 -1.6
v -1.8 4 -1.8
v 2 4 -1.8
v -2 4 -2
v 2 4 -2

# faces
f 3/1/1 2/1/1 1/1/1
f 4/1/1 2/1/1 3/1/1
f 5/1/2 6/1/2 7/1/2
f 7/1/2 6/1/2 8/1/2
f 8/1/2 6/1/2 9/1/2
f 5/1/2 7/1/2 10/1/2
f 7/3/2 8/3/2 11/3/2
f 10/1/2 7/1/2 11/1/2
f 8/2/2 9/2/2 12/2/2
f 11/3/2 8/3/2 12/3/2
f 9/1/2 6/1/2 13/1/2
f 12/2/2 9/2/2 13/2/2
f 13/1/2 6/1/2 14/1/2
f 17/1/3 16/1/3 15/1/3
f 18/1/3 16/1/3 17/1/3
f 19/1/3 17/1/3 15/1/3
f 19/2/3 18/2/3 17/2/3
f 20/2/3 18/2/3 19/2/3
f 21/1/3 19/1/3 15/1/3
f 21/3/3 20/3/3 19/3/3
f 22/3/3 20/3/3 21/3/3
f 23/1/3 21/1/3 15/1/3
f 23/1/3 22/1/3 21/1/3
f 24/1/3 22/1/3 23/1/3
f 25/1/4 26/1/4 27/1/4
f 27/1/4 26/1/4 28/1/4
f 31/1/5 30/1/5 29/1/5
f 32/1/5 30/1/5 31/1/5
f 35/3/6 36/3/6 38/3/6
f 36/1/6 37/1/6 38/1/6
f 38/1/6 37/1/6 39/1/6
f 34/2/6 35/2/6 40/2/6
f 35/3/6 38/3/6 40/3/6
f 38/3/6 39/3/6 40/3/6
f 40/3/6 39/3/6 41/3/6
f 33/1/6 34/1/6 42/1/6
f 34/2/6 40/2/6 42/2/6
f 40/2/6 41/2/6 42/2/6
f 42/2/6 41/2/6 43/2/6
f 33/1/6 42/1/6 44/1/6
f 42/1/6 43/1/6 44/1/6
f 44/1/6 43/1/6 45/1/6
