# MagicaVoxel @ Ephtracy

# group
o 

# material
mtllib EnemyRat.mtl
usemtl palette

# normals
vn -1 0 0
vn 1 0 0
vn 0 0 1
vn 0 0 -1
vn 0 -1 0
vn 0 1 0

# texcoords
vt 0.970703 0.5
vt 0.974609 0.5
vt 0.978516 0.5
vt 0.982422 0.5
vt 0.994141 0.5

# verts
v -0.7 0 0.7
v -0.7 0 0.5
v -0.7 0 0.4
v -0.7 0 -0.2
v -0.7 0 -0.4
v -0.7 0 -0.5
v -0.7 0.1 0.7
v -0.7 0.1 0.5
v -0.7 0.1 0.4
v -0.7 0.1 0.1
v -0.7 0.1 -0.2
v -0.7 0.1 -0.4
v -0.7 0.1 -0.5
v -0.7 0.1 -0.7
v -0.7 0.3 0.5
v -0.7 0.3 0.4
v -0.7 0.3 0.1
v -0.7 0.3 -0.4
v -0.7 0.4 0.4
v -0.7 0.4 0.2
v -0.7 0.4 -0.5
v -0.7 0.4 -0.7
v -0.7 0.6 0.2
v -0.7 0.6 -0.5
v -0.5 0 -1
v -0.5 0 -1.1
v -0.5 0.3 0.8
v -0.5 0.3 0.5
v -0.5 0.3 0.4
v -0.5 0.3 -1
v -0.5 0.3 -1.1
v -0.5 0.4 0.4
v -0.5 0.6 0.2
v -0.5 0.6 -0.5
v -0.5 0.7 0.2
v -0.5 0.7 0.1
v -0.5 0.7 -0.4
v -0.5 0.7 -0.5
v -0.5 0.8 0.1
v -0.5 0.8 -0.4
v -0.5 0.9 0.8
v -0.5 0.9 0.4
v -0.4 0.9 0.7
v -0.4 0.9 0.5
v -0.4 1 0.7
v -0.4 1 0.5
v -0.3 0.3 -0.8
v -0.3 0.3 -1
v -0.3 0.3 -1.1
v -0.3 0.6 -0.8
v -0.3 0.6 -1.1
v -0.2 0.1 -0.7
v -0.2 0.1 -1
v -0.2 0.3 -0.8
v -0.2 0.3 -1
v -0.2 0.4 1.1
v -0.2 0.4 1
v -0.2 0.4 0.8
v -0.2 0.4 -0.7
v -0.2 0.4 -0.8
v -0.2 0.6 1.1
v -0.2 0.6 1
v -0.2 0.6 0.8
v 0.1 0.9 0.7
v 0.1 0.9 0.5
v 0.1 1 0.7
v 0.1 1 0.5
v 0.4 0 0.7
v 0.4 0 0.5
v 0.4 0 0.4
v 0.4 0 -0.2
v 0.4 0 -0.4
v 0.4 0 -0.5
v 0.4 0.1 0.7
v 0.4 0.1 0.5
v 0.4 0.1 0.4
v 0.4 0.1 -0.2
v 0.4 0.1 -0.4
v 0.4 0.1 -0.5
v -0.5 0 0.7
v -0.5 0 0.5
v -0.5 0 0.4
v -0.5 0 -0.2
v -0.5 0 -0.4
v -0.5 0 -0.5
v -0.5 0.1 0.7
v -0.5 0.1 0.5
v -0.5 0.1 0.4
v -0.5 0.1 0.2
v -0.5 0.1 0.1
v -0.5 0.1 -0.2
v -0.5 0.1 -0.4
v -0.5 0.1 -0.5
v -0.5 0.3 0.2
v -0.5 0.3 0.1
v -0.3 0 -1
v -0.3 0 -1.1
v -0.3 0.1 -1
v -0.3 0.1 -1.1
v -0.2 0.1 -1
v -0.2 0.1 -1.1
v -0.2 0.3 -1
v -0.2 0.3 -1.1
v -0.2 0.9 0.7
v -0.2 0.9 0.5
v -0.2 1 0.7
v -0.2 1 0.5
v 0 0.3 -1
v 0 0.3 -1.1
v 0 0.4 -0.8
v 0 0.4 -1
v 0 0.6 -0.8
v 0 0.6 -1.1
v 0.1 0.1 -0.7
v 0.1 0.1 -1
v 0.1 0.4 1.1
v 0.1 0.4 1
v 0.1 0.4 0.8
v 0.1 0.4 -0.7
v 0.1 0.4 -1
v 0.1 0.6 1.1
v 0.1 0.6 1
v 0.1 0.6 0.8
v 0.3 0.9 0.7
v 0.3 0.9 0.5
v 0.3 1 0.7
v 0.3 1 0.5
v 0.4 0.3 0.8
v 0.4 0.3 0.5
v 0.4 0.3 0.4
v 0.4 0.4 0.4
v 0.4 0.6 0.2
v 0.4 0.6 -0.5
v 0.4 0.7 0.2
v 0.4 0.7 0.1
v 0.4 0.7 -0.4
v 0.4 0.7 -0.5
v 0.4 0.8 0.1
v 0.4 0.8 -0.4
v 0.4 0.9 0.8
v 0.4 0.9 0.4
v 0.6 0 0.7
v 0.6 0 0.5
v 0.6 0 0.4
v 0.6 0 -0.2
v 0.6 0 -0.4
v 0.6 0 -0.5
v 0.6 0.1 0.7
v 0.6 0.1 0.5
v 0.6 0.1 0.4
v 0.6 0.1 0.2
v 0.6 0.1 -0.2
v 0.6 0.1 -0.4
v 0.6 0.1 -0.5
v 0.6 0.1 -0.7
v 0.6 0.3 0.5
v 0.6 0.3 0.4
v 0.6 0.3 0.2
v 0.6 0.3 -0.4
v 0.6 0.4 0.4
v 0.6 0.4 0.2
v 0.6 0.4 -0.5
v 0.6 0.4 -0.7
v 0.6 0.6 0.2
v 0.6 0.6 -0.5
v -0.2 0.4 1.1
v -0.2 0.6 1.1
v 0.1 0.4 1.1
v 0.1 0.6 1.1
v -0.5 0.3 0.8
v -0.5 0.9 0.8
v -0.4 0.6 0.8
v -0.4 0.7 0.8
v -0.2 0.4 0.8
v -0.2 0.6 0.8
v -0.2 0.7 0.8
v 0.1 0.4 0.8
v 0.1 0.6 0.8
v 0.1 0.7 0.8
v 0.3 0.6 0.8
v 0.3 0.7 0.8
v 0.4 0.3 0.8
v 0.4 0.9 0.8
v -0.7 0 0.7
v -0.7 0.1 0.7
v -0.5 0 0.7
v -0.5 0.1 0.7
v -0.4 0.9 0.7
v -0.4 1 0.7
v -0.2 0.9 0.7
v -0.2 1 0.7
v 0.1 0.9 0.7
v 0.1 1 0.7
v 0.3 0.9 0.7
v 0.3 1 0.7
v 0.4 0 0.7
v 0.4 0.1 0.7
v 0.6 0 0.7
v 0.6 0.1 0.7
v -0.7 0.1 0.5
v -0.7 0.3 0.5
v -0.5 0.1 0.5
v -0.5 0.3 0.5
v 0.4 0.1 0.5
v 0.4 0.3 0.5
v 0.6 0.1 0.5
v 0.6 0.3 0.5
v -0.7 0.3 0.4
v -0.7 0.4 0.4
v -0.5 0.3 0.4
v -0.5 0.4 0.4
v 0.4 0.3 0.4
v 0.4 0.4 0.4
v 0.6 0.3 0.4
v 0.6 0.4 0.4
v -0.7 0.4 0.2
v -0.7 0.6 0.2
v -0.5 0.4 0.2
v -0.5 0.6 0.2
v -0.5 0.7 0.2
v 0.4 0.4 0.2
v 0.4 0.6 0.2
v 0.4 0.7 0.2
v 0.6 0.4 0.2
v 0.6 0.6 0.2
v -0.5 0.7 0.1
v -0.5 0.8 0.1
v 0.4 0.7 0.1
v 0.4 0.8 0.1
v -0.7 0 -0.2
v -0.7 0.1 -0.2
v -0.5 0 -0.2
v -0.5 0.1 -0.2
v 0.4 0 -0.2
v 0.4 0.1 -0.2
v 0.6 0 -0.2
v 0.6 0.1 -0.2
v -0.7 0.1 -0.4
v -0.7 0.3 -0.4
v -0.5 0.1 -0.4
v -0.5 0.3 -0.4
v 0.4 0.1 -0.4
v 0.4 0.3 -0.4
v 0.6 0.1 -0.4
v 0.6 0.3 -0.4
v -0.3 0.3 -0.8
v -0.3 0.6 -0.8
v -0.2 0.3 -0.8
v -0.2 0.4 -0.8
v 0 0.4 -0.8
v 0 0.6 -0.8
v -0.5 0 -1
v -0.5 0.3 -1
v -0.3 0 -1
v -0.3 0.1 -1
v -0.3 0.3 -1
v -0.2 0.1 -1
v -0.2 0.3 -1
v -0.4 0.9 0.5
v -0.4 1 0.5
v -0.2 0.9 0.5
v -0.2 1 0.5
v 0.1 0.9 0.5
v 0.1 1 0.5
v 0.3 0.9 0.5
v 0.3 1 0.5
v -0.7 0 0.4
v -0.7 0.1 0.4
v -0.5 0 0.4
v -0.5 0.1 0.4
v -0.5 0.4 0.4
v -0.5 0.9 0.4
v 0.4 0 0.4
v 0.4 0.1 0.4
v 0.4 0.4 0.4
v 0.4 0.9 0.4
v 0.6 0 0.4
v 0.6 0.1 0.4
v -0.5 0.1 0.2
v -0.5 0.3 0.2
v 0.4 0.1 0.2
v 0.4 0.3 0.2
v 0.6 0.1 0.2
v 0.6 0.3 0.2
v -0.7 0.1 0.1
v -0.7 0.3 0.1
v -0.5 0.1 0.1
v -0.5 0.3 0.1
v -0.5 0.7 -0.4
v -0.5 0.8 -0.4
v 0.4 0.7 -0.4
v 0.4 0.8 -0.4
v -0.7 0 -0.5
v -0.7 0.1 -0.5
v -0.7 0.4 -0.5
v -0.7 0.6 -0.5
v -0.5 0 -0.5
v -0.5 0.1 -0.5
v -0.5 0.4 -0.5
v -0.5 0.6 -0.5
v -0.5 0.7 -0.5
v 0.4 0 -0.5
v 0.4 0.1 -0.5
v 0.4 0.4 -0.5
v 0.4 0.6 -0.5
v 0.4 0.7 -0.5
v 0.6 0 -0.5
v 0.6 0.1 -0.5
v 0.6 0.4 -0.5
v 0.6 0.6 -0.5
v -0.7 0.1 -0.7
v -0.7 0.4 -0.7
v -0.5 0.1 -0.7
v -0.5 0.4 -0.7
v -0.2 0.1 -0.7
v -0.2 0.4 -0.7
v 0.1 0.1 -0.7
v 0.1 0.4 -0.7
v 0.4 0.1 -0.7
v 0.4 0.4 -0.7
v 0.6 0.1 -0.7
v 0.6 0.4 -0.7
v -0.2 0.1 -1
v -0.2 0.3 -1
v 0 0.3 -1
v 0 0.4 -1
v 0.1 0.1 -1
v 0.1 0.4 -1
v -0.5 0 -1.1
v -0.5 0.3 -1.1
v -0.3 0 -1.1
v -0.3 0.1 -1.1
v -0.3 0.3 -1.1
v -0.3 0.6 -1.1
v -0.2 0.1 -1.1
v -0.2 0.3 -1.1
v 0 0.3 -1.1
v 0 0.6 -1.1
v -0.7 0 0.7
v -0.5 0 0.7
v 0.4 0 0.7
v 0.6 0 0.7
v -0.7 0 0.5
v -0.5 0 0.5
v 0.4 0 0.5
v 0.6 0 0.5
v -0.7 0 0.4
v -0.5 0 0.4
v 0.4 0 0.4
v 0.6 0 0.4
v -0.7 0 -0.2
v -0.5 0 -0.2
v 0.4 0 -0.2
v 0.6 0 -0.2
v -0.7 0 -0.4
v -0.5 0 -0.4
v 0.4 0 -0.4
v 0.6 0 -0.4
v -0.7 0 -0.5
v -0.5 0 -0.5
v 0.4 0 -0.5
v 0.6 0 -0.5
v -0.5 0 -1
v -0.3 0 -1
v -0.5 0 -1.1
v -0.3 0 -1.1
v -0.5 0.1 0.5
v 0.4 0.1 0.5
v -0.7 0.1 0.4
v -0.5 0.1 0.4
v 0.4 0.1 0.4
v 0.6 0.1 0.4
v -0.5 0.1 0.2
v 0.4 0.1 0.2
v 0.6 0.1 0.2
v -0.7 0.1 0.1
v -0.5 0.1 0.1
v -0.5 0.1 -0.4
v 0.4 0.1 -0.4
v -0.7 0.1 -0.5
v -0.5 0.1 -0.5
v 0.4 0.1 -0.5
v 0.6 0.1 -0.5
v -0.7 0.1 -0.7
v -0.5 0.1 -0.7
v -0.2 0.1 -0.7
v 0.1 0.1 -0.7
v 0.4 0.1 -0.7
v 0.6 0.1 -0.7
v -0.3 0.1 -1
v -0.2 0.1 -1
v 0.1 0.1 -1
v -0.3 0.1 -1.1
v -0.2 0.1 -1.1
v -0.5 0.3 0.8
v 0.4 0.3 0.8
v -0.5 0.3 0.5
v 0.4 0.3 0.5
v -0.5 0.3 0.2
v 0.4 0.3 0.2
v 0.6 0.3 0.2
v -0.7 0.3 0.1
v -0.5 0.3 0.1
v -0.7 0.3 -0.4
v -0.5 0.3 -0.4
v 0.4 0.3 -0.4
v 0.6 0.3 -0.4
v -0.3 0.3 -0.8
v -0.2 0.3 -0.8
v -0.3 0.3 -1
v -0.2 0.3 -1
v 0 0.3 -1
v -0.2 0.3 -1.1
v 0 0.3 -1.1
v -0.2 0.4 1.1
v 0.1 0.4 1.1
v -0.2 0.4 1
v 0.1 0.4 1
v -0.2 0.4 0.8
v 0.1 0.4 0.8
v -0.7 0.1 0.7
v -0.5 0.1 0.7
v 0.4 0.1 0.7
v 0.6 0.1 0.7
v -0.7 0.1 0.5
v -0.5 0.1 0.5
v 0.4 0.1 0.5
v 0.6 0.1 0.5
v -0.7 0.1 -0.2
v -0.5 0.1 -0.2
v 0.4 0.1 -0.2
v 0.6 0.1 -0.2
v -0.7 0.1 -0.4
v -0.5 0.1 -0.4
v 0.4 0.1 -0.4
v 0.6 0.1 -0.4
v -0.7 0.3 0.5
v -0.5 0.3 0.5
v 0.4 0.3 0.5
v 0.6 0.3 0.5
v -0.7 0.3 0.4
v -0.5 0.3 0.4
v 0.4 0.3 0.4
v 0.6 0.3 0.4
v -0.5 0.3 -1
v -0.3 0.3 -1
v -0.5 0.3 -1.1
v -0.3 0.3 -1.1
v -0.7 0.4 0.4
v -0.5 0.4 0.4
v 0.4 0.4 0.4
v 0.6 0.4 0.4
v -0.7 0.4 0.2
v -0.5 0.4 0.2
v 0.4 0.4 0.2
v 0.6 0.4 0.2
v -0.7 0.4 -0.5
v -0.5 0.4 -0.5
v 0.4 0.4 -0.5
v 0.6 0.4 -0.5
v -0.7 0.4 -0.7
v -0.5 0.4 -0.7
v -0.2 0.4 -0.7
v 0.1 0.4 -0.7
v 0.4 0.4 -0.7
v 0.6 0.4 -0.7
v -0.2 0.4 -0.8
v 0 0.4 -0.8
v 0 0.4 -1
v 0.1 0.4 -1
v -0.2 0.6 1.1
v 0.1 0.6 1.1
v -0.2 0.6 1
v 0.1 0.6 1
v -0.2 0.6 0.8
v 0.1 0.6 0.8
v -0.7 0.6 0.2
v -0.5 0.6 0.2
v 0.4 0.6 0.2
v 0.6 0.6 0.2
v -0.7 0.6 -0.5
v -0.5 0.6 -0.5
v 0.4 0.6 -0.5
v 0.6 0.6 -0.5
v -0.3 0.6 -0.8
v 0 0.6 -0.8
v -0.3 0.6 -1.1
v 0 0.6 -1.1
v -0.5 0.7 0.2
v 0.4 0.7 0.2
v -0.5 0.7 0.1
v 0.4 0.7 0.1
v -0.5 0.7 -0.4
v 0.4 0.7 -0.4
v -0.5 0.7 -0.5
v 0.4 0.7 -0.5
v -0.5 0.8 0.1
v 0.4 0.8 0.1
v -0.5 0.8 -0.4
v 0.4 0.8 -0.4
v -0.5 0.9 0.8
v 0.4 0.9 0.8
v -0.4 0.9 0.7
v -0.2 0.9 0.7
v 0.1 0.9 0.7
v 0.3 0.9 0.7
v -0.4 0.9 0.5
v -0.2 0.9 0.5
v 0.1 0.9 0.5
v 0.3 0.9 0.5
v -0.5 0.9 0.4
v 0.4 0.9 0.4
v -0.4 1 0.7
v -0.2 1 0.7
v 0.1 1 0.7
v 0.3 1 0.7
v -0.4 1 0.5
v -0.2 1 0.5
v 0.1 1 0.5
v 0.3 1 0.5

# faces
f 7/2/1 2/2/1 1/2/1
f 8/1/1 3/1/1 2/1/1
f 8/2/1 2/2/1 7/2/1
f 9/1/1 3/1/1 8/1/1
f 11/2/1 5/2/1 4/2/1
f 12/1/1 6/1/1 5/1/1
f 12/2/1 5/2/1 11/2/1
f 13/1/1 6/1/1 12/1/1
f 15/1/1 10/1/1 9/1/1
f 15/1/1 9/1/1 8/1/1
f 16/1/1 10/1/1 15/1/1
f 17/1/1 10/1/1 16/1/1
f 18/1/1 14/1/1 13/1/1
f 18/1/1 13/1/1 12/1/1
f 19/1/1 17/1/1 16/1/1
f 19/1/1 18/1/1 17/1/1
f 20/1/1 18/1/1 19/1/1
f 21/1/1 14/1/1 18/1/1
f 21/1/1 18/1/1 20/1/1
f 22/1/1 14/1/1 21/1/1
f 23/1/1 21/1/1 20/1/1
f 24/1/1 21/1/1 23/1/1
f 30/4/1 26/4/1 25/4/1
f 31/4/1 26/4/1 30/4/1
f 32/3/1 29/3/1 28/3/1
f 32/3/1 28/3/1 27/3/1
f 35/3/1 34/3/1 33/3/1
f 36/3/1 34/3/1 35/3/1
f 37/3/1 34/3/1 36/3/1
f 38/3/1 34/3/1 37/3/1
f 39/3/1 37/3/1 36/3/1
f 40/3/1 37/3/1 39/3/1
f 41/3/1 32/3/1 27/3/1
f 42/3/1 32/3/1 41/3/1
f 45/4/1 44/4/1 43/4/1
f 46/4/1 44/4/1 45/4/1
f 50/4/1 48/4/1 47/4/1
f 50/4/1 49/4/1 48/4/1
f 51/4/1 49/4/1 50/4/1
f 54/4/1 53/4/1 52/4/1
f 55/4/1 53/4/1 54/4/1
f 59/4/1 54/4/1 52/4/1
f 60/4/1 54/4/1 59/4/1
f 61/1/1 57/1/1 56/1/1
f 62/3/1 58/3/1 57/3/1
f 62/1/1 57/1/1 61/1/1
f 63/3/1 58/3/1 62/3/1
f 66/4/1 65/4/1 64/4/1
f 67/4/1 65/4/1 66/4/1
f 74/2/1 69/2/1 68/2/1
f 75/1/1 70/1/1 69/1/1
f 75/2/1 69/2/1 74/2/1
f 76/1/1 70/1/1 75/1/1
f 77/2/1 72/2/1 71/2/1
f 78/1/1 73/1/1 72/1/1
f 78/2/1 72/2/1 77/2/1
f 79/1/1 73/1/1 78/1/1
f 80/2/2 81/2/2 86/2/2
f 81/1/2 82/1/2 87/1/2
f 86/2/2 81/2/2 87/2/2
f 87/1/2 82/1/2 88/1/2
f 83/2/2 84/2/2 91/2/2
f 84/1/2 85/1/2 92/1/2
f 91/2/2 84/2/2 92/2/2
f 92/1/2 85/1/2 93/1/2
f 89/1/2 90/1/2 94/1/2
f 94/1/2 90/1/2 95/1/2
f 96/4/2 97/4/2 98/4/2
f 98/4/2 97/4/2 99/4/2
f 100/4/2 101/4/2 102/4/2
f 102/4/2 101/4/2 103/4/2
f 104/4/2 105/4/2 106/4/2
f 106/4/2 105/4/2 107/4/2
f 108/4/2 109/4/2 111/4/2
f 110/4/2 111/4/2 112/4/2
f 111/4/2 109/4/2 113/4/2
f 112/4/2 111/4/2 113/4/2
f 114/4/2 115/4/2 119/4/2
f 119/4/2 115/4/2 120/4/2
f 116/1/2 117/1/2 121/1/2
f 117/3/2 118/3/2 122/3/2
f 121/1/2 117/1/2 122/1/2
f 122/3/2 118/3/2 123/3/2
f 124/4/2 125/4/2 126/4/2
f 126/4/2 125/4/2 127/4/2
f 128/3/2 129/3/2 131/3/2
f 129/3/2 130/3/2 131/3/2
f 132/3/2 133/3/2 134/3/2
f 134/3/2 133/3/2 135/3/2
f 135/3/2 133/3/2 136/3/2
f 136/3/2 133/3/2 137/3/2
f 135/3/2 136/3/2 138/3/2
f 138/3/2 136/3/2 139/3/2
f 128/3/2 131/3/2 140/3/2
f 140/3/2 131/3/2 141/3/2
f 142/2/2 143/2/2 148/2/2
f 143/1/2 144/1/2 149/1/2
f 148/2/2 143/2/2 149/2/2
f 149/1/2 144/1/2 150/1/2
f 145/2/2 146/2/2 152/2/2
f 146/1/2 147/1/2 153/1/2
f 152/2/2 146/2/2 153/2/2
f 153/1/2 147/1/2 154/1/2
f 150/1/2 151/1/2 156/1/2
f 149/1/2 150/1/2 156/1/2
f 156/1/2 151/1/2 157/1/2
f 157/1/2 151/1/2 158/1/2
f 154/1/2 155/1/2 159/1/2
f 153/1/2 154/1/2 159/1/2
f 157/1/2 158/1/2 160/1/2
f 158/1/2 159/1/2 160/1/2
f 160/1/2 159/1/2 161/1/2
f 159/1/2 155/1/2 162/1/2
f 161/1/2 159/1/2 162/1/2
f 162/1/2 155/1/2 163/1/2
f 161/1/2 162/1/2 164/1/2
f 164/1/2 162/1/2 165/1/2
f 168/1/3 167/1/3 166/1/3
f 169/1/3 167/1/3 168/1/3
f 172/3/3 171/3/3 170/3/3
f 173/3/3 171/3/3 172/3/3
f 174/3/3 172/3/3 170/3/3
f 175/5/3 173/5/3 172/5/3
f 175/3/3 172/3/3 174/3/3
f 176/3/3 171/3/3 173/3/3
f 176/5/3 173/5/3 175/5/3
f 177/3/3 174/3/3 170/3/3
f 178/3/3 176/3/3 175/3/3
f 179/3/3 171/3/3 176/3/3
f 179/3/3 176/3/3 178/3/3
f 180/3/3 178/3/3 177/3/3
f 180/5/3 179/5/3 178/5/3
f 181/3/3 171/3/3 179/3/3
f 181/5/3 179/5/3 180/5/3
f 182/3/3 180/3/3 177/3/3
f 182/3/3 177/3/3 170/3/3
f 182/3/3 181/3/3 180/3/3
f 183/3/3 171/3/3 181/3/3
f 183/3/3 181/3/3 182/3/3
f 186/2/3 185/2/3 184/2/3
f 187/2/3 185/2/3 186/2/3
f 190/4/3 189/4/3 188/4/3
f 191/4/3 189/4/3 190/4/3
f 194/4/3 193/4/3 192/4/3
f 195/4/3 193/4/3 194/4/3
f 198/2/3 197/2/3 196/2/3
f 199/2/3 197/2/3 198/2/3
f 202/1/3 201/1/3 200/1/3
f 203/1/3 201/1/3 202/1/3
f 204/3/3 203/3/3 202/3/3
f 205/3/3 203/3/3 204/3/3
f 206/1/3 205/1/3 204/1/3
f 207/1/3 205/1/3 206/1/3
f 210/1/3 209/1/3 208/1/3
f 211/1/3 209/1/3 210/1/3
f 214/1/3 213/1/3 212/1/3
f 215/1/3 213/1/3 214/1/3
f 218/1/3 217/1/3 216/1/3
f 219/1/3 217/1/3 218/1/3
f 221/3/3 219/3/3 218/3/3
f 221/3/3 220/3/3 219/3/3
f 222/3/3 220/3/3 221/3/3
f 223/3/3 220/3/3 222/3/3
f 224/1/3 222/1/3 221/1/3
f 225/1/3 222/1/3 224/1/3
f 228/3/3 227/3/3 226/3/3
f 229/3/3 227/3/3 228/3/3
f 232/2/3 231/2/3 230/2/3
f 233/2/3 231/2/3 232/2/3
f 236/2/3 235/2/3 234/2/3
f 237/2/3 235/2/3 236/2/3
f 240/1/3 239/1/3 238/1/3
f 241/1/3 239/1/3 240/1/3
f 242/3/3 241/3/3 240/3/3
f 243/3/3 241/3/3 242/3/3
f 244/1/3 243/1/3 242/1/3
f 245/1/3 243/1/3 244/1/3
f 248/4/3 247/4/3 246/4/3
f 249/4/3 247/4/3 248/4/3
f 250/4/3 247/4/3 249/4/3
f 251/4/3 247/4/3 250/4/3
f 254/4/3 253/4/3 252/4/3
f 255/4/3 253/4/3 254/4/3
f 256/4/3 253/4/3 255/4/3
f 257/4/3 256/4/3 255/4/3
f 258/4/3 256/4/3 257/4/3
f 259/4/4 260/4/4 261/4/4
f 261/4/4 260/4/4 262/4/4
f 263/4/4 264/4/4 265/4/4
f 265/4/4 264/4/4 266/4/4
f 267/1/4 268/1/4 269/1/4
f 269/1/4 268/1/4 270/1/4
f 271/3/4 272/3/4 275/3/4
f 275/3/4 272/3/4 276/3/4
f 273/1/4 274/1/4 277/1/4
f 277/1/4 274/1/4 278/1/4
f 279/3/4 280/3/4 281/3/4
f 281/3/4 280/3/4 282/3/4
f 281/1/4 282/1/4 283/1/4
f 283/1/4 282/1/4 284/1/4
f 285/1/4 286/1/4 287/1/4
f 287/1/4 286/1/4 288/1/4
f 289/3/4 290/3/4 291/3/4
f 291/3/4 290/3/4 292/3/4
f 293/1/4 294/1/4 297/1/4
f 297/1/4 294/1/4 298/1/4
f 295/1/4 296/1/4 299/1/4
f 299/1/4 296/1/4 300/1/4
f 300/3/4 301/3/4 304/3/4
f 299/3/4 300/3/4 304/3/4
f 304/3/4 301/3/4 305/3/4
f 305/3/4 301/3/4 306/3/4
f 302/1/4 303/1/4 307/1/4
f 307/1/4 303/1/4 308/1/4
f 304/1/4 305/1/4 309/1/4
f 309/1/4 305/1/4 310/1/4
f 311/1/4 312/1/4 313/1/4
f 313/1/4 312/1/4 314/1/4
f 313/3/4 314/3/4 315/3/4
f 315/3/4 314/3/4 316/3/4
f 317/3/4 318/3/4 319/3/4
f 319/3/4 318/3/4 320/3/4
f 319/1/4 320/1/4 321/1/4
f 321/1/4 320/1/4 322/1/4
f 323/4/4 324/4/4 325/4/4
f 323/4/4 325/4/4 327/4/4
f 325/4/4 326/4/4 327/4/4
f 327/4/4 326/4/4 328/4/4
f 329/4/4 330/4/4 331/4/4
f 331/4/4 330/4/4 332/4/4
f 332/4/4 330/4/4 333/4/4
f 333/4/4 334/4/4 335/4/4
f 332/4/4 333/4/4 335/4/4
f 335/4/4 334/4/4 336/4/4
f 336/4/4 334/4/4 337/4/4
f 337/4/4 334/4/4 338/4/4
f 343/2/5 340/2/5 339/2/5
f 344/2/5 340/2/5 343/2/5
f 345/2/5 342/2/5 341/2/5
f 346/2/5 342/2/5 345/2/5
f 347/1/5 344/1/5 343/1/5
f 348/1/5 344/1/5 347/1/5
f 349/1/5 346/1/5 345/1/5
f 350/1/5 346/1/5 349/1/5
f 355/2/5 352/2/5 351/2/5
f 356/2/5 352/2/5 355/2/5
f 357/2/5 354/2/5 353/2/5
f 358/2/5 354/2/5 357/2/5
f 359/1/5 356/1/5 355/1/5
f 360/1/5 356/1/5 359/1/5
f 361/1/5 358/1/5 357/1/5
f 362/1/5 358/1/5 361/1/5
f 365/4/5 364/4/5 363/4/5
f 366/4/5 364/4/5 365/4/5
f 370/3/5 368/3/5 367/3/5
f 371/3/5 368/3/5 370/3/5
f 373/1/5 370/1/5 369/1/5
f 373/3/5 371/3/5 370/3/5
f 374/1/5 372/1/5 371/1/5
f 374/3/5 371/3/5 373/3/5
f 375/1/5 372/1/5 374/1/5
f 376/1/5 373/1/5 369/1/5
f 377/1/5 373/1/5 376/1/5
f 381/3/5 379/3/5 378/3/5
f 382/3/5 379/3/5 381/3/5
f 384/1/5 381/1/5 380/1/5
f 385/3/5 382/3/5 381/3/5
f 385/1/5 381/1/5 384/1/5
f 386/3/5 382/3/5 385/3/5
f 387/3/5 382/3/5 386/3/5
f 388/1/5 383/1/5 382/1/5
f 388/3/5 382/3/5 387/3/5
f 389/1/5 383/1/5 388/1/5
f 391/4/5 387/4/5 386/4/5
f 392/4/5 387/4/5 391/4/5
f 393/4/5 391/4/5 390/4/5
f 394/4/5 391/4/5 393/4/5
f 397/3/5 396/3/5 395/3/5
f 398/3/5 396/3/5 397/3/5
f 403/3/5 400/3/5 399/3/5
f 404/1/5 403/1/5 402/1/5
f 405/3/5 400/3/5 403/3/5
f 405/1/5 403/1/5 404/1/5
f 406/1/5 401/1/5 400/1/5
f 406/3/5 400/3/5 405/3/5
f 407/1/5 401/1/5 406/1/5
f 410/4/5 409/4/5 408/4/5
f 411/4/5 409/4/5 410/4/5
f 413/4/5 412/4/5 411/4/5
f 414/4/5 412/4/5 413/4/5
f 417/1/5 416/1/5 415/1/5
f 418/1/5 416/1/5 417/1/5
f 419/3/5 418/3/5 417/3/5
f 420/3/5 418/3/5 419/3/5
f 421/2/6 422/2/6 425/2/6
f 425/2/6 422/2/6 426/2/6
f 423/2/6 424/2/6 427/2/6
f 427/2/6 424/2/6 428/2/6
f 429/2/6 430/2/6 433/2/6
f 433/2/6 430/2/6 434/2/6
f 431/2/6 432/2/6 435/2/6
f 435/2/6 432/2/6 436/2/6
f 437/1/6 438/1/6 441/1/6
f 441/1/6 438/1/6 442/1/6
f 439/1/6 440/1/6 443/1/6
f 443/1/6 440/1/6 444/1/6
f 445/4/6 446/4/6 447/4/6
f 447/4/6 446/4/6 448/4/6
f 449/1/6 450/1/6 453/1/6
f 450/3/6 451/3/6 454/3/6
f 453/1/6 450/1/6 454/1/6
f 451/1/6 452/1/6 455/1/6
f 454/3/6 451/3/6 455/3/6
f 455/1/6 452/1/6 456/1/6
f 457/1/6 458/1/6 461/1/6
f 458/3/6 459/3/6 462/3/6
f 461/1/6 458/1/6 462/1/6
f 462/3/6 459/3/6 463/3/6
f 463/3/6 459/3/6 464/3/6
f 459/1/6 460/1/6 465/1/6
f 464/3/6 459/3/6 465/3/6
f 465/1/6 460/1/6 466/1/6
f 463/4/6 464/4/6 467/4/6
f 467/4/6 464/4/6 468/4/6
f 468/4/6 464/4/6 469/4/6
f 469/4/6 464/4/6 470/4/6
f 471/1/6 472/1/6 473/1/6
f 473/1/6 472/1/6 474/1/6
f 473/3/6 474/3/6 475/3/6
f 475/3/6 474/3/6 476/3/6
f 477/1/6 478/1/6 481/1/6
f 481/1/6 478/1/6 482/1/6
f 479/1/6 480/1/6 483/1/6
f 483/1/6 480/1/6 484/1/6
f 485/4/6 486/4/6 487/4/6
f 487/4/6 486/4/6 488/4/6
f 489/3/6 490/3/6 491/3/6
f 491/3/6 490/3/6 492/3/6
f 493/3/6 494/3/6 495/3/6
f 495/3/6 494/3/6 496/3/6
f 497/3/6 498/3/6 499/3/6
f 499/3/6 498/3/6 500/3/6
f 501/3/6 502/3/6 503/3/6
f 503/3/6 502/3/6 504/3/6
f 504/3/6 502/3/6 505/3/6
f 505/3/6 502/3/6 506/3/6
f 501/3/6 503/3/6 507/3/6
f 504/3/6 505/3/6 508/3/6
f 508/3/6 505/3/6 509/3/6
f 506/3/6 502/3/6 510/3/6
f 508/3/6 509/3/6 511/3/6
f 509/3/6 510/3/6 511/3/6
f 501/3/6 507/3/6 511/3/6
f 507/3/6 508/3/6 511/3/6
f 510/3/6 502/3/6 512/3/6
f 511/3/6 510/3/6 512/3/6
f 513/4/6 514/4/6 517/4/6
f 517/4/6 514/4/6 518/4/6
f 515/4/6 516/4/6 519/4/6
f 519/4/6 516/4/6 520/4/6
