# MagicaVoxel @ Ephtracy

# group
o 

# material
mtllib EnemyRatBrown.mtl
usemtl palette

# normals
vn -1 0 0
vn 1 0 0
vn 0 0 1
vn 0 0 -1
vn 0 -1 0
vn 0 1 0

# texcoords
vt 0.876953 0.5
vt 0.970703 0.5
vt 0.974609 0.5
vt 0.978516 0.5
vt 0.982422 0.5
vt 0.994141 0.5

# verts
v -0.7 0 0.7
v -0.7 0 0.5
v -0.7 0 0.4
v -0.7 0 -0.2
v -0.7 0 -0.4
v -0.7 0 -0.5
v -0.7 0.1 0.7
v -0.7 0.1 0.5
v -0.7 0.1 0.4
v -0.7 0.1 0.1
v -0.7 0.1 -0.2
v -0.7 0.1 -0.4
v -0.7 0.1 -0.5
v -0.7 0.1 -0.7
v -0.7 0.3 0.5
v -0.7 0.3 0.4
v -0.7 0.3 0.1
v -0.7 0.3 -0.4
v -0.7 0.4 0.4
v -0.7 0.4 0.2
v -0.7 0.4 -0.5
v -0.7 0.4 -0.7
v -0.7 0.6 0.2
v -0.7 0.6 -0.5
v -0.5 0 -1
v -0.5 0 -1.1
v -0.5 0.3 0.8
v -0.5 0.3 0.5
v -0.5 0.3 0.4
v -0.5 0.3 -1
v -0.5 0.3 -1.1
v -0.5 0.4 0.4
v -0.5 0.6 0.2
v -0.5 0.6 -0.5
v -0.5 0.7 0.2
v -0.5 0.7 0.1
v -0.5 0.7 -0.4
v -0.5 0.7 -0.5
v -0.5 0.8 0.1
v -0.5 0.8 -0.4
v -0.5 0.9 0.8
v -0.5 0.9 0.4
v -0.4 0.9 0.7
v -0.4 0.9 0.5
v -0.4 1 0.7
v -0.4 1 0.5
v -0.3 0.3 -0.8
v -0.3 0.3 -1
v -0.3 0.3 -1.1
v -0.3 0.6 -0.8
v -0.3 0.6 -1.1
v -0.2 0.1 -0.7
v -0.2 0.1 -1
v -0.2 0.3 -0.8
v -0.2 0.3 -1
v -0.2 0.4 1.1
v -0.2 0.4 1
v -0.2 0.4 0.8
v -0.2 0.4 -0.7
v -0.2 0.4 -0.8
v -0.2 0.6 1.1
v -0.2 0.6 1
v -0.2 0.6 0.8
v 0.1 0.9 0.7
v 0.1 0.9 0.5
v 0.1 1 0.7
v 0.1 1 0.5
v 0.4 0 0.7
v 0.4 0 0.5
v 0.4 0 0.4
v 0.4 0 -0.2
v 0.4 0 -0.4
v 0.4 0 -0.5
v 0.4 0.1 0.7
v 0.4 0.1 0.5
v 0.4 0.1 0.4
v 0.4 0.1 -0.2
v 0.4 0.1 -0.4
v 0.4 0.1 -0.5
v -0.5 0 0.7
v -0.5 0 0.5
v -0.5 0 0.4
v -0.5 0 -0.2
v -0.5 0 -0.4
v -0.5 0 -0.5
v -0.5 0.1 0.7
v -0.5 0.1 0.5
v -0.5 0.1 0.4
v -0.5 0.1 0.2
v -0.5 0.1 0.1
v -0.5 0.1 -0.2
v -0.5 0.1 -0.4
v -0.5 0.1 -0.5
v -0.5 0.3 0.2
v -0.5 0.3 0.1
v -0.3 0 -1
v -0.3 0 -1.1
v -0.3 0.1 -1
v -0.3 0.1 -1.1
v -0.2 0.1 -1
v -0.2 0.1 -1.1
v -0.2 0.3 -1
v -0.2 0.3 -1.1
v -0.2 0.9 0.7
v -0.2 0.9 0.5
v -0.2 1 0.7
v -0.2 1 0.5
v 0 0.3 -1
v 0 0.3 -1.1
v 0 0.4 -0.8
v 0 0.4 -1
v 0 0.6 -0.8
v 0 0.6 -1.1
v 0.1 0.1 -0.7
v 0.1 0.1 -1
v 0.1 0.4 1.1
v 0.1 0.4 1
v 0.1 0.4 0.8
v 0.1 0.4 -0.7
v 0.1 0.4 -1
v 0.1 0.6 1.1
v 0.1 0.6 1
v 0.1 0.6 0.8
v 0.3 0.9 0.7
v 0.3 0.9 0.5
v 0.3 1 0.7
v 0.3 1 0.5
v 0.4 0.3 0.8
v 0.4 0.3 0.5
v 0.4 0.3 0.4
v 0.4 0.4 0.4
v 0.4 0.6 0.2
v 0.4 0.6 -0.5
v 0.4 0.7 0.2
v 0.4 0.7 0.1
v 0.4 0.7 -0.4
v 0.4 0.7 -0.5
v 0.4 0.8 0.1
v 0.4 0.8 -0.4
v 0.4 0.9 0.8
v 0.4 0.9 0.4
v 0.6 0 0.7
v 0.6 0 0.5
v 0.6 0 0.4
v 0.6 0 -0.2
v 0.6 0 -0.4
v 0.6 0 -0.5
v 0.6 0.1 0.7
v 0.6 0.1 0.5
v 0.6 0.1 0.4
v 0.6 0.1 0.2
v 0.6 0.1 -0.2
v 0.6 0.1 -0.4
v 0.6 0.1 -0.5
v 0.6 0.1 -0.7
v 0.6 0.3 0.5
v 0.6 0.3 0.4
v 0.6 0.3 0.2
v 0.6 0.3 -0.4
v 0.6 0.4 0.4
v 0.6 0.4 0.2
v 0.6 0.4 -0.5
v 0.6 0.4 -0.7
v 0.6 0.6 0.2
v 0.6 0.6 -0.5
v -0.2 0.4 1.1
v -0.2 0.6 1.1
v 0.1 0.4 1.1
v 0.1 0.6 1.1
v -0.5 0.3 0.8
v -0.5 0.9 0.8
v -0.4 0.6 0.8
v -0.4 0.7 0.8
v -0.2 0.4 0.8
v -0.2 0.6 0.8
v -0.2 0.7 0.8
v 0.1 0.4 0.8
v 0.1 0.6 0.8
v 0.1 0.7 0.8
v 0.3 0.6 0.8
v 0.3 0.7 0.8
v 0.4 0.3 0.8
v 0.4 0.9 0.8
v -0.7 0 0.7
v -0.7 0.1 0.7
v -0.5 0 0.7
v -0.5 0.1 0.7
v -0.4 0.9 0.7
v -0.4 1 0.7
v -0.2 0.9 0.7
v -0.2 1 0.7
v 0.1 0.9 0.7
v 0.1 1 0.7
v 0.3 0.9 0.7
v 0.3 1 0.7
v 0.4 0 0.7
v 0.4 0.1 0.7
v 0.6 0 0.7
v 0.6 0.1 0.7
v -0.7 0.1 0.5
v -0.7 0.3 0.5
v -0.5 0.1 0.5
v -0.5 0.3 0.5
v 0.4 0.1 0.5
v 0.4 0.3 0.5
v 0.6 0.1 0.5
v 0.6 0.3 0.5
v -0.7 0.3 0.4
v -0.7 0.4 0.4
v -0.5 0.3 0.4
v -0.5 0.4 0.4
v 0.4 0.3 0.4
v 0.4 0.4 0.4
v 0.6 0.3 0.4
v 0.6 0.4 0.4
v -0.7 0.4 0.2
v -0.7 0.6 0.2
v -0.5 0.4 0.2
v -0.5 0.6 0.2
v -0.5 0.7 0.2
v 0.4 0.4 0.2
v 0.4 0.6 0.2
v 0.4 0.7 0.2
v 0.6 0.4 0.2
v 0.6 0.6 0.2
v -0.5 0.7 0.1
v -0.5 0.8 0.1
v 0.4 0.7 0.1
v 0.4 0.8 0.1
v -0.7 0 -0.2
v -0.7 0.1 -0.2
v -0.5 0 -0.2
v -0.5 0.1 -0.2
v 0.4 0 -0.2
v 0.4 0.1 -0.2
v 0.6 0 -0.2
v 0.6 0.1 -0.2
v -0.7 0.1 -0.4
v -0.7 0.3 -0.4
v -0.5 0.1 -0.4
v -0.5 0.3 -0.4
v 0.4 0.1 -0.4
v 0.4 0.3 -0.4
v 0.6 0.1 -0.4
v 0.6 0.3 -0.4
v -0.3 0.3 -0.8
v -0.3 0.6 -0.8
v -0.2 0.3 -0.8
v -0.2 0.4 -0.8
v 0 0.4 -0.8
v 0 0.6 -0.8
v -0.5 0 -1
v -0.5 0.3 -1
v -0.3 0 -1
v -0.3 0.1 -1
v -0.3 0.3 -1
v -0.2 0.1 -1
v -0.2 0.3 -1
v -0.4 0.9 0.5
v -0.4 1 0.5
v -0.2 0.9 0.5
v -0.2 1 0.5
v 0.1 0.9 0.5
v 0.1 1 0.5
v 0.3 0.9 0.5
v 0.3 1 0.5
v -0.7 0 0.4
v -0.7 0.1 0.4
v -0.5 0 0.4
v -0.5 0.1 0.4
v -0.5 0.4 0.4
v -0.5 0.9 0.4
v 0.4 0 0.4
v 0.4 0.1 0.4
v 0.4 0.4 0.4
v 0.4 0.9 0.4
v 0.6 0 0.4
v 0.6 0.1 0.4
v -0.5 0.1 0.2
v -0.5 0.3 0.2
v 0.4 0.1 0.2
v 0.4 0.3 0.2
v 0.6 0.1 0.2
v 0.6 0.3 0.2
v -0.7 0.1 0.1
v -0.7 0.3 0.1
v -0.5 0.1 0.1
v -0.5 0.3 0.1
v -0.5 0.7 -0.4
v -0.5 0.8 -0.4
v 0.4 0.7 -0.4
v 0.4 0.8 -0.4
v -0.7 0 -0.5
v -0.7 0.1 -0.5
v -0.7 0.4 -0.5
v -0.7 0.6 -0.5
v -0.5 0 -0.5
v -0.5 0.1 -0.5
v -0.5 0.4 -0.5
v -0.5 0.6 -0.5
v -0.5 0.7 -0.5
v 0.4 0 -0.5
v 0.4 0.1 -0.5
v 0.4 0.4 -0.5
v 0.4 0.6 -0.5
v 0.4 0.7 -0.5
v 0.6 0 -0.5
v 0.6 0.1 -0.5
v 0.6 0.4 -0.5
v 0.6 0.6 -0.5
v -0.7 0.1 -0.7
v -0.7 0.4 -0.7
v -0.5 0.1 -0.7
v -0.5 0.4 -0.7
v -0.2 0.1 -0.7
v -0.2 0.4 -0.7
v 0.1 0.1 -0.7
v 0.1 0.4 -0.7
v 0.4 0.1 -0.7
v 0.4 0.4 -0.7
v 0.6 0.1 -0.7
v 0.6 0.4 -0.7
v -0.2 0.1 -1
v -0.2 0.3 -1
v 0 0.3 -1
v 0 0.4 -1
v 0.1 0.1 -1
v 0.1 0.4 -1
v -0.5 0 -1.1
v -0.5 0.3 -1.1
v -0.3 0 -1.1
v -0.3 0.1 -1.1
v -0.3 0.3 -1.1
v -0.3 0.6 -1.1
v -0.2 0.1 -1.1
v -0.2 0.3 -1.1
v 0 0.3 -1.1
v 0 0.6 -1.1
v -0.7 0 0.7
v -0.5 0 0.7
v 0.4 0 0.7
v 0.6 0 0.7
v -0.7 0 0.5
v -0.5 0 0.5
v 0.4 0 0.5
v 0.6 0 0.5
v -0.7 0 0.4
v -0.5 0 0.4
v 0.4 0 0.4
v 0.6 0 0.4
v -0.7 0 -0.2
v -0.5 0 -0.2
v 0.4 0 -0.2
v 0.6 0 -0.2
v -0.7 0 -0.4
v -0.5 0 -0.4
v 0.4 0 -0.4
v 0.6 0 -0.4
v -0.7 0 -0.5
v -0.5 0 -0.5
v 0.4 0 -0.5
v 0.6 0 -0.5
v -0.5 0 -1
v -0.3 0 -1
v -0.5 0 -1.1
v -0.3 0 -1.1
v -0.5 0.1 0.5
v 0.4 0.1 0.5
v -0.7 0.1 0.4
v -0.5 0.1 0.4
v 0.4 0.1 0.4
v 0.6 0.1 0.4
v -0.5 0.1 0.2
v 0.4 0.1 0.2
v 0.6 0.1 0.2
v -0.7 0.1 0.1
v -0.5 0.1 0.1
v -0.5 0.1 -0.4
v 0.4 0.1 -0.4
v -0.7 0.1 -0.5
v -0.5 0.1 -0.5
v 0.4 0.1 -0.5
v 0.6 0.1 -0.5
v -0.5 0.1 -0.6
v -0.2 0.1 -0.6
v 0.1 0.1 -0.6
v 0.4 0.1 -0.6
v -0.7 0.1 -0.7
v -0.5 0.1 -0.7
v -0.2 0.1 -0.7
v 0.1 0.1 -0.7
v 0.4 0.1 -0.7
v 0.6 0.1 -0.7
v -0.3 0.1 -1
v -0.2 0.1 -1
v 0.1 0.1 -1
v -0.3 0.1 -1.1
v -0.2 0.1 -1.1
v -0.5 0.3 0.8
v 0.4 0.3 0.8
v -0.5 0.3 0.5
v 0.4 0.3 0.5
v -0.5 0.3 0.2
v 0.4 0.3 0.2
v 0.6 0.3 0.2
v -0.7 0.3 0.1
v -0.5 0.3 0.1
v -0.7 0.3 -0.4
v -0.5 0.3 -0.4
v 0.4 0.3 -0.4
v 0.6 0.3 -0.4
v -0.3 0.3 -0.8
v -0.2 0.3 -0.8
v -0.3 0.3 -1
v -0.2 0.3 -1
v 0 0.3 -1
v -0.2 0.3 -1.1
v 0 0.3 -1.1
v -0.2 0.4 1.1
v 0.1 0.4 1.1
v -0.2 0.4 1
v 0.1 0.4 1
v -0.2 0.4 0.8
v 0.1 0.4 0.8
v -0.7 0.1 0.7
v -0.5 0.1 0.7
v 0.4 0.1 0.7
v 0.6 0.1 0.7
v -0.7 0.1 0.5
v -0.5 0.1 0.5
v 0.4 0.1 0.5
v 0.6 0.1 0.5
v -0.7 0.1 -0.2
v -0.5 0.1 -0.2
v 0.4 0.1 -0.2
v 0.6 0.1 -0.2
v -0.7 0.1 -0.4
v -0.5 0.1 -0.4
v 0.4 0.1 -0.4
v 0.6 0.1 -0.4
v -0.7 0.3 0.5
v -0.5 0.3 0.5
v 0.4 0.3 0.5
v 0.6 0.3 0.5
v -0.7 0.3 0.4
v -0.5 0.3 0.4
v 0.4 0.3 0.4
v 0.6 0.3 0.4
v -0.5 0.3 -1
v -0.3 0.3 -1
v -0.5 0.3 -1.1
v -0.3 0.3 -1.1
v -0.7 0.4 0.4
v -0.5 0.4 0.4
v 0.4 0.4 0.4
v 0.6 0.4 0.4
v -0.7 0.4 0.2
v -0.5 0.4 0.2
v 0.4 0.4 0.2
v 0.6 0.4 0.2
v -0.7 0.4 -0.5
v -0.5 0.4 -0.5
v 0.4 0.4 -0.5
v 0.6 0.4 -0.5
v -0.7 0.4 -0.7
v -0.5 0.4 -0.7
v -0.2 0.4 -0.7
v 0.1 0.4 -0.7
v 0.4 0.4 -0.7
v 0.6 0.4 -0.7
v -0.2 0.4 -0.8
v 0 0.4 -0.8
v 0 0.4 -1
v 0.1 0.4 -1
v -0.2 0.6 1.1
v 0.1 0.6 1.1
v -0.2 0.6 1
v 0.1 0.6 1
v -0.2 0.6 0.8
v 0.1 0.6 0.8
v -0.7 0.6 0.2
v -0.5 0.6 0.2
v 0.4 0.6 0.2
v 0.6 0.6 0.2
v -0.7 0.6 -0.5
v -0.5 0.6 -0.5
v 0.4 0.6 -0.5
v 0.6 0.6 -0.5
v -0.3 0.6 -0.8
v 0 0.6 -0.8
v -0.3 0.6 -1.1
v 0 0.6 -1.1
v -0.5 0.7 0.2
v 0.4 0.7 0.2
v -0.5 0.7 0.1
v 0.4 0.7 0.1
v -0.5 0.7 -0.4
v 0.4 0.7 -0.4
v -0.5 0.7 -0.5
v 0.4 0.7 -0.5
v -0.5 0.8 0.1
v 0.4 0.8 0.1
v -0.5 0.8 -0.4
v 0.4 0.8 -0.4
v -0.5 0.9 0.8
v 0.4 0.9 0.8
v -0.4 0.9 0.7
v -0.2 0.9 0.7
v 0.1 0.9 0.7
v 0.3 0.9 0.7
v -0.4 0.9 0.5
v -0.2 0.9 0.5
v 0.1 0.9 0.5
v 0.3 0.9 0.5
v -0.5 0.9 0.4
v 0.4 0.9 0.4
v -0.4 1 0.7
v -0.2 1 0.7
v 0.1 1 0.7
v 0.3 1 0.7
v -0.4 1 0.5
v -0.2 1 0.5
v 0.1 1 0.5
v 0.3 1 0.5

# faces
f 7/3/1 2/3/1 1/3/1
f 8/2/1 3/2/1 2/2/1
f 8/3/1 2/3/1 7/3/1
f 9/2/1 3/2/1 8/2/1
f 11/3/1 5/3/1 4/3/1
f 12/2/1 6/2/1 5/2/1
f 12/3/1 5/3/1 11/3/1
f 13/2/1 6/2/1 12/2/1
f 15/2/1 10/2/1 9/2/1
f 15/2/1 9/2/1 8/2/1
f 16/2/1 10/2/1 15/2/1
f 17/2/1 10/2/1 16/2/1
f 18/2/1 14/2/1 13/2/1
f 18/2/1 13/2/1 12/2/1
f 19/2/1 17/2/1 16/2/1
f 19/2/1 18/2/1 17/2/1
f 20/2/1 18/2/1 19/2/1
f 21/2/1 14/2/1 18/2/1
f 21/2/1 18/2/1 20/2/1
f 22/2/1 14/2/1 21/2/1
f 23/2/1 21/2/1 20/2/1
f 24/2/1 21/2/1 23/2/1
f 30/5/1 26/5/1 25/5/1
f 31/5/1 26/5/1 30/5/1
f 32/1/1 29/1/1 28/1/1
f 32/1/1 28/1/1 27/1/1
f 35/1/1 34/1/1 33/1/1
f 36/1/1 34/1/1 35/1/1
f 37/1/1 34/1/1 36/1/1
f 38/1/1 34/1/1 37/1/1
f 39/1/1 37/1/1 36/1/1
f 40/1/1 37/1/1 39/1/1
f 41/1/1 32/1/1 27/1/1
f 42/1/1 32/1/1 41/1/1
f 45/5/1 44/5/1 43/5/1
f 46/5/1 44/5/1 45/5/1
f 50/5/1 48/5/1 47/5/1
f 50/5/1 49/5/1 48/5/1
f 51/5/1 49/5/1 50/5/1
f 54/5/1 53/5/1 52/5/1
f 55/5/1 53/5/1 54/5/1
f 59/5/1 54/5/1 52/5/1
f 60/5/1 54/5/1 59/5/1
f 61/2/1 57/2/1 56/2/1
f 62/1/1 58/1/1 57/1/1
f 62/2/1 57/2/1 61/2/1
f 63/1/1 58/1/1 62/1/1
f 66/5/1 65/5/1 64/5/1
f 67/5/1 65/5/1 66/5/1
f 74/3/1 69/3/1 68/3/1
f 75/2/1 70/2/1 69/2/1
f 75/3/1 69/3/1 74/3/1
f 76/2/1 70/2/1 75/2/1
f 77/3/1 72/3/1 71/3/1
f 78/2/1 73/2/1 72/2/1
f 78/3/1 72/3/1 77/3/1
f 79/2/1 73/2/1 78/2/1
f 80/3/2 81/3/2 86/3/2
f 81/2/2 82/2/2 87/2/2
f 86/3/2 81/3/2 87/3/2
f 87/2/2 82/2/2 88/2/2
f 83/3/2 84/3/2 91/3/2
f 84/2/2 85/2/2 92/2/2
f 91/3/2 84/3/2 92/3/2
f 92/2/2 85/2/2 93/2/2
f 89/2/2 90/2/2 94/2/2
f 94/2/2 90/2/2 95/2/2
f 96/5/2 97/5/2 98/5/2
f 98/5/2 97/5/2 99/5/2
f 100/5/2 101/5/2 102/5/2
f 102/5/2 101/5/2 103/5/2
f 104/5/2 105/5/2 106/5/2
f 106/5/2 105/5/2 107/5/2
f 108/5/2 109/5/2 111/5/2
f 110/5/2 111/5/2 112/5/2
f 111/5/2 109/5/2 113/5/2
f 112/5/2 111/5/2 113/5/2
f 114/5/2 115/5/2 119/5/2
f 119/5/2 115/5/2 120/5/2
f 116/2/2 117/2/2 121/2/2
f 117/1/2 118/1/2 122/1/2
f 121/2/2 117/2/2 122/2/2
f 122/1/2 118/1/2 123/1/2
f 124/5/2 125/5/2 126/5/2
f 126/5/2 125/5/2 127/5/2
f 128/1/2 129/1/2 131/1/2
f 129/1/2 130/1/2 131/1/2
f 132/1/2 133/1/2 134/1/2
f 134/1/2 133/1/2 135/1/2
f 135/1/2 133/1/2 136/1/2
f 136/1/2 133/1/2 137/1/2
f 135/1/2 136/1/2 138/1/2
f 138/1/2 136/1/2 139/1/2
f 128/1/2 131/1/2 140/1/2
f 140/1/2 131/1/2 141/1/2
f 142/3/2 143/3/2 148/3/2
f 143/2/2 144/2/2 149/2/2
f 148/3/2 143/3/2 149/3/2
f 149/2/2 144/2/2 150/2/2
f 145/3/2 146/3/2 152/3/2
f 146/2/2 147/2/2 153/2/2
f 152/3/2 146/3/2 153/3/2
f 153/2/2 147/2/2 154/2/2
f 150/2/2 151/2/2 156/2/2
f 149/2/2 150/2/2 156/2/2
f 156/2/2 151/2/2 157/2/2
f 157/2/2 151/2/2 158/2/2
f 154/2/2 155/2/2 159/2/2
f 153/2/2 154/2/2 159/2/2
f 157/2/2 158/2/2 160/2/2
f 158/2/2 159/2/2 160/2/2
f 160/2/2 159/2/2 161/2/2
f 159/2/2 155/2/2 162/2/2
f 161/2/2 159/2/2 162/2/2
f 162/2/2 155/2/2 163/2/2
f 161/2/2 162/2/2 164/2/2
f 164/2/2 162/2/2 165/2/2
f 168/2/3 167/2/3 166/2/3
f 169/2/3 167/2/3 168/2/3
f 172/1/3 171/1/3 170/1/3
f 173/1/3 171/1/3 172/1/3
f 174/1/3 172/1/3 170/1/3
f 175/6/3 173/6/3 172/6/3
f 175/1/3 172/1/3 174/1/3
f 176/1/3 171/1/3 173/1/3
f 176/6/3 173/6/3 175/6/3
f 177/1/3 174/1/3 170/1/3
f 178/1/3 176/1/3 175/1/3
f 179/1/3 171/1/3 176/1/3
f 179/1/3 176/1/3 178/1/3
f 180/1/3 178/1/3 177/1/3
f 180/6/3 179/6/3 178/6/3
f 181/1/3 171/1/3 179/1/3
f 181/6/3 179/6/3 180/6/3
f 182/1/3 180/1/3 177/1/3
f 182/1/3 177/1/3 170/1/3
f 182/1/3 181/1/3 180/1/3
f 183/1/3 171/1/3 181/1/3
f 183/1/3 181/1/3 182/1/3
f 186/3/3 185/3/3 184/3/3
f 187/3/3 185/3/3 186/3/3
f 190/5/3 189/5/3 188/5/3
f 191/5/3 189/5/3 190/5/3
f 194/5/3 193/5/3 192/5/3
f 195/5/3 193/5/3 194/5/3
f 198/3/3 197/3/3 196/3/3
f 199/3/3 197/3/3 198/3/3
f 202/2/3 201/2/3 200/2/3
f 203/2/3 201/2/3 202/2/3
f 204/1/3 203/1/3 202/1/3
f 205/1/3 203/1/3 204/1/3
f 206/2/3 205/2/3 204/2/3
f 207/2/3 205/2/3 206/2/3
f 210/2/3 209/2/3 208/2/3
f 211/2/3 209/2/3 210/2/3
f 214/2/3 213/2/3 212/2/3
f 215/2/3 213/2/3 214/2/3
f 218/2/3 217/2/3 216/2/3
f 219/2/3 217/2/3 218/2/3
f 221/1/3 219/1/3 218/1/3
f 221/1/3 220/1/3 219/1/3
f 222/1/3 220/1/3 221/1/3
f 223/1/3 220/1/3 222/1/3
f 224/2/3 222/2/3 221/2/3
f 225/2/3 222/2/3 224/2/3
f 228/1/3 227/1/3 226/1/3
f 229/1/3 227/1/3 228/1/3
f 232/3/3 231/3/3 230/3/3
f 233/3/3 231/3/3 232/3/3
f 236/3/3 235/3/3 234/3/3
f 237/3/3 235/3/3 236/3/3
f 240/2/3 239/2/3 238/2/3
f 241/2/3 239/2/3 240/2/3
f 242/4/3 241/4/3 240/4/3
f 243/4/3 241/4/3 242/4/3
f 244/2/3 243/2/3 242/2/3
f 245/2/3 243/2/3 244/2/3
f 248/5/3 247/5/3 246/5/3
f 249/5/3 247/5/3 248/5/3
f 250/5/3 247/5/3 249/5/3
f 251/5/3 247/5/3 250/5/3
f 254/5/3 253/5/3 252/5/3
f 255/5/3 253/5/3 254/5/3
f 256/5/3 253/5/3 255/5/3
f 257/5/3 256/5/3 255/5/3
f 258/5/3 256/5/3 257/5/3
f 259/5/4 260/5/4 261/5/4
f 261/5/4 260/5/4 262/5/4
f 263/5/4 264/5/4 265/5/4
f 265/5/4 264/5/4 266/5/4
f 267/2/4 268/2/4 269/2/4
f 269/2/4 268/2/4 270/2/4
f 271/1/4 272/1/4 275/1/4
f 275/1/4 272/1/4 276/1/4
f 273/2/4 274/2/4 277/2/4
f 277/2/4 274/2/4 278/2/4
f 279/4/4 280/4/4 281/4/4
f 281/4/4 280/4/4 282/4/4
f 281/2/4 282/2/4 283/2/4
f 283/2/4 282/2/4 284/2/4
f 285/2/4 286/2/4 287/2/4
f 287/2/4 286/2/4 288/2/4
f 289/1/4 290/1/4 291/1/4
f 291/1/4 290/1/4 292/1/4
f 293/2/4 294/2/4 297/2/4
f 297/2/4 294/2/4 298/2/4
f 295/2/4 296/2/4 299/2/4
f 299/2/4 296/2/4 300/2/4
f 300/1/4 301/1/4 304/1/4
f 299/1/4 300/1/4 304/1/4
f 304/1/4 301/1/4 305/1/4
f 305/1/4 301/1/4 306/1/4
f 302/2/4 303/2/4 307/2/4
f 307/2/4 303/2/4 308/2/4
f 304/2/4 305/2/4 309/2/4
f 309/2/4 305/2/4 310/2/4
f 311/2/4 312/2/4 313/2/4
f 313/2/4 312/2/4 314/2/4
f 313/1/4 314/1/4 315/1/4
f 315/1/4 314/1/4 316/1/4
f 317/1/4 318/1/4 319/1/4
f 319/1/4 318/1/4 320/1/4
f 319/2/4 320/2/4 321/2/4
f 321/2/4 320/2/4 322/2/4
f 323/5/4 324/5/4 325/5/4
f 323/5/4 325/5/4 327/5/4
f 325/5/4 326/5/4 327/5/4
f 327/5/4 326/5/4 328/5/4
f 329/5/4 330/5/4 331/5/4
f 331/5/4 330/5/4 332/5/4
f 332/5/4 330/5/4 333/5/4
f 333/5/4 334/5/4 335/5/4
f 332/5/4 333/5/4 335/5/4
f 335/5/4 334/5/4 336/5/4
f 336/5/4 334/5/4 337/5/4
f 337/5/4 334/5/4 338/5/4
f 343/3/5 340/3/5 339/3/5
f 344/3/5 340/3/5 343/3/5
f 345/3/5 342/3/5 341/3/5
f 346/3/5 342/3/5 345/3/5
f 347/2/5 344/2/5 343/2/5
f 348/2/5 344/2/5 347/2/5
f 349/2/5 346/2/5 345/2/5
f 350/2/5 346/2/5 349/2/5
f 355/3/5 352/3/5 351/3/5
f 356/3/5 352/3/5 355/3/5
f 357/3/5 354/3/5 353/3/5
f 358/3/5 354/3/5 357/3/5
f 359/2/5 356/2/5 355/2/5
f 360/2/5 356/2/5 359/2/5
f 361/2/5 358/2/5 357/2/5
f 362/2/5 358/2/5 361/2/5
f 365/5/5 364/5/5 363/5/5
f 366/5/5 364/5/5 365/5/5
f 370/1/5 368/1/5 367/1/5
f 371/1/5 368/1/5 370/1/5
f 373/2/5 370/2/5 369/2/5
f 373/4/5 371/4/5 370/4/5
f 374/2/5 372/2/5 371/2/5
f 374/4/5 371/4/5 373/4/5
f 375/2/5 372/2/5 374/2/5
f 376/2/5 373/2/5 369/2/5
f 377/2/5 373/2/5 376/2/5
f 381/4/5 379/4/5 378/4/5
f 382/4/5 379/4/5 381/4/5
f 384/2/5 381/2/5 380/2/5
f 384/4/5 382/4/5 381/4/5
f 385/4/5 382/4/5 384/4/5
f 386/4/5 382/4/5 385/4/5
f 387/2/5 383/2/5 382/2/5
f 387/4/5 382/4/5 386/4/5
f 388/2/5 384/2/5 380/2/5
f 389/1/5 385/1/5 384/1/5
f 389/2/5 384/2/5 388/2/5
f 390/4/5 386/4/5 385/4/5
f 390/1/5 385/1/5 389/1/5
f 391/1/5 387/1/5 386/1/5
f 391/4/5 386/4/5 390/4/5
f 392/2/5 383/2/5 387/2/5
f 392/1/5 387/1/5 391/1/5
f 393/2/5 383/2/5 392/2/5
f 395/5/5 391/5/5 390/5/5
f 396/5/5 391/5/5 395/5/5
f 397/5/5 395/5/5 394/5/5
f 398/5/5 395/5/5 397/5/5
f 401/1/5 400/1/5 399/1/5
f 402/1/5 400/1/5 401/1/5
f 407/4/5 404/4/5 403/4/5
f 408/2/5 407/2/5 406/2/5
f 409/4/5 404/4/5 407/4/5
f 409/2/5 407/2/5 408/2/5
f 410/2/5 405/2/5 404/2/5
f 410/4/5 404/4/5 409/4/5
f 411/2/5 405/2/5 410/2/5
f 414/5/5 413/5/5 412/5/5
f 415/5/5 413/5/5 414/5/5
f 417/5/5 416/5/5 415/5/5
f 418/5/5 416/5/5 417/5/5
f 421/2/5 420/2/5 419/2/5
f 422/2/5 420/2/5 421/2/5
f 423/1/5 422/1/5 421/1/5
f 424/1/5 422/1/5 423/1/5
f 425/3/6 426/3/6 429/3/6
f 429/3/6 426/3/6 430/3/6
f 427/3/6 428/3/6 431/3/6
f 431/3/6 428/3/6 432/3/6
f 433/3/6 434/3/6 437/3/6
f 437/3/6 434/3/6 438/3/6
f 435/3/6 436/3/6 439/3/6
f 439/3/6 436/3/6 440/3/6
f 441/2/6 442/2/6 445/2/6
f 445/2/6 442/2/6 446/2/6
f 443/2/6 444/2/6 447/2/6
f 447/2/6 444/2/6 448/2/6
f 449/5/6 450/5/6 451/5/6
f 451/5/6 450/5/6 452/5/6
f 453/2/6 454/2/6 457/2/6
f 454/1/6 455/1/6 458/1/6
f 457/2/6 454/2/6 458/2/6
f 455/2/6 456/2/6 459/2/6
f 458/1/6 455/1/6 459/1/6
f 459/2/6 456/2/6 460/2/6
f 461/2/6 462/2/6 465/2/6
f 462/1/6 463/1/6 466/1/6
f 465/2/6 462/2/6 466/2/6
f 466/1/6 463/1/6 467/1/6
f 467/1/6 463/1/6 468/1/6
f 463/2/6 464/2/6 469/2/6
f 468/1/6 463/1/6 469/1/6
f 469/2/6 464/2/6 470/2/6
f 467/5/6 468/5/6 471/5/6
f 471/5/6 468/5/6 472/5/6
f 472/5/6 468/5/6 473/5/6
f 473/5/6 468/5/6 474/5/6
f 475/2/6 476/2/6 477/2/6
f 477/2/6 476/2/6 478/2/6
f 477/1/6 478/1/6 479/1/6
f 479/1/6 478/1/6 480/1/6
f 481/2/6 482/2/6 485/2/6
f 485/2/6 482/2/6 486/2/6
f 483/2/6 484/2/6 487/2/6
f 487/2/6 484/2/6 488/2/6
f 489/5/6 490/5/6 491/5/6
f 491/5/6 490/5/6 492/5/6
f 493/1/6 494/1/6 495/1/6
f 495/1/6 494/1/6 496/1/6
f 497/1/6 498/1/6 499/1/6
f 499/1/6 498/1/6 500/1/6
f 501/1/6 502/1/6 503/1/6
f 503/1/6 502/1/6 504/1/6
f 505/1/6 506/1/6 507/1/6
f 507/1/6 506/1/6 508/1/6
f 508/1/6 506/1/6 509/1/6
f 509/1/6 506/1/6 510/1/6
f 505/1/6 507/1/6 511/1/6
f 508/1/6 509/1/6 512/1/6
f 512/1/6 509/1/6 513/1/6
f 510/1/6 506/1/6 514/1/6
f 512/1/6 513/1/6 515/1/6
f 513/1/6 514/1/6 515/1/6
f 505/1/6 511/1/6 515/1/6
f 511/1/6 512/1/6 515/1/6
f 514/1/6 506/1/6 516/1/6
f 515/1/6 514/1/6 516/1/6
f 517/5/6 518/5/6 521/5/6
f 521/5/6 518/5/6 522/5/6
f 519/5/6 520/5/6 523/5/6
f 523/5/6 520/5/6 524/5/6
