# MagicaVoxel @ Ephtracy

# group
o 

# material
mtllib BaseComputerObj.mtl
usemtl palette

# normals
vn -1 0 0
vn 1 0 0
vn 0 0 1
vn 0 0 -1
vn 0 -1 0
vn 0 1 0

# texcoords
vt 0.951172 0.5
vt 0.962891 0.5
vt 0.970703 0.5
vt 0.974609 0.5
vt 0.978516 0.5
vt 0.982422 0.5
vt 0.994141 0.5

# verts
v -2 0 -0.8
v -2 0 -1.9
v -2 0 -2
v -2 1.9 -0.8
v -2 1.9 -1.9
v -2 2.1 -0.8
v -2 2.1 -1.9
v -2 4 -1.9
v -2 4 -2
v -1.5 2.1 -0.9
v -1.5 2.1 -1.2
v -1.5 2.2 -0.9
v -1.5 2.2 -1.2
v -0.8 2.1 -0.8
v -0.8 2.1 -1.2
v -0.8 2.2 -0.8
v -0.8 2.2 -1.2
v -0.8 2.6 -1.3
v -0.8 2.6 -1.4
v -0.8 3.4 -1.3
v -0.8 3.4 -1.4
v -0.6 2.1 -1.3
v -0.6 2.1 -1.8
v -0.6 2.2 -1.3
v -0.6 2.2 -1.8
v -0.4 2.2 -1.6
v -0.4 2.2 -1.7
v -0.4 2.8 -1.5
v -0.4 2.8 -1.6
v -0.4 2.9 -1.4
v -0.4 2.9 -1.5
v -0.4 3 -1.5
v -0.4 3 -1.7
v -0.4 3.1 -1.4
v -0.4 3.1 -1.5
v 0.8 0 2
v 0.8 0 1.2
v 0.8 1.9 2
v 0.8 1.9 1.2
v 0.8 1.9 -0.8
v 0.8 2.1 2
v 0.8 2.1 -0.8
v 1.9 0 1.2
v 1.9 0 1
v 1.9 0 0.8
v 1.9 0 -1.9
v 1.9 1.9 1.2
v 1.9 1.9 1
v 1.9 1.9 0.8
v 1.9 1.9 -1.9
v 1.9 2.1 2
v 1.9 2.1 1
v 1.9 2.1 0.8
v 1.9 2.1 -1.9
v 1.9 4 2
v 1.9 4 1
v 1.9 4 0.8
v 1.9 4 -1.9
v -1.2 0 -0.8
v -1.2 0 -1.9
v -1.2 1.9 -0.8
v -1.2 1.9 -1.9
v -1.2 2.1 -0.9
v -1.2 2.1 -1.2
v -1.2 2.2 -0.9
v -1.2 2.2 -1.2
v -0.2 2.2 -1.6
v -0.2 2.2 -1.7
v -0.2 2.8 -1.5
v -0.2 2.8 -1.6
v -0.2 2.9 -1.4
v -0.2 2.9 -1.5
v -0.2 3 -1.5
v -0.2 3 -1.7
v -0.2 3.1 -1.4
v -0.2 3.1 -1.5
v 2.38419e-07 2.1 -1.3
v 2.38419e-07 2.1 -1.8
v 2.38419e-07 2.2 -1.3
v 2.38419e-07 2.2 -1.8
v 0.2 2.1 -0.8
v 0.2 2.1 -1.2
v 0.2 2.2 -0.8
v 0.2 2.2 -1.2
v 0.2 2.6 -1.3
v 0.2 2.6 -1.4
v 0.2 3.4 -1.3
v 0.2 3.4 -1.4
v 2 0 2
v 2 0 1
v 2 0 0.8
v 2 0 -2
v 2 4 2
v 2 4 1
v 2 4 0.8
v 2 4 -2
v 0.8 0 2
v 0.8 1.9 2
v 0.8 2.1 2
v 1.9 0 2
v 1.9 1.9 2
v 1.9 2.1 2
v 1.9 4 2
v 2 0 2
v 2 4 2
v -2 0 -0.8
v -2 1.9 -0.8
v -2 2.1 -0.8
v -1.2 0 -0.8
v -1.2 1.9 -0.8
v -0.8 2.1 -0.8
v -0.8 2.2 -0.8
v 0.2 2.1 -0.8
v 0.2 2.2 -0.8
v 0.8 1.9 -0.8
v 0.8 2.1 -0.8
v -1.5 2.1 -0.9
v -1.5 2.2 -0.9
v -1.2 2.1 -0.9
v -1.2 2.2 -0.9
v -0.8 2.6 -1.3
v -0.8 3.4 -1.3
v -0.6 2.1 -1.3
v -0.6 2.2 -1.3
v 2.38419e-07 2.1 -1.3
v 2.38419e-07 2.2 -1.3
v 0.2 2.6 -1.3
v 0.2 3.4 -1.3
v -0.4 2.8 -1.5
v -0.4 2.9 -1.5
v -0.2 2.8 -1.5
v -0.2 2.9 -1.5
v -0.4 2.2 -1.6
v -0.4 2.8 -1.6
v -0.2 2.2 -1.6
v -0.2 2.8 -1.6
v -2 2.1 -1.9
v -2 4 -1.9
v -1.2 0 -1.9
v -1.2 1.9 -1.9
v -1 0 -1.9
v -1 1.9 -1.9
v -1 2.1 -1.9
v -1 4 -1.9
v -0.8 0 -1.9
v -0.8 1.9 -1.9
v -0.8 2.1 -1.9
v -0.8 4 -1.9
v 1.9 0 -1.9
v 1.9 1.9 -1.9
v 1.9 2.1 -1.9
v 1.9 4 -1.9
v 0.8 0 1.2
v 0.8 1.9 1.2
v 1.9 0 1.2
v 1.9 1.9 1.2
v -1.5 2.1 -1.2
v -1.5 2.2 -1.2
v -1.2 2.1 -1.2
v -1.2 2.2 -1.2
v -0.8 2.1 -1.2
v -0.8 2.2 -1.2
v 0.2 2.1 -1.2
v 0.2 2.2 -1.2
v -0.8 2.6 -1.4
v -0.8 3.4 -1.4
v -0.4 2.9 -1.4
v -0.4 3.1 -1.4
v -0.2 2.9 -1.4
v -0.2 3.1 -1.4
v 0.2 2.6 -1.4
v 0.2 3.4 -1.4
v -0.4 3 -1.5
v -0.4 3.1 -1.5
v -0.2 3 -1.5
v -0.2 3.1 -1.5
v -0.4 2.2 -1.7
v -0.4 3 -1.7
v -0.2 2.2 -1.7
v -0.2 3 -1.7
v -0.6 2.1 -1.8
v -0.6 2.2 -1.8
v 2.38419e-07 2.1 -1.8
v 2.38419e-07 2.2 -1.8
v -2 0 -2
v -2 4 -2
v -1 0 -2
v -1 4 -2
v -0.8 0 -2
v -0.8 4 -2
v 2 0 -2
v 2 4 -2
v 0.8 0 2
v 1.9 0 2
v 2 0 2
v 0.8 0 1.2
v 1.9 0 1.2
v 1.9 0 1
v 2 0 1
v 1.9 0 0.8
v 2 0 0.8
v -2 0 -0.8
v -1.2 0 -0.8
v -2 0 -1.9
v -1.2 0 -1.9
v -1 0 -1.9
v -0.8 0 -1.9
v 1.9 0 -1.9
v -2 0 -2
v -1 0 -2
v -0.8 0 -2
v 2 0 -2
v 0.8 1.9 1.2
v 1.9 1.9 1.2
v 1.9 1.9 1
v 1.9 1.9 0.8
v -1.2 1.9 -0.8
v 0.8 1.9 -0.8
v -1.2 1.9 -1.9
v -1 1.9 -1.9
v -0.8 1.9 -1.9
v 1.9 1.9 -1.9
v -0.8 2.6 -1.3
v 0.2 2.6 -1.3
v -0.8 2.6 -1.4
v 0.2 2.6 -1.4
v -0.4 2.8 -1.5
v -0.2 2.8 -1.5
v -0.4 2.8 -1.6
v -0.2 2.8 -1.6
v -0.4 2.9 -1.4
v -0.2 2.9 -1.4
v -0.4 2.9 -1.5
v -0.2 2.9 -1.5
v 0.8 2.1 2
v 1.9 2.1 2
v 1.9 2.1 1
v 1.9 2.1 0.8
v -2 2.1 -0.8
v -0.8 2.1 -0.8
v 0.2 2.1 -0.8
v 0.8 2.1 -0.8
v -1.5 2.1 -0.9
v -1.2 2.1 -0.9
v -1.5 2.1 -1.2
v -1.2 2.1 -1.2
v -0.8 2.1 -1.2
v 0.2 2.1 -1.2
v -0.6 2.1 -1.3
v 2.38419e-07 2.1 -1.3
v -0.6 2.1 -1.8
v 2.38419e-07 2.1 -1.8
v -2 2.1 -1.9
v -1 2.1 -1.9
v -0.8 2.1 -1.9
v 1.9 2.1 -1.9
v -0.8 2.2 -0.8
v 0.2 2.2 -0.8
v -1.5 2.2 -0.9
v -1.2 2.2 -0.9
v -1.5 2.2 -1.2
v -1.2 2.2 -1.2
v -0.8 2.2 -1.2
v 0.2 2.2 -1.2
v -0.6 2.2 -1.3
v 2.38419e-07 2.2 -1.3
v -0.4 2.2 -1.6
v -0.2 2.2 -1.6
v -0.4 2.2 -1.7
v -0.2 2.2 -1.7
v -0.6 2.2 -1.8
v 2.38419e-07 2.2 -1.8
v -0.4 3 -1.5
v -0.2 3 -1.5
v -0.4 3 -1.7
v -0.2 3 -1.7
v -0.4 3.1 -1.4
v -0.2 3.1 -1.4
v -0.4 3.1 -1.5
v -0.2 3.1 -1.5
v -0.8 3.4 -1.3
v 0.2 3.4 -1.3
v -0.8 3.4 -1.4
v 0.2 3.4 -1.4
v 1.9 4 2
v 2 4 2
v 1.9 4 1
v 2 4 1
v 1.9 4 0.8
v 2 4 0.8
v -2 4 -1.9
v -1 4 -1.9
v -0.8 4 -1.9
v 1.9 4 -1.9
v -2 4 -2
v -1 4 -2
v -0.8 4 -2
v 2 4 -2

# faces
f 4/4/1 2/4/1 1/4/1
f 5/6/1 3/6/1 2/6/1
f 5/4/1 2/4/1 4/4/1
f 6/6/1 5/6/1 4/6/1
f 7/6/1 3/6/1 5/6/1
f 7/6/1 5/6/1 6/6/1
f 8/6/1 3/6/1 7/6/1
f 9/6/1 3/6/1 8/6/1
f 12/1/1 11/1/1 10/1/1
f 13/1/1 11/1/1 12/1/1
f 16/5/1 15/5/1 14/5/1
f 17/5/1 15/5/1 16/5/1
f 20/7/1 19/7/1 18/7/1
f 21/7/1 19/7/1 20/7/1
f 24/2/1 23/2/1 22/2/1
f 25/2/1 23/2/1 24/2/1
f 29/2/1 27/2/1 26/2/1
f 31/2/1 29/2/1 28/2/1
f 32/2/1 29/2/1 31/2/1
f 32/2/1 31/2/1 30/2/1
f 33/2/1 27/2/1 29/2/1
f 33/2/1 29/2/1 32/2/1
f 34/2/1 32/2/1 30/2/1
f 35/2/1 32/2/1 34/2/1
f 38/4/1 37/4/1 36/4/1
f 39/4/1 37/4/1 38/4/1
f 41/6/1 39/6/1 38/6/1
f 41/6/1 40/6/1 39/6/1
f 42/6/1 40/6/1 41/6/1
f 47/6/1 44/6/1 43/6/1
f 48/3/1 45/3/1 44/3/1
f 48/6/1 44/6/1 47/6/1
f 49/6/1 46/6/1 45/6/1
f 49/3/1 45/3/1 48/3/1
f 50/6/1 46/6/1 49/6/1
f 55/6/1 52/6/1 51/6/1
f 56/3/1 53/3/1 52/3/1
f 56/6/1 52/6/1 55/6/1
f 57/6/1 54/6/1 53/6/1
f 57/3/1 53/3/1 56/3/1
f 58/6/1 54/6/1 57/6/1
f 59/4/2 60/4/2 61/4/2
f 61/4/2 60/4/2 62/4/2
f 63/1/2 64/1/2 65/1/2
f 65/1/2 64/1/2 66/1/2
f 67/2/2 68/2/2 70/2/2
f 69/2/2 70/2/2 72/2/2
f 72/2/2 70/2/2 73/2/2
f 71/2/2 72/2/2 73/2/2
f 70/2/2 68/2/2 74/2/2
f 73/2/2 70/2/2 74/2/2
f 71/2/2 73/2/2 75/2/2
f 75/2/2 73/2/2 76/2/2
f 77/2/2 78/2/2 79/2/2
f 79/2/2 78/2/2 80/2/2
f 81/5/2 82/5/2 83/5/2
f 83/5/2 82/5/2 84/5/2
f 85/7/2 86/7/2 87/7/2
f 87/7/2 86/7/2 88/7/2
f 89/6/2 90/6/2 93/6/2
f 90/3/2 91/3/2 94/3/2
f 93/6/2 90/6/2 94/6/2
f 91/6/2 92/6/2 95/6/2
f 94/3/2 91/3/2 95/3/2
f 95/6/2 92/6/2 96/6/2
f 100/4/3 98/4/3 97/4/3
f 101/6/3 99/6/3 98/6/3
f 101/4/3 98/4/3 100/4/3
f 102/6/3 99/6/3 101/6/3
f 104/6/3 101/6/3 100/6/3
f 104/6/3 103/6/3 102/6/3
f 104/6/3 102/6/3 101/6/3
f 105/6/3 103/6/3 104/6/3
f 109/4/3 107/4/3 106/4/3
f 110/6/3 108/6/3 107/6/3
f 110/4/3 107/4/3 109/4/3
f 111/6/3 108/6/3 110/6/3
f 113/6/3 111/6/3 110/6/3
f 113/5/3 112/5/3 111/5/3
f 114/5/3 112/5/3 113/5/3
f 115/6/3 113/6/3 110/6/3
f 116/6/3 113/6/3 115/6/3
f 119/1/3 118/1/3 117/1/3
f 120/1/3 118/1/3 119/1/3
f 125/2/3 124/2/3 123/2/3
f 126/2/3 124/2/3 125/2/3
f 127/7/3 122/7/3 121/7/3
f 128/7/3 122/7/3 127/7/3
f 131/2/3 130/2/3 129/2/3
f 132/2/3 130/2/3 131/2/3
f 135/2/3 134/2/3 133/2/3
f 136/2/3 134/2/3 135/2/3
f 141/6/3 140/6/3 139/6/3
f 142/6/3 140/6/3 141/6/3
f 143/6/3 138/6/3 137/6/3
f 144/6/3 138/6/3 143/6/3
f 145/3/3 142/3/3 141/3/3
f 146/3/3 142/3/3 145/3/3
f 147/3/3 144/3/3 143/3/3
f 148/3/3 144/3/3 147/3/3
f 149/6/3 146/6/3 145/6/3
f 150/6/3 146/6/3 149/6/3
f 151/6/3 148/6/3 147/6/3
f 152/6/3 148/6/3 151/6/3
f 153/4/4 154/4/4 155/4/4
f 155/4/4 154/4/4 156/4/4
f 157/1/4 158/1/4 159/1/4
f 159/1/4 158/1/4 160/1/4
f 161/5/4 162/5/4 163/5/4
f 163/5/4 162/5/4 164/5/4
f 165/7/4 166/7/4 167/7/4
f 167/7/4 166/7/4 168/7/4
f 165/7/4 167/7/4 169/7/4
f 168/7/4 166/7/4 170/7/4
f 165/7/4 169/7/4 171/7/4
f 169/7/4 170/7/4 171/7/4
f 170/7/4 166/7/4 172/7/4
f 171/7/4 170/7/4 172/7/4
f 173/2/4 174/2/4 175/2/4
f 175/2/4 174/2/4 176/2/4
f 177/2/4 178/2/4 179/2/4
f 179/2/4 178/2/4 180/2/4
f 181/2/4 182/2/4 183/2/4
f 183/2/4 182/2/4 184/2/4
f 185/6/4 186/6/4 187/6/4
f 187/6/4 186/6/4 188/6/4
f 187/3/4 188/3/4 189/3/4
f 189/3/4 188/3/4 190/3/4
f 189/6/4 190/6/4 191/6/4
f 191/6/4 190/6/4 192/6/4
f 196/4/5 194/4/5 193/4/5
f 197/6/5 195/6/5 194/6/5
f 197/4/5 194/4/5 196/4/5
f 198/6/5 195/6/5 197/6/5
f 199/6/5 195/6/5 198/6/5
f 200/3/5 199/3/5 198/3/5
f 201/3/5 199/3/5 200/3/5
f 204/4/5 203/4/5 202/4/5
f 205/4/5 203/4/5 204/4/5
f 208/6/5 201/6/5 200/6/5
f 209/6/5 205/6/5 204/6/5
f 209/6/5 206/6/5 205/6/5
f 210/3/5 207/3/5 206/3/5
f 210/6/5 206/6/5 209/6/5
f 211/6/5 208/6/5 207/6/5
f 211/3/5 207/3/5 210/3/5
f 212/6/5 201/6/5 208/6/5
f 212/6/5 208/6/5 211/6/5
f 215/6/5 214/6/5 213/6/5
f 216/6/5 215/6/5 213/6/5
f 218/6/5 216/6/5 213/6/5
f 219/6/5 218/6/5 217/6/5
f 220/6/5 218/6/5 219/6/5
f 221/6/5 218/6/5 220/6/5
f 222/6/5 216/6/5 218/6/5
f 222/6/5 218/6/5 221/6/5
f 225/7/5 224/7/5 223/7/5
f 226/7/5 224/7/5 225/7/5
f 229/2/5 228/2/5 227/2/5
f 230/2/5 228/2/5 229/2/5
f 233/2/5 232/2/5 231/2/5
f 234/2/5 232/2/5 233/2/5
f 235/6/6 236/6/6 237/6/6
f 235/6/6 237/6/6 238/6/6
f 235/6/6 238/6/6 242/6/6
f 239/6/6 240/6/6 243/6/6
f 243/6/6 240/6/6 244/6/6
f 239/6/6 243/6/6 245/6/6
f 244/6/6 240/6/6 246/6/6
f 246/6/6 240/6/6 247/6/6
f 241/6/6 242/6/6 248/6/6
f 246/6/6 247/6/6 249/6/6
f 247/6/6 248/6/6 249/6/6
f 245/6/6 246/6/6 249/6/6
f 249/6/6 248/6/6 250/6/6
f 245/6/6 249/6/6 251/6/6
f 250/6/6 248/6/6 252/6/6
f 239/6/6 245/6/6 253/6/6
f 251/6/6 252/6/6 253/6/6
f 245/6/6 251/6/6 253/6/6
f 253/6/6 252/6/6 254/6/6
f 254/6/6 252/6/6 255/6/6
f 248/6/6 242/6/6 256/6/6
f 255/6/6 252/6/6 256/6/6
f 242/6/6 238/6/6 256/6/6
f 252/6/6 248/6/6 256/6/6
f 259/1/6 260/1/6 261/1/6
f 261/1/6 260/1/6 262/1/6
f 257/5/6 258/5/6 263/5/6
f 263/5/6 258/5/6 264/5/6
f 265/2/6 266/2/6 267/2/6
f 267/2/6 266/2/6 268/2/6
f 265/2/6 267/2/6 269/2/6
f 268/2/6 266/2/6 270/2/6
f 265/2/6 269/2/6 271/2/6
f 269/2/6 270/2/6 271/2/6
f 270/2/6 266/2/6 272/2/6
f 271/2/6 270/2/6 272/2/6
f 273/2/6 274/2/6 275/2/6
f 275/2/6 274/2/6 276/2/6
f 277/2/6 278/2/6 279/2/6
f 279/2/6 278/2/6 280/2/6
f 281/7/6 282/7/6 283/7/6
f 283/7/6 282/7/6 284/7/6
f 285/6/6 286/6/6 287/6/6
f 287/6/6 286/6/6 288/6/6
f 287/3/6 288/3/6 289/3/6
f 289/3/6 288/3/6 290/3/6
f 289/6/6 290/6/6 294/6/6
f 291/6/6 292/6/6 295/6/6
f 292/3/6 293/3/6 296/3/6
f 295/6/6 292/6/6 296/6/6
f 293/6/6 294/6/6 297/6/6
f 296/3/6 293/3/6 297/3/6
f 294/6/6 290/6/6 298/6/6
f 297/6/6 294/6/6 298/6/6
