# MagicaVoxel @ Ephtracy

# group
o 

# material
mtllib PlayerCharacteryellow.mtl
usemtl palette

# normals
vn -1 0 0
vn 1 0 0
vn 0 0 1
vn 0 0 -1
vn 0 -1 0
vn 0 1 0

# texcoords
vt 0.970703 0.5
vt 0.974609 0.5
vt 0.978516 0.5
vt 0.982422 0.5

# verts
v -0.9 0 0.5
v -0.9 0 -0.6
v -0.9 0.8 0.5
v -0.9 0.8 -0.6
v -0.8 0 0.6
v -0.8 0 0.5
v -0.8 0 -0.6
v -0.8 0 -0.7
v -0.8 0.3 0.6
v -0.8 0.3 0.5
v -0.8 0.8 0.5
v -0.8 0.8 -0.6
v -0.8 0.9 0.5
v -0.8 0.9 -0.7
v -0.7 0 0.7
v -0.7 0 0.6
v -0.7 0 -0.7
v -0.7 0 -0.8
v -0.7 0.3 0.7
v -0.7 0.3 0.6
v -0.7 0.3 0.5
v -0.7 0.4 0.6
v -0.7 0.4 0.5
v -0.7 0.8 -0.7
v -0.7 0.8 -0.8
v -0.7 0.9 0.5
v -0.7 0.9 -0.5
v -0.7 1 0.5
v -0.7 1 0.2
v -0.7 1 -0.2
v -0.7 1 -0.5
v -0.7 1.1 0.2
v -0.7 1.1 -0.2
v -0.6 0 0.8
v -0.6 0 0.7
v -0.6 0.3 0.7
v -0.6 0.3 0.6
v -0.6 0.4 0.8
v -0.6 0.4 0.7
v -0.6 0.4 0.6
v -0.6 0.4 0.5
v -0.6 0.9 0.7
v -0.6 0.9 0.6
v -0.6 0.9 -0.5
v -0.6 0.9 -0.6
v -0.6 1 0.6
v -0.6 1 0.5
v -0.6 1 0.2
v -0.6 1 -0.2
v -0.6 1 -0.5
v -0.6 1 -0.6
v -0.6 1.1 0.5
v -0.6 1.1 0.3
v -0.6 1.1 0.2
v -0.6 1.1 -0.2
v -0.6 1.1 -0.3
v -0.6 1.1 -0.5
v -0.6 1.2 0.3
v -0.6 1.2 -0.3
v -0.5 0.4 0.8
v -0.5 0.4 0.7
v -0.5 0.6 0.8
v -0.5 0.6 0.7
v -0.5 0.9 0.7
v -0.5 0.9 0.6
v -0.5 1 0.7
v -0.5 1 0.6
v -0.5 1.1 0.4
v -0.5 1.1 0.3
v -0.5 1.1 -0.3
v -0.5 1.1 -0.4
v -0.5 1.2 0.4
v -0.5 1.2 0.3
v -0.5 1.2 -0.3
v -0.5 1.2 -0.4
v -0.4 0.6 0.8
v -0.4 0.6 0.7
v -0.4 0.9 0.8
v -0.4 0.9 0.7
v -0.4 1.1 0.5
v -0.4 1.1 0.4
v -0.4 1.1 -0.4
v -0.4 1.1 -0.5
v -0.4 1.2 0.5
v -0.4 1.2 0.4
v -0.4 1.2 -0.4
v -0.4 1.2 -0.5
v -0.1 1.2 0.1
v -0.1 1.2 -0.1
v -0.1 1.8 0.1
v -0.1 1.8 -0.1
v 0.2 0.6 0.8
v 0.2 0.6 0.7
v 0.2 0.7 0.8
v 0.2 0.7 0.7
v 0.2 0.8 0.8
v 0.2 0.8 0.7
v 0.2 0.9 0.8
v 0.2 0.9 0.7
v 0.3 1.5 0.1
v 0.3 1.5 -0.1
v 0.3 1.6 0.1
v 0.3 1.6 -0.1
v -0.2 0.6 0.8
v -0.2 0.6 0.7
v -0.2 0.7 0.8
v -0.2 0.7 0.7
v -0.2 0.8 0.8
v -0.2 0.8 0.7
v -0.2 0.9 0.8
v -0.2 0.9 0.7
v 0.1 1.2 0.1
v 0.1 1.2 -0.1
v 0.1 1.6 0.1
v 0.1 1.6 -0.1
v 0.4 0.6 0.8
v 0.4 0.6 0.7
v 0.4 0.9 0.8
v 0.4 0.9 0.7
v 0.4 1.1 0.5
v 0.4 1.1 0.4
v 0.4 1.1 -0.4
v 0.4 1.1 -0.5
v 0.4 1.2 0.5
v 0.4 1.2 0.4
v 0.4 1.2 -0.4
v 0.4 1.2 -0.5
v 0.5 0.4 0.8
v 0.5 0.4 0.7
v 0.5 0.6 0.8
v 0.5 0.6 0.7
v 0.5 0.9 0.7
v 0.5 0.9 0.6
v 0.5 1 0.7
v 0.5 1 0.6
v 0.5 1.1 0.4
v 0.5 1.1 0.3
v 0.5 1.1 -0.3
v 0.5 1.1 -0.4
v 0.5 1.2 0.4
v 0.5 1.2 0.3
v 0.5 1.2 -0.3
v 0.5 1.2 -0.4
v 0.5 1.5 0.1
v 0.5 1.5 -0.1
v 0.5 1.8 0.1
v 0.5 1.8 -0.1
v 0.6 0 0.8
v 0.6 0 0.7
v 0.6 0.3 0.7
v 0.6 0.3 0.6
v 0.6 0.4 0.8
v 0.6 0.4 0.7
v 0.6 0.4 0.6
v 0.6 0.4 0.5
v 0.6 0.9 0.7
v 0.6 0.9 0.6
v 0.6 0.9 -0.5
v 0.6 0.9 -0.6
v 0.6 1 0.6
v 0.6 1 0.5
v 0.6 1 0.2
v 0.6 1 -0.2
v 0.6 1 -0.5
v 0.6 1 -0.6
v 0.6 1.1 0.5
v 0.6 1.1 0.3
v 0.6 1.1 0.2
v 0.6 1.1 -0.2
v 0.6 1.1 -0.3
v 0.6 1.1 -0.5
v 0.6 1.2 0.3
v 0.6 1.2 -0.3
v 0.7 0 0.7
v 0.7 0 0.6
v 0.7 0 -0.7
v 0.7 0 -0.8
v 0.7 0.3 0.7
v 0.7 0.3 0.6
v 0.7 0.3 0.5
v 0.7 0.4 0.6
v 0.7 0.4 0.5
v 0.7 0.8 -0.7
v 0.7 0.8 -0.8
v 0.7 0.9 0.5
v 0.7 0.9 -0.5
v 0.7 1 0.5
v 0.7 1 0.2
v 0.7 1 -0.2
v 0.7 1 -0.5
v 0.7 1.1 0.2
v 0.7 1.1 -0.2
v 0.8 0 0.6
v 0.8 0 0.5
v 0.8 0 -0.6
v 0.8 0 -0.7
v 0.8 0.3 0.6
v 0.8 0.3 0.5
v 0.8 0.8 0.5
v 0.8 0.8 -0.6
v 0.8 0.9 0.5
v 0.8 0.9 -0.7
v 0.9 0 0.5
v 0.9 0 -0.6
v 0.9 0.8 0.5
v 0.9 0.8 -0.6
v -0.6 0 0.8
v -0.6 0.4 0.8
v -0.5 0.4 0.8
v -0.5 0.6 0.8
v -0.4 0.6 0.8
v -0.4 0.9 0.8
v -0.3 0.7 0.8
v -0.3 0.8 0.8
v -0.2 0.6 0.8
v -0.2 0.7 0.8
v -0.2 0.8 0.8
v -0.2 0.9 0.8
v 0.2 0.6 0.8
v 0.2 0.7 0.8
v 0.2 0.8 0.8
v 0.2 0.9 0.8
v 0.3 0.7 0.8
v 0.3 0.8 0.8
v 0.4 0.6 0.8
v 0.4 0.9 0.8
v 0.5 0.4 0.8
v 0.5 0.6 0.8
v 0.6 0 0.8
v 0.6 0.4 0.8
v -0.7 0 0.7
v -0.7 0.3 0.7
v -0.6 0 0.7
v -0.6 0.3 0.7
v -0.6 0.4 0.7
v -0.6 0.9 0.7
v -0.5 0.4 0.7
v -0.5 0.6 0.7
v -0.5 0.9 0.7
v -0.5 1 0.7
v -0.4 0.6 0.7
v -0.4 0.9 0.7
v -0.2 0.6 0.7
v -0.2 0.7 0.7
v -0.2 0.8 0.7
v -0.2 0.9 0.7
v 0.2 0.6 0.7
v 0.2 0.7 0.7
v 0.2 0.8 0.7
v 0.2 0.9 0.7
v 0.4 0.6 0.7
v 0.4 0.9 0.7
v 0.5 0.4 0.7
v 0.5 0.6 0.7
v 0.5 0.9 0.7
v 0.5 1 0.7
v 0.6 0 0.7
v 0.6 0.3 0.7
v 0.6 0.4 0.7
v 0.6 0.9 0.7
v 0.7 0 0.7
v 0.7 0.3 0.7
v -0.8 0 0.6
v -0.8 0.3 0.6
v -0.7 0 0.6
v -0.7 0.3 0.6
v -0.7 0.4 0.6
v -0.6 0.3 0.6
v -0.6 0.4 0.6
v -0.6 0.9 0.6
v -0.6 1 0.6
v -0.5 0.9 0.6
v -0.5 1 0.6
v 0.5 0.9 0.6
v 0.5 1 0.6
v 0.6 0.3 0.6
v 0.6 0.4 0.6
v 0.6 0.9 0.6
v 0.6 1 0.6
v 0.7 0 0.6
v 0.7 0.3 0.6
v 0.7 0.4 0.6
v 0.8 0 0.6
v 0.8 0.3 0.6
v -0.9 0 0.5
v -0.9 0.8 0.5
v -0.8 0 0.5
v -0.8 0.3 0.5
v -0.8 0.8 0.5
v -0.8 0.9 0.5
v -0.7 0.3 0.5
v -0.7 0.4 0.5
v -0.7 0.9 0.5
v -0.7 1 0.5
v -0.6 0.4 0.5
v -0.6 1 0.5
v -0.6 1.1 0.5
v -0.4 1.1 0.5
v -0.4 1.2 0.5
v 0.4 1.1 0.5
v 0.4 1.2 0.5
v 0.6 0.4 0.5
v 0.6 1 0.5
v 0.6 1.1 0.5
v 0.7 0.3 0.5
v 0.7 0.4 0.5
v 0.7 0.9 0.5
v 0.7 1 0.5
v 0.8 0 0.5
v 0.8 0.3 0.5
v 0.8 0.8 0.5
v 0.8 0.9 0.5
v 0.9 0 0.5
v 0.9 0.8 0.5
v -0.5 1.1 0.4
v -0.5 1.2 0.4
v -0.4 1.1 0.4
v -0.4 1.2 0.4
v 0.4 1.1 0.4
v 0.4 1.2 0.4
v 0.5 1.1 0.4
v 0.5 1.2 0.4
v -0.6 1.1 0.3
v -0.6 1.2 0.3
v -0.5 1.1 0.3
v -0.5 1.2 0.3
v 0.5 1.1 0.3
v 0.5 1.2 0.3
v 0.6 1.1 0.3
v 0.6 1.2 0.3
v -0.7 1 0.2
v -0.7 1.1 0.2
v -0.6 1 0.2
v -0.6 1.1 0.2
v 0.6 1 0.2
v 0.6 1.1 0.2
v 0.7 1 0.2
v 0.7 1.1 0.2
v -0.1 1.2 0.1
v -0.1 1.8 0.1
v 0.1 1.2 0.1
v 0.1 1.6 0.1
v 0.3 1.5 0.1
v 0.3 1.6 0.1
v 0.5 1.5 0.1
v 0.5 1.8 0.1
v -0.1 1.2 -0.1
v -0.1 1.8 -0.1
v 0.1 1.2 -0.1
v 0.1 1.6 -0.1
v 0.3 1.5 -0.1
v 0.3 1.6 -0.1
v 0.5 1.5 -0.1
v 0.5 1.8 -0.1
v -0.7 1 -0.2
v -0.7 1.1 -0.2
v -0.6 1 -0.2
v -0.6 1.1 -0.2
v 0.6 1 -0.2
v 0.6 1.1 -0.2
v 0.7 1 -0.2
v 0.7 1.1 -0.2
v -0.6 1.1 -0.3
v -0.6 1.2 -0.3
v -0.5 1.1 -0.3
v -0.5 1.2 -0.3
v 0.5 1.1 -0.3
v 0.5 1.2 -0.3
v 0.6 1.1 -0.3
v 0.6 1.2 -0.3
v -0.5 1.1 -0.4
v -0.5 1.2 -0.4
v -0.4 1.1 -0.4
v -0.4 1.2 -0.4
v 0.4 1.1 -0.4
v 0.4 1.2 -0.4
v 0.5 1.1 -0.4
v 0.5 1.2 -0.4
v -0.7 0.9 -0.5
v -0.7 1 -0.5
v -0.6 0.9 -0.5
v -0.6 1 -0.5
v -0.6 1.1 -0.5
v -0.4 1.1 -0.5
v -0.4 1.2 -0.5
v 0.4 1.1 -0.5
v 0.4 1.2 -0.5
v 0.6 0.9 -0.5
v 0.6 1 -0.5
v 0.6 1.1 -0.5
v 0.7 0.9 -0.5
v 0.7 1 -0.5
v -0.9 0 -0.6
v -0.9 0.8 -0.6
v -0.8 0 -0.6
v -0.8 0.8 -0.6
v -0.6 0.9 -0.6
v -0.6 1 -0.6
v 0.6 0.9 -0.6
v 0.6 1 -0.6
v 0.8 0 -0.6
v 0.8 0.8 -0.6
v 0.9 0 -0.6
v 0.9 0.8 -0.6
v -0.8 0 -0.7
v -0.8 0.9 -0.7
v -0.7 0 -0.7
v -0.7 0.8 -0.7
v 0.7 0 -0.7
v 0.7 0.8 -0.7
v 0.8 0 -0.7
v 0.8 0.9 -0.7
v -0.7 0 -0.8
v -0.7 0.8 -0.8
v 0.7 0 -0.8
v 0.7 0.8 -0.8
v -0.6 0 0.8
v 0.6 0 0.8
v -0.7 0 0.7
v -0.6 0 0.7
v 0.6 0 0.7
v 0.7 0 0.7
v -0.8 0 0.6
v -0.7 0 0.6
v 0.7 0 0.6
v 0.8 0 0.6
v -0.9 0 0.5
v -0.8 0 0.5
v 0.8 0 0.5
v 0.9 0 0.5
v -0.9 0 -0.6
v -0.8 0 -0.6
v 0.8 0 -0.6
v 0.9 0 -0.6
v -0.8 0 -0.7
v -0.7 0 -0.7
v 0.7 0 -0.7
v 0.8 0 -0.7
v -0.7 0 -0.8
v 0.7 0 -0.8
v 0.3 1.5 0.1
v 0.5 1.5 0.1
v 0.3 1.5 -0.1
v 0.5 1.5 -0.1
v 0.1 1.6 0.1
v 0.3 1.6 0.1
v 0.1 1.6 -0.1
v 0.3 1.6 -0.1
v -0.7 0.3 0.7
v -0.6 0.3 0.7
v 0.6 0.3 0.7
v 0.7 0.3 0.7
v -0.8 0.3 0.6
v -0.7 0.3 0.6
v -0.6 0.3 0.6
v 0.6 0.3 0.6
v 0.7 0.3 0.6
v 0.8 0.3 0.6
v -0.8 0.3 0.5
v -0.7 0.3 0.5
v 0.7 0.3 0.5
v 0.8 0.3 0.5
v -0.6 0.4 0.8
v -0.5 0.4 0.8
v 0.5 0.4 0.8
v 0.6 0.4 0.8
v -0.6 0.4 0.7
v -0.5 0.4 0.7
v 0.5 0.4 0.7
v 0.6 0.4 0.7
v -0.7 0.4 0.6
v -0.6 0.4 0.6
v 0.6 0.4 0.6
v 0.7 0.4 0.6
v -0.7 0.4 0.5
v -0.6 0.4 0.5
v 0.6 0.4 0.5
v 0.7 0.4 0.5
v -0.5 0.6 0.8
v -0.4 0.6 0.8
v -0.2 0.6 0.8
v 0.2 0.6 0.8
v 0.4 0.6 0.8
v 0.5 0.6 0.8
v -0.5 0.6 0.7
v -0.4 0.6 0.7
v -0.2 0.6 0.7
v 0.2 0.6 0.7
v 0.4 0.6 0.7
v 0.5 0.6 0.7
v -0.9 0.8 0.5
v -0.8 0.8 0.5
v 0.8 0.8 0.5
v 0.9 0.8 0.5
v -0.9 0.8 -0.6
v -0.8 0.8 -0.6
v 0.8 0.8 -0.6
v 0.9 0.8 -0.6
v -0.7 0.8 -0.7
v 0.7 0.8 -0.7
v -0.7 0.8 -0.8
v 0.7 0.8 -0.8
v -0.4 0.9 0.8
v -0.2 0.9 0.8
v 0.2 0.9 0.8
v 0.4 0.9 0.8
v -0.6 0.9 0.7
v -0.5 0.9 0.7
v -0.4 0.9 0.7
v -0.2 0.9 0.7
v 0.2 0.9 0.7
v 0.4 0.9 0.7
v 0.5 0.9 0.7
v 0.6 0.9 0.7
v -0.6 0.9 0.6
v -0.5 0.9 0.6
v 0.5 0.9 0.6
v 0.6 0.9 0.6
v -0.8 0.9 0.5
v -0.7 0.9 0.5
v 0.7 0.9 0.5
v 0.8 0.9 0.5
v -0.7 0.9 -0.5
v -0.6 0.9 -0.5
v 0.6 0.9 -0.5
v 0.7 0.9 -0.5
v -0.6 0.9 -0.6
v 0.6 0.9 -0.6
v -0.8 0.9 -0.7
v 0.8 0.9 -0.7
v -0.5 1 0.7
v 0.5 1 0.7
v -0.6 1 0.6
v -0.5 1 0.6
v 0.5 1 0.6
v 0.6 1 0.6
v -0.7 1 0.5
v -0.6 1 0.5
v 0.6 1 0.5
v 0.7 1 0.5
v -0.7 1 0.2
v -0.6 1 0.2
v 0.6 1 0.2
v 0.7 1 0.2
v -0.7 1 -0.2
v -0.6 1 -0.2
v 0.6 1 -0.2
v 0.7 1 -0.2
v -0.7 1 -0.5
v -0.6 1 -0.5
v 0.6 1 -0.5
v 0.7 1 -0.5
v -0.6 1 -0.6
v 0.6 1 -0.6
v -0.6 1.1 0.5
v -0.4 1.1 0.5
v 0.4 1.1 0.5
v 0.6 1.1 0.5
v -0.5 1.1 0.4
v -0.4 1.1 0.4
v 0.4 1.1 0.4
v 0.5 1.1 0.4
v -0.6 1.1 0.3
v -0.5 1.1 0.3
v 0.5 1.1 0.3
v 0.6 1.1 0.3
v -0.7 1.1 0.2
v -0.6 1.1 0.2
v 0.6 1.1 0.2
v 0.7 1.1 0.2
v -0.7 1.1 -0.2
v -0.6 1.1 -0.2
v 0.6 1.1 -0.2
v 0.7 1.1 -0.2
v -0.6 1.1 -0.3
v -0.5 1.1 -0.3
v 0.5 1.1 -0.3
v 0.6 1.1 -0.3
v -0.5 1.1 -0.4
v -0.4 1.1 -0.4
v 0.4 1.1 -0.4
v 0.5 1.1 -0.4
v -0.6 1.1 -0.5
v -0.4 1.1 -0.5
v 0.4 1.1 -0.5
v 0.6 1.1 -0.5
v -0.4 1.2 0.5
v 0.4 1.2 0.5
v -0.5 1.2 0.4
v -0.4 1.2 0.4
v 0.4 1.2 0.4
v 0.5 1.2 0.4
v -0.6 1.2 0.3
v -0.5 1.2 0.3
v 0.5 1.2 0.3
v 0.6 1.2 0.3
v -0.1 1.2 0.1
v 0.1 1.2 0.1
v -0.1 1.2 -0.1
v 0.1 1.2 -0.1
v -0.6 1.2 -0.3
v -0.5 1.2 -0.3
v 0.5 1.2 -0.3
v 0.6 1.2 -0.3
v -0.5 1.2 -0.4
v -0.4 1.2 -0.4
v 0.4 1.2 -0.4
v 0.5 1.2 -0.4
v -0.4 1.2 -0.5
v 0.4 1.2 -0.5
v -0.1 1.8 0.1
v 0.5 1.8 0.1
v -0.1 1.8 -0.1
v 0.5 1.8 -0.1

# faces
f 3/2/1 2/2/1 1/2/1
f 4/2/1 2/2/1 3/2/1
f 9/2/1 6/2/1 5/2/1
f 10/2/1 6/2/1 9/2/1
f 12/2/1 8/2/1 7/2/1
f 13/2/1 12/2/1 11/2/1
f 14/2/1 8/2/1 12/2/1
f 14/2/1 12/2/1 13/2/1
f 19/2/1 16/2/1 15/2/1
f 20/2/1 16/2/1 19/2/1
f 22/2/1 21/2/1 20/2/1
f 23/2/1 21/2/1 22/2/1
f 24/2/1 18/2/1 17/2/1
f 25/2/1 18/2/1 24/2/1
f 28/2/1 27/2/1 26/2/1
f 29/2/1 27/2/1 28/2/1
f 30/2/1 27/2/1 29/2/1
f 31/2/1 27/2/1 30/2/1
f 32/2/1 30/2/1 29/2/1
f 33/2/1 30/2/1 32/2/1
f 36/2/1 35/2/1 34/2/1
f 38/2/1 36/2/1 34/2/1
f 38/2/1 37/2/1 36/2/1
f 39/2/1 37/2/1 38/2/1
f 40/2/1 37/2/1 39/2/1
f 42/2/1 41/2/1 40/2/1
f 42/2/1 40/2/1 39/2/1
f 43/2/1 41/2/1 42/2/1
f 46/2/1 41/2/1 43/2/1
f 47/2/1 41/2/1 46/2/1
f 50/2/1 45/2/1 44/2/1
f 51/2/1 45/2/1 50/2/1
f 52/2/1 48/2/1 47/2/1
f 53/2/1 48/2/1 52/2/1
f 54/2/1 48/2/1 53/2/1
f 55/2/1 50/2/1 49/2/1
f 56/2/1 50/2/1 55/2/1
f 57/2/1 50/2/1 56/2/1
f 58/2/1 54/2/1 53/2/1
f 58/2/1 56/2/1 55/2/1
f 58/2/1 55/2/1 54/2/1
f 59/2/1 56/2/1 58/2/1
f 62/2/1 61/2/1 60/2/1
f 63/2/1 61/2/1 62/2/1
f 66/2/1 65/2/1 64/2/1
f 67/2/1 65/2/1 66/2/1
f 72/2/1 69/2/1 68/2/1
f 73/2/1 69/2/1 72/2/1
f 74/2/1 71/2/1 70/2/1
f 75/2/1 71/2/1 74/2/1
f 78/3/1 77/3/1 76/3/1
f 79/3/1 77/3/1 78/3/1
f 84/2/1 81/2/1 80/2/1
f 85/2/1 81/2/1 84/2/1
f 86/2/1 83/2/1 82/2/1
f 87/2/1 83/2/1 86/2/1
f 90/1/1 89/1/1 88/1/1
f 91/1/1 89/1/1 90/1/1
f 94/3/1 93/3/1 92/3/1
f 95/3/1 93/3/1 94/3/1
f 96/4/1 95/4/1 94/4/1
f 97/4/1 95/4/1 96/4/1
f 98/3/1 97/3/1 96/3/1
f 99/3/1 97/3/1 98/3/1
f 102/1/1 101/1/1 100/1/1
f 103/1/1 101/1/1 102/1/1
f 104/3/2 105/3/2 106/3/2
f 106/3/2 105/3/2 107/3/2
f 106/4/2 107/4/2 108/4/2
f 108/4/2 107/4/2 109/4/2
f 108/3/2 109/3/2 110/3/2
f 110/3/2 109/3/2 111/3/2
f 112/1/2 113/1/2 114/1/2
f 114/1/2 113/1/2 115/1/2
f 116/3/2 117/3/2 118/3/2
f 118/3/2 117/3/2 119/3/2
f 120/2/2 121/2/2 124/2/2
f 124/2/2 121/2/2 125/2/2
f 122/2/2 123/2/2 126/2/2
f 126/2/2 123/2/2 127/2/2
f 128/2/2 129/2/2 130/2/2
f 130/2/2 129/2/2 131/2/2
f 132/2/2 133/2/2 134/2/2
f 134/2/2 133/2/2 135/2/2
f 136/2/2 137/2/2 140/2/2
f 140/2/2 137/2/2 141/2/2
f 138/2/2 139/2/2 142/2/2
f 142/2/2 139/2/2 143/2/2
f 144/1/2 145/1/2 146/1/2
f 146/1/2 145/1/2 147/1/2
f 148/2/2 149/2/2 150/2/2
f 148/2/2 150/2/2 152/2/2
f 150/2/2 151/2/2 152/2/2
f 152/2/2 151/2/2 153/2/2
f 153/2/2 151/2/2 154/2/2
f 154/2/2 155/2/2 156/2/2
f 153/2/2 154/2/2 156/2/2
f 156/2/2 155/2/2 157/2/2
f 157/2/2 155/2/2 160/2/2
f 160/2/2 155/2/2 161/2/2
f 158/2/2 159/2/2 164/2/2
f 164/2/2 159/2/2 165/2/2
f 161/2/2 162/2/2 166/2/2
f 166/2/2 162/2/2 167/2/2
f 167/2/2 162/2/2 168/2/2
f 163/2/2 164/2/2 169/2/2
f 169/2/2 164/2/2 170/2/2
f 170/2/2 164/2/2 171/2/2
f 167/2/2 168/2/2 172/2/2
f 169/2/2 170/2/2 172/2/2
f 168/2/2 169/2/2 172/2/2
f 172/2/2 170/2/2 173/2/2
f 174/2/2 175/2/2 178/2/2
f 178/2/2 175/2/2 179/2/2
f 179/2/2 180/2/2 181/2/2
f 181/2/2 180/2/2 182/2/2
f 176/2/2 177/2/2 183/2/2
f 183/2/2 177/2/2 184/2/2
f 185/2/2 186/2/2 187/2/2
f 187/2/2 186/2/2 188/2/2
f 188/2/2 186/2/2 189/2/2
f 189/2/2 186/2/2 190/2/2
f 188/2/2 189/2/2 191/2/2
f 191/2/2 189/2/2 192/2/2
f 193/2/2 194/2/2 197/2/2
f 197/2/2 194/2/2 198/2/2
f 195/2/2 196/2/2 200/2/2
f 199/2/2 200/2/2 201/2/2
f 200/2/2 196/2/2 202/2/2
f 201/2/2 200/2/2 202/2/2
f 203/2/2 204/2/2 205/2/2
f 205/2/2 204/2/2 206/2/2
f 209/2/3 208/2/3 207/2/3
f 211/2/3 210/2/3 209/2/3
f 213/3/3 212/3/3 211/3/3
f 214/3/3 212/3/3 213/3/3
f 215/2/3 211/2/3 209/2/3
f 215/3/3 213/3/3 211/3/3
f 216/4/3 214/4/3 213/4/3
f 216/3/3 213/3/3 215/3/3
f 217/3/3 212/3/3 214/3/3
f 217/4/3 214/4/3 216/4/3
f 218/3/3 212/3/3 217/3/3
f 219/2/3 215/2/3 209/2/3
f 223/3/3 220/3/3 219/3/3
f 223/4/3 221/4/3 220/4/3
f 224/3/3 222/3/3 221/3/3
f 224/4/3 221/4/3 223/4/3
f 225/2/3 219/2/3 209/2/3
f 225/3/3 223/3/3 219/3/3
f 225/3/3 224/3/3 223/3/3
f 226/3/3 222/3/3 224/3/3
f 226/3/3 224/3/3 225/3/3
f 227/2/3 209/2/3 207/2/3
f 227/2/3 225/2/3 209/2/3
f 228/2/3 225/2/3 227/2/3
f 229/2/3 227/2/3 207/2/3
f 230/2/3 227/2/3 229/2/3
f 233/2/3 232/2/3 231/2/3
f 234/2/3 232/2/3 233/2/3
f 237/2/3 236/2/3 235/2/3
f 238/2/3 236/2/3 237/2/3
f 239/2/3 236/2/3 238/2/3
f 241/2/3 240/2/3 239/2/3
f 241/2/3 239/2/3 238/2/3
f 242/2/3 240/2/3 241/2/3
f 246/2/3 240/2/3 242/2/3
f 247/2/3 245/2/3 244/2/3
f 247/2/3 246/2/3 245/2/3
f 247/2/3 244/2/3 243/2/3
f 248/2/3 246/2/3 247/2/3
f 249/2/3 246/2/3 248/2/3
f 250/2/3 240/2/3 246/2/3
f 250/2/3 246/2/3 249/2/3
f 252/2/3 240/2/3 250/2/3
f 254/2/3 252/2/3 251/2/3
f 255/2/3 240/2/3 252/2/3
f 255/2/3 252/2/3 254/2/3
f 256/2/3 240/2/3 255/2/3
f 259/2/3 254/2/3 253/2/3
f 259/2/3 255/2/3 254/2/3
f 260/2/3 255/2/3 259/2/3
f 261/2/3 258/2/3 257/2/3
f 262/2/3 258/2/3 261/2/3
f 265/2/3 264/2/3 263/2/3
f 266/2/3 264/2/3 265/2/3
f 268/2/3 267/2/3 266/2/3
f 269/2/3 267/2/3 268/2/3
f 272/2/3 271/2/3 270/2/3
f 273/2/3 271/2/3 272/2/3
f 278/2/3 275/2/3 274/2/3
f 279/2/3 275/2/3 278/2/3
f 281/2/3 277/2/3 276/2/3
f 282/2/3 277/2/3 281/2/3
f 283/2/3 281/2/3 280/2/3
f 284/2/3 281/2/3 283/2/3
f 287/2/3 286/2/3 285/2/3
f 288/2/3 286/2/3 287/2/3
f 289/2/3 286/2/3 288/2/3
f 291/2/3 290/2/3 289/2/3
f 291/2/3 289/2/3 288/2/3
f 292/2/3 290/2/3 291/2/3
f 293/2/3 290/2/3 292/2/3
f 295/2/3 294/2/3 293/2/3
f 295/2/3 293/2/3 292/2/3
f 296/2/3 294/2/3 295/2/3
f 298/2/3 297/2/3 296/2/3
f 300/2/3 298/2/3 296/2/3
f 300/2/3 299/2/3 298/2/3
f 301/2/3 299/2/3 300/2/3
f 303/2/3 300/2/3 296/2/3
f 304/2/3 300/2/3 303/2/3
f 306/2/3 303/2/3 302/2/3
f 307/2/3 303/2/3 306/2/3
f 308/2/3 303/2/3 307/2/3
f 310/2/3 306/2/3 305/2/3
f 310/2/3 307/2/3 306/2/3
f 311/2/3 307/2/3 310/2/3
f 312/2/3 307/2/3 311/2/3
f 313/2/3 310/2/3 309/2/3
f 313/2/3 311/2/3 310/2/3
f 314/2/3 311/2/3 313/2/3
f 317/2/3 316/2/3 315/2/3
f 318/2/3 316/2/3 317/2/3
f 321/2/3 320/2/3 319/2/3
f 322/2/3 320/2/3 321/2/3
f 325/2/3 324/2/3 323/2/3
f 326/2/3 324/2/3 325/2/3
f 329/2/3 328/2/3 327/2/3
f 330/2/3 328/2/3 329/2/3
f 333/2/3 332/2/3 331/2/3
f 334/2/3 332/2/3 333/2/3
f 337/2/3 336/2/3 335/2/3
f 338/2/3 336/2/3 337/2/3
f 341/1/3 340/1/3 339/1/3
f 342/1/3 340/1/3 341/1/3
f 344/1/3 340/1/3 342/1/3
f 345/1/3 344/1/3 343/1/3
f 346/1/3 340/1/3 344/1/3
f 346/1/3 344/1/3 345/1/3
f 347/1/4 348/1/4 349/1/4
f 349/1/4 348/1/4 350/1/4
f 350/1/4 348/1/4 352/1/4
f 351/1/4 352/1/4 353/1/4
f 352/1/4 348/1/4 354/1/4
f 353/1/4 352/1/4 354/1/4
f 355/2/4 356/2/4 357/2/4
f 357/2/4 356/2/4 358/2/4
f 359/2/4 360/2/4 361/2/4
f 361/2/4 360/2/4 362/2/4
f 363/2/4 364/2/4 365/2/4
f 365/2/4 364/2/4 366/2/4
f 367/2/4 368/2/4 369/2/4
f 369/2/4 368/2/4 370/2/4
f 371/2/4 372/2/4 373/2/4
f 373/2/4 372/2/4 374/2/4
f 375/2/4 376/2/4 377/2/4
f 377/2/4 376/2/4 378/2/4
f 379/2/4 380/2/4 381/2/4
f 381/2/4 380/2/4 382/2/4
f 382/2/4 383/2/4 384/2/4
f 382/2/4 384/2/4 386/2/4
f 384/2/4 385/2/4 386/2/4
f 386/2/4 385/2/4 387/2/4
f 382/2/4 386/2/4 389/2/4
f 389/2/4 386/2/4 390/2/4
f 388/2/4 389/2/4 391/2/4
f 391/2/4 389/2/4 392/2/4
f 393/2/4 394/2/4 395/2/4
f 395/2/4 394/2/4 396/2/4
f 397/2/4 398/2/4 399/2/4
f 399/2/4 398/2/4 400/2/4
f 401/2/4 402/2/4 403/2/4
f 403/2/4 402/2/4 404/2/4
f 405/2/4 406/2/4 407/2/4
f 407/2/4 406/2/4 408/2/4
f 408/2/4 406/2/4 410/2/4
f 409/2/4 410/2/4 411/2/4
f 410/2/4 406/2/4 412/2/4
f 411/2/4 410/2/4 412/2/4
f 413/2/4 414/2/4 415/2/4
f 415/2/4 414/2/4 416/2/4
f 420/2/5 418/2/5 417/2/5
f 421/2/5 418/2/5 420/2/5
f 424/2/5 420/2/5 419/2/5
f 424/2/5 422/2/5 421/2/5
f 424/2/5 421/2/5 420/2/5
f 425/2/5 422/2/5 424/2/5
f 428/2/5 424/2/5 423/2/5
f 428/2/5 426/2/5 425/2/5
f 428/2/5 425/2/5 424/2/5
f 429/2/5 426/2/5 428/2/5
f 431/2/5 428/2/5 427/2/5
f 431/2/5 430/2/5 429/2/5
f 431/2/5 429/2/5 428/2/5
f 432/2/5 430/2/5 431/2/5
f 433/2/5 430/2/5 432/2/5
f 434/2/5 430/2/5 433/2/5
f 435/2/5 433/2/5 432/2/5
f 436/2/5 433/2/5 435/2/5
f 437/2/5 433/2/5 436/2/5
f 438/2/5 433/2/5 437/2/5
f 439/2/5 437/2/5 436/2/5
f 440/2/5 437/2/5 439/2/5
f 443/1/5 442/1/5 441/1/5
f 444/1/5 442/1/5 443/1/5
f 447/1/5 446/1/5 445/1/5
f 448/1/5 446/1/5 447/1/5
f 449/2/6 450/2/6 454/2/6
f 454/2/6 450/2/6 455/2/6
f 451/2/6 452/2/6 456/2/6
f 456/2/6 452/2/6 457/2/6
f 453/2/6 454/2/6 459/2/6
f 459/2/6 454/2/6 460/2/6
f 457/2/6 458/2/6 461/2/6
f 461/2/6 458/2/6 462/2/6
f 463/2/6 464/2/6 467/2/6
f 467/2/6 464/2/6 468/2/6
f 465/2/6 466/2/6 469/2/6
f 469/2/6 466/2/6 470/2/6
f 471/2/6 472/2/6 475/2/6
f 475/2/6 472/2/6 476/2/6
f 473/2/6 474/2/6 477/2/6
f 477/2/6 474/2/6 478/2/6
f 479/2/6 480/2/6 485/2/6
f 485/2/6 480/2/6 486/2/6
f 481/2/6 482/2/6 487/2/6
f 487/2/6 482/2/6 488/2/6
f 483/2/6 484/2/6 489/2/6
f 489/2/6 484/2/6 490/2/6
f 491/2/6 492/2/6 495/2/6
f 495/2/6 492/2/6 496/2/6
f 493/2/6 494/2/6 497/2/6
f 497/2/6 494/2/6 498/2/6
f 499/2/6 500/2/6 501/2/6
f 501/2/6 500/2/6 502/2/6
f 503/3/6 504/3/6 509/3/6
f 509/3/6 504/3/6 510/3/6
f 505/3/6 506/3/6 511/3/6
f 511/3/6 506/3/6 512/3/6
f 507/2/6 508/2/6 515/2/6
f 515/2/6 508/2/6 516/2/6
f 513/2/6 514/2/6 517/2/6
f 517/2/6 514/2/6 518/2/6
f 519/2/6 520/2/6 523/2/6
f 521/2/6 522/2/6 526/2/6
f 523/2/6 524/2/6 527/2/6
f 525/2/6 526/2/6 528/2/6
f 523/2/6 527/2/6 529/2/6
f 527/2/6 528/2/6 529/2/6
f 519/2/6 523/2/6 529/2/6
f 528/2/6 526/2/6 530/2/6
f 529/2/6 528/2/6 530/2/6
f 526/2/6 522/2/6 530/2/6
f 531/2/6 532/2/6 534/2/6
f 534/2/6 532/2/6 535/2/6
f 533/2/6 534/2/6 538/2/6
f 535/2/6 536/2/6 538/2/6
f 534/2/6 535/2/6 538/2/6
f 538/2/6 536/2/6 539/2/6
f 537/2/6 538/2/6 541/2/6
f 541/2/6 538/2/6 542/2/6
f 539/2/6 540/2/6 543/2/6
f 543/2/6 540/2/6 544/2/6
f 545/2/6 546/2/6 549/2/6
f 549/2/6 546/2/6 550/2/6
f 547/2/6 548/2/6 551/2/6
f 551/2/6 548/2/6 552/2/6
f 550/2/6 551/2/6 553/2/6
f 553/2/6 551/2/6 554/2/6
f 555/2/6 556/2/6 559/2/6
f 559/2/6 556/2/6 560/2/6
f 557/2/6 558/2/6 561/2/6
f 561/2/6 558/2/6 562/2/6
f 555/2/6 559/2/6 563/2/6
f 563/2/6 559/2/6 564/2/6
f 562/2/6 558/2/6 565/2/6
f 565/2/6 558/2/6 566/2/6
f 567/2/6 568/2/6 571/2/6
f 571/2/6 568/2/6 572/2/6
f 569/2/6 570/2/6 573/2/6
f 573/2/6 570/2/6 574/2/6
f 575/2/6 576/2/6 579/2/6
f 577/2/6 578/2/6 582/2/6
f 579/2/6 580/2/6 583/2/6
f 575/2/6 579/2/6 583/2/6
f 583/2/6 580/2/6 584/2/6
f 581/2/6 582/2/6 585/2/6
f 582/2/6 578/2/6 586/2/6
f 585/2/6 582/2/6 586/2/6
f 587/2/6 588/2/6 590/2/6
f 590/2/6 588/2/6 591/2/6
f 589/2/6 590/2/6 594/2/6
f 591/2/6 592/2/6 594/2/6
f 590/2/6 591/2/6 594/2/6
f 594/2/6 592/2/6 595/2/6
f 593/2/6 594/2/6 597/2/6
f 595/2/6 596/2/6 597/2/6
f 594/2/6 595/2/6 597/2/6
f 597/2/6 596/2/6 598/2/6
f 593/2/6 597/2/6 599/2/6
f 598/2/6 596/2/6 600/2/6
f 593/2/6 599/2/6 601/2/6
f 599/2/6 600/2/6 601/2/6
f 601/2/6 600/2/6 602/2/6
f 600/2/6 596/2/6 603/2/6
f 602/2/6 600/2/6 603/2/6
f 603/2/6 596/2/6 604/2/6
f 602/2/6 603/2/6 605/2/6
f 605/2/6 603/2/6 606/2/6
f 606/2/6 603/2/6 607/2/6
f 607/2/6 603/2/6 608/2/6
f 606/2/6 607/2/6 609/2/6
f 609/2/6 607/2/6 610/2/6
f 611/1/6 612/1/6 613/1/6
f 613/1/6 612/1/6 614/1/6
